<?xml version="1.0" encoding="utf-8" standalone="no"?>
<!DOCTYPE svg PUBLIC "-//W3C//DTD SVG 1.1//EN"
  "http://www.w3.org/Graphics/SVG/1.1/DTD/svg11.dtd">
<svg height="576pt" version="1.1" viewBox="0 0 864 576" width="864pt" xmlns="http://www.w3.org/2000/svg" xmlns:xlink="http://www.w3.org/1999/xlink">
 <metadata>
  <rdf:RDF xmlns:cc="http://creativecommons.org/ns#" xmlns:dc="http://purl.org/dc/elements/1.1/" xmlns:rdf="http://www.w3.org/1999/02/22-rdf-syntax-ns#">
   <cc:Work>
    <dc:type rdf:resource="http://purl.org/dc/dcmitype/StillImage"/>
    <dc:date>2024-12-02T14:09:00.143537</dc:date>
    <dc:format>image/svg+xml</dc:format>
    <dc:creator>
     <cc:Agent>
      <dc:title>Matplotlib v3.4.0, https://matplotlib.org/</dc:title>
     </cc:Agent>
    </dc:creator>
   </cc:Work>
  </rdf:RDF>
 </metadata>
 <defs>
  <style type="text/css">*{stroke-linecap:butt;stroke-linejoin:round;}</style>
 </defs>
 <g id="figure_1">
  <g id="patch_1">
   <path d="M 0 576 
L 864 576 
L 864 0 
L 0 0 
z
" style="fill:#ffffff;"/>
  </g>
  <g id="axes_1">
   <g id="patch_2">
    <path d="M 72.56 524.68 
L 851.04 524.68 
L 851.04 30.48 
L 72.56 30.48 
z
" style="fill:#ffffff;"/>
   </g>
   <g id="matplotlib.axis_1">
    <g id="xtick_1">
     <g id="line2d_1">
      <path clip-path="url(#pa9c889fcc5)" d="M 104.37117 524.68 
L 104.37117 30.48 
" style="fill:none;stroke:#b0b0b0;stroke-dasharray:1.85,0.8;stroke-dashoffset:0;stroke-opacity:0.5;stroke-width:0.5;"/>
     </g>
     <g id="line2d_2">
      <defs>
       <path d="M 0 0 
L 0 3.5 
" id="mb92fc5acb2" style="stroke:#000000;stroke-width:0.8;"/>
      </defs>
      <g>
       <use style="stroke:#000000;stroke-width:0.8;" x="104.37117" xlink:href="#mb92fc5acb2" y="524.68"/>
      </g>
     </g>
     <g id="text_1">
      <!-- −1.00 -->
      <g transform="translate(85.983982 540.798125)scale(0.12 -0.12)">
       <defs>
        <path d="M 678 2272 
L 4684 2272 
L 4684 1741 
L 678 1741 
L 678 2272 
z
" id="DejaVuSans-2212" transform="scale(0.015625)"/>
        <path d="M 794 531 
L 1825 531 
L 1825 4091 
L 703 3866 
L 703 4441 
L 1819 4666 
L 2450 4666 
L 2450 531 
L 3481 531 
L 3481 0 
L 794 0 
L 794 531 
z
" id="DejaVuSans-31" transform="scale(0.015625)"/>
        <path d="M 684 794 
L 1344 794 
L 1344 0 
L 684 0 
L 684 794 
z
" id="DejaVuSans-2e" transform="scale(0.015625)"/>
        <path d="M 2034 4250 
Q 1547 4250 1301 3770 
Q 1056 3291 1056 2328 
Q 1056 1369 1301 889 
Q 1547 409 2034 409 
Q 2525 409 2770 889 
Q 3016 1369 3016 2328 
Q 3016 3291 2770 3770 
Q 2525 4250 2034 4250 
z
M 2034 4750 
Q 2819 4750 3233 4129 
Q 3647 3509 3647 2328 
Q 3647 1150 3233 529 
Q 2819 -91 2034 -91 
Q 1250 -91 836 529 
Q 422 1150 422 2328 
Q 422 3509 836 4129 
Q 1250 4750 2034 4750 
z
" id="DejaVuSans-30" transform="scale(0.015625)"/>
       </defs>
       <use xlink:href="#DejaVuSans-2212"/>
       <use x="83.789062" xlink:href="#DejaVuSans-31"/>
       <use x="147.412109" xlink:href="#DejaVuSans-2e"/>
       <use x="179.199219" xlink:href="#DejaVuSans-30"/>
       <use x="242.822266" xlink:href="#DejaVuSans-30"/>
      </g>
     </g>
    </g>
    <g id="xtick_2">
     <g id="line2d_3">
      <path clip-path="url(#pa9c889fcc5)" d="M 193.728377 524.68 
L 193.728377 30.48 
" style="fill:none;stroke:#b0b0b0;stroke-dasharray:1.85,0.8;stroke-dashoffset:0;stroke-opacity:0.5;stroke-width:0.5;"/>
     </g>
     <g id="line2d_4">
      <g>
       <use style="stroke:#000000;stroke-width:0.8;" x="193.728377" xlink:href="#mb92fc5acb2" y="524.68"/>
      </g>
     </g>
     <g id="text_2">
      <!-- −0.75 -->
      <g transform="translate(175.34119 540.798125)scale(0.12 -0.12)">
       <defs>
        <path d="M 525 4666 
L 3525 4666 
L 3525 4397 
L 1831 0 
L 1172 0 
L 2766 4134 
L 525 4134 
L 525 4666 
z
" id="DejaVuSans-37" transform="scale(0.015625)"/>
        <path d="M 691 4666 
L 3169 4666 
L 3169 4134 
L 1269 4134 
L 1269 2991 
Q 1406 3038 1543 3061 
Q 1681 3084 1819 3084 
Q 2600 3084 3056 2656 
Q 3513 2228 3513 1497 
Q 3513 744 3044 326 
Q 2575 -91 1722 -91 
Q 1428 -91 1123 -41 
Q 819 9 494 109 
L 494 744 
Q 775 591 1075 516 
Q 1375 441 1709 441 
Q 2250 441 2565 725 
Q 2881 1009 2881 1497 
Q 2881 1984 2565 2268 
Q 2250 2553 1709 2553 
Q 1456 2553 1204 2497 
Q 953 2441 691 2322 
L 691 4666 
z
" id="DejaVuSans-35" transform="scale(0.015625)"/>
       </defs>
       <use xlink:href="#DejaVuSans-2212"/>
       <use x="83.789062" xlink:href="#DejaVuSans-30"/>
       <use x="147.412109" xlink:href="#DejaVuSans-2e"/>
       <use x="179.199219" xlink:href="#DejaVuSans-37"/>
       <use x="242.822266" xlink:href="#DejaVuSans-35"/>
      </g>
     </g>
    </g>
    <g id="xtick_3">
     <g id="line2d_5">
      <path clip-path="url(#pa9c889fcc5)" d="M 283.085585 524.68 
L 283.085585 30.48 
" style="fill:none;stroke:#b0b0b0;stroke-dasharray:1.85,0.8;stroke-dashoffset:0;stroke-opacity:0.5;stroke-width:0.5;"/>
     </g>
     <g id="line2d_6">
      <g>
       <use style="stroke:#000000;stroke-width:0.8;" x="283.085585" xlink:href="#mb92fc5acb2" y="524.68"/>
      </g>
     </g>
     <g id="text_3">
      <!-- −0.50 -->
      <g transform="translate(264.698397 540.798125)scale(0.12 -0.12)">
       <use xlink:href="#DejaVuSans-2212"/>
       <use x="83.789062" xlink:href="#DejaVuSans-30"/>
       <use x="147.412109" xlink:href="#DejaVuSans-2e"/>
       <use x="179.199219" xlink:href="#DejaVuSans-35"/>
       <use x="242.822266" xlink:href="#DejaVuSans-30"/>
      </g>
     </g>
    </g>
    <g id="xtick_4">
     <g id="line2d_7">
      <path clip-path="url(#pa9c889fcc5)" d="M 372.442792 524.68 
L 372.442792 30.48 
" style="fill:none;stroke:#b0b0b0;stroke-dasharray:1.85,0.8;stroke-dashoffset:0;stroke-opacity:0.5;stroke-width:0.5;"/>
     </g>
     <g id="line2d_8">
      <g>
       <use style="stroke:#000000;stroke-width:0.8;" x="372.442792" xlink:href="#mb92fc5acb2" y="524.68"/>
      </g>
     </g>
     <g id="text_4">
      <!-- −0.25 -->
      <g transform="translate(354.055605 540.798125)scale(0.12 -0.12)">
       <defs>
        <path d="M 1228 531 
L 3431 531 
L 3431 0 
L 469 0 
L 469 531 
Q 828 903 1448 1529 
Q 2069 2156 2228 2338 
Q 2531 2678 2651 2914 
Q 2772 3150 2772 3378 
Q 2772 3750 2511 3984 
Q 2250 4219 1831 4219 
Q 1534 4219 1204 4116 
Q 875 4013 500 3803 
L 500 4441 
Q 881 4594 1212 4672 
Q 1544 4750 1819 4750 
Q 2544 4750 2975 4387 
Q 3406 4025 3406 3419 
Q 3406 3131 3298 2873 
Q 3191 2616 2906 2266 
Q 2828 2175 2409 1742 
Q 1991 1309 1228 531 
z
" id="DejaVuSans-32" transform="scale(0.015625)"/>
       </defs>
       <use xlink:href="#DejaVuSans-2212"/>
       <use x="83.789062" xlink:href="#DejaVuSans-30"/>
       <use x="147.412109" xlink:href="#DejaVuSans-2e"/>
       <use x="179.199219" xlink:href="#DejaVuSans-32"/>
       <use x="242.822266" xlink:href="#DejaVuSans-35"/>
      </g>
     </g>
    </g>
    <g id="xtick_5">
     <g id="line2d_9">
      <path clip-path="url(#pa9c889fcc5)" d="M 461.8 524.68 
L 461.8 30.48 
" style="fill:none;stroke:#b0b0b0;stroke-dasharray:1.85,0.8;stroke-dashoffset:0;stroke-opacity:0.5;stroke-width:0.5;"/>
     </g>
     <g id="line2d_10">
      <g>
       <use style="stroke:#000000;stroke-width:0.8;" x="461.8" xlink:href="#mb92fc5acb2" y="524.68"/>
      </g>
     </g>
     <g id="text_5">
      <!-- 0.00 -->
      <g transform="translate(448.440625 540.798125)scale(0.12 -0.12)">
       <use xlink:href="#DejaVuSans-30"/>
       <use x="63.623047" xlink:href="#DejaVuSans-2e"/>
       <use x="95.410156" xlink:href="#DejaVuSans-30"/>
       <use x="159.033203" xlink:href="#DejaVuSans-30"/>
      </g>
     </g>
    </g>
    <g id="xtick_6">
     <g id="line2d_11">
      <path clip-path="url(#pa9c889fcc5)" d="M 551.157208 524.68 
L 551.157208 30.48 
" style="fill:none;stroke:#b0b0b0;stroke-dasharray:1.85,0.8;stroke-dashoffset:0;stroke-opacity:0.5;stroke-width:0.5;"/>
     </g>
     <g id="line2d_12">
      <g>
       <use style="stroke:#000000;stroke-width:0.8;" x="551.157208" xlink:href="#mb92fc5acb2" y="524.68"/>
      </g>
     </g>
     <g id="text_6">
      <!-- 0.25 -->
      <g transform="translate(537.797833 540.798125)scale(0.12 -0.12)">
       <use xlink:href="#DejaVuSans-30"/>
       <use x="63.623047" xlink:href="#DejaVuSans-2e"/>
       <use x="95.410156" xlink:href="#DejaVuSans-32"/>
       <use x="159.033203" xlink:href="#DejaVuSans-35"/>
      </g>
     </g>
    </g>
    <g id="xtick_7">
     <g id="line2d_13">
      <path clip-path="url(#pa9c889fcc5)" d="M 640.514415 524.68 
L 640.514415 30.48 
" style="fill:none;stroke:#b0b0b0;stroke-dasharray:1.85,0.8;stroke-dashoffset:0;stroke-opacity:0.5;stroke-width:0.5;"/>
     </g>
     <g id="line2d_14">
      <g>
       <use style="stroke:#000000;stroke-width:0.8;" x="640.514415" xlink:href="#mb92fc5acb2" y="524.68"/>
      </g>
     </g>
     <g id="text_7">
      <!-- 0.50 -->
      <g transform="translate(627.15504 540.798125)scale(0.12 -0.12)">
       <use xlink:href="#DejaVuSans-30"/>
       <use x="63.623047" xlink:href="#DejaVuSans-2e"/>
       <use x="95.410156" xlink:href="#DejaVuSans-35"/>
       <use x="159.033203" xlink:href="#DejaVuSans-30"/>
      </g>
     </g>
    </g>
    <g id="xtick_8">
     <g id="line2d_15">
      <path clip-path="url(#pa9c889fcc5)" d="M 729.871623 524.68 
L 729.871623 30.48 
" style="fill:none;stroke:#b0b0b0;stroke-dasharray:1.85,0.8;stroke-dashoffset:0;stroke-opacity:0.5;stroke-width:0.5;"/>
     </g>
     <g id="line2d_16">
      <g>
       <use style="stroke:#000000;stroke-width:0.8;" x="729.871623" xlink:href="#mb92fc5acb2" y="524.68"/>
      </g>
     </g>
     <g id="text_8">
      <!-- 0.75 -->
      <g transform="translate(716.512248 540.798125)scale(0.12 -0.12)">
       <use xlink:href="#DejaVuSans-30"/>
       <use x="63.623047" xlink:href="#DejaVuSans-2e"/>
       <use x="95.410156" xlink:href="#DejaVuSans-37"/>
       <use x="159.033203" xlink:href="#DejaVuSans-35"/>
      </g>
     </g>
    </g>
    <g id="xtick_9">
     <g id="line2d_17">
      <path clip-path="url(#pa9c889fcc5)" d="M 819.22883 524.68 
L 819.22883 30.48 
" style="fill:none;stroke:#b0b0b0;stroke-dasharray:1.85,0.8;stroke-dashoffset:0;stroke-opacity:0.5;stroke-width:0.5;"/>
     </g>
     <g id="line2d_18">
      <g>
       <use style="stroke:#000000;stroke-width:0.8;" x="819.22883" xlink:href="#mb92fc5acb2" y="524.68"/>
      </g>
     </g>
     <g id="text_9">
      <!-- 1.00 -->
      <g transform="translate(805.869455 540.798125)scale(0.12 -0.12)">
       <use xlink:href="#DejaVuSans-31"/>
       <use x="63.623047" xlink:href="#DejaVuSans-2e"/>
       <use x="95.410156" xlink:href="#DejaVuSans-30"/>
       <use x="159.033203" xlink:href="#DejaVuSans-30"/>
      </g>
     </g>
    </g>
    <g id="text_10">
     <!-- Magnitude of Brightness -->
     <g transform="translate(364.0075 559.45125)scale(0.16 -0.16)">
      <defs>
       <path d="M 628 4666 
L 1569 4666 
L 2759 1491 
L 3956 4666 
L 4897 4666 
L 4897 0 
L 4281 0 
L 4281 4097 
L 3078 897 
L 2444 897 
L 1241 4097 
L 1241 0 
L 628 0 
L 628 4666 
z
" id="DejaVuSans-4d" transform="scale(0.015625)"/>
       <path d="M 2194 1759 
Q 1497 1759 1228 1600 
Q 959 1441 959 1056 
Q 959 750 1161 570 
Q 1363 391 1709 391 
Q 2188 391 2477 730 
Q 2766 1069 2766 1631 
L 2766 1759 
L 2194 1759 
z
M 3341 1997 
L 3341 0 
L 2766 0 
L 2766 531 
Q 2569 213 2275 61 
Q 1981 -91 1556 -91 
Q 1019 -91 701 211 
Q 384 513 384 1019 
Q 384 1609 779 1909 
Q 1175 2209 1959 2209 
L 2766 2209 
L 2766 2266 
Q 2766 2663 2505 2880 
Q 2244 3097 1772 3097 
Q 1472 3097 1187 3025 
Q 903 2953 641 2809 
L 641 3341 
Q 956 3463 1253 3523 
Q 1550 3584 1831 3584 
Q 2591 3584 2966 3190 
Q 3341 2797 3341 1997 
z
" id="DejaVuSans-61" transform="scale(0.015625)"/>
       <path d="M 2906 1791 
Q 2906 2416 2648 2759 
Q 2391 3103 1925 3103 
Q 1463 3103 1205 2759 
Q 947 2416 947 1791 
Q 947 1169 1205 825 
Q 1463 481 1925 481 
Q 2391 481 2648 825 
Q 2906 1169 2906 1791 
z
M 3481 434 
Q 3481 -459 3084 -895 
Q 2688 -1331 1869 -1331 
Q 1566 -1331 1297 -1286 
Q 1028 -1241 775 -1147 
L 775 -588 
Q 1028 -725 1275 -790 
Q 1522 -856 1778 -856 
Q 2344 -856 2625 -561 
Q 2906 -266 2906 331 
L 2906 616 
Q 2728 306 2450 153 
Q 2172 0 1784 0 
Q 1141 0 747 490 
Q 353 981 353 1791 
Q 353 2603 747 3093 
Q 1141 3584 1784 3584 
Q 2172 3584 2450 3431 
Q 2728 3278 2906 2969 
L 2906 3500 
L 3481 3500 
L 3481 434 
z
" id="DejaVuSans-67" transform="scale(0.015625)"/>
       <path d="M 3513 2113 
L 3513 0 
L 2938 0 
L 2938 2094 
Q 2938 2591 2744 2837 
Q 2550 3084 2163 3084 
Q 1697 3084 1428 2787 
Q 1159 2491 1159 1978 
L 1159 0 
L 581 0 
L 581 3500 
L 1159 3500 
L 1159 2956 
Q 1366 3272 1645 3428 
Q 1925 3584 2291 3584 
Q 2894 3584 3203 3211 
Q 3513 2838 3513 2113 
z
" id="DejaVuSans-6e" transform="scale(0.015625)"/>
       <path d="M 603 3500 
L 1178 3500 
L 1178 0 
L 603 0 
L 603 3500 
z
M 603 4863 
L 1178 4863 
L 1178 4134 
L 603 4134 
L 603 4863 
z
" id="DejaVuSans-69" transform="scale(0.015625)"/>
       <path d="M 1172 4494 
L 1172 3500 
L 2356 3500 
L 2356 3053 
L 1172 3053 
L 1172 1153 
Q 1172 725 1289 603 
Q 1406 481 1766 481 
L 2356 481 
L 2356 0 
L 1766 0 
Q 1100 0 847 248 
Q 594 497 594 1153 
L 594 3053 
L 172 3053 
L 172 3500 
L 594 3500 
L 594 4494 
L 1172 4494 
z
" id="DejaVuSans-74" transform="scale(0.015625)"/>
       <path d="M 544 1381 
L 544 3500 
L 1119 3500 
L 1119 1403 
Q 1119 906 1312 657 
Q 1506 409 1894 409 
Q 2359 409 2629 706 
Q 2900 1003 2900 1516 
L 2900 3500 
L 3475 3500 
L 3475 0 
L 2900 0 
L 2900 538 
Q 2691 219 2414 64 
Q 2138 -91 1772 -91 
Q 1169 -91 856 284 
Q 544 659 544 1381 
z
M 1991 3584 
L 1991 3584 
z
" id="DejaVuSans-75" transform="scale(0.015625)"/>
       <path d="M 2906 2969 
L 2906 4863 
L 3481 4863 
L 3481 0 
L 2906 0 
L 2906 525 
Q 2725 213 2448 61 
Q 2172 -91 1784 -91 
Q 1150 -91 751 415 
Q 353 922 353 1747 
Q 353 2572 751 3078 
Q 1150 3584 1784 3584 
Q 2172 3584 2448 3432 
Q 2725 3281 2906 2969 
z
M 947 1747 
Q 947 1113 1208 752 
Q 1469 391 1925 391 
Q 2381 391 2643 752 
Q 2906 1113 2906 1747 
Q 2906 2381 2643 2742 
Q 2381 3103 1925 3103 
Q 1469 3103 1208 2742 
Q 947 2381 947 1747 
z
" id="DejaVuSans-64" transform="scale(0.015625)"/>
       <path d="M 3597 1894 
L 3597 1613 
L 953 1613 
Q 991 1019 1311 708 
Q 1631 397 2203 397 
Q 2534 397 2845 478 
Q 3156 559 3463 722 
L 3463 178 
Q 3153 47 2828 -22 
Q 2503 -91 2169 -91 
Q 1331 -91 842 396 
Q 353 884 353 1716 
Q 353 2575 817 3079 
Q 1281 3584 2069 3584 
Q 2775 3584 3186 3129 
Q 3597 2675 3597 1894 
z
M 3022 2063 
Q 3016 2534 2758 2815 
Q 2500 3097 2075 3097 
Q 1594 3097 1305 2825 
Q 1016 2553 972 2059 
L 3022 2063 
z
" id="DejaVuSans-65" transform="scale(0.015625)"/>
       <path id="DejaVuSans-20" transform="scale(0.015625)"/>
       <path d="M 1959 3097 
Q 1497 3097 1228 2736 
Q 959 2375 959 1747 
Q 959 1119 1226 758 
Q 1494 397 1959 397 
Q 2419 397 2687 759 
Q 2956 1122 2956 1747 
Q 2956 2369 2687 2733 
Q 2419 3097 1959 3097 
z
M 1959 3584 
Q 2709 3584 3137 3096 
Q 3566 2609 3566 1747 
Q 3566 888 3137 398 
Q 2709 -91 1959 -91 
Q 1206 -91 779 398 
Q 353 888 353 1747 
Q 353 2609 779 3096 
Q 1206 3584 1959 3584 
z
" id="DejaVuSans-6f" transform="scale(0.015625)"/>
       <path d="M 2375 4863 
L 2375 4384 
L 1825 4384 
Q 1516 4384 1395 4259 
Q 1275 4134 1275 3809 
L 1275 3500 
L 2222 3500 
L 2222 3053 
L 1275 3053 
L 1275 0 
L 697 0 
L 697 3053 
L 147 3053 
L 147 3500 
L 697 3500 
L 697 3744 
Q 697 4328 969 4595 
Q 1241 4863 1831 4863 
L 2375 4863 
z
" id="DejaVuSans-66" transform="scale(0.015625)"/>
       <path d="M 1259 2228 
L 1259 519 
L 2272 519 
Q 2781 519 3026 730 
Q 3272 941 3272 1375 
Q 3272 1813 3026 2020 
Q 2781 2228 2272 2228 
L 1259 2228 
z
M 1259 4147 
L 1259 2741 
L 2194 2741 
Q 2656 2741 2882 2914 
Q 3109 3088 3109 3444 
Q 3109 3797 2882 3972 
Q 2656 4147 2194 4147 
L 1259 4147 
z
M 628 4666 
L 2241 4666 
Q 2963 4666 3353 4366 
Q 3744 4066 3744 3513 
Q 3744 3084 3544 2831 
Q 3344 2578 2956 2516 
Q 3422 2416 3680 2098 
Q 3938 1781 3938 1306 
Q 3938 681 3513 340 
Q 3088 0 2303 0 
L 628 0 
L 628 4666 
z
" id="DejaVuSans-42" transform="scale(0.015625)"/>
       <path d="M 2631 2963 
Q 2534 3019 2420 3045 
Q 2306 3072 2169 3072 
Q 1681 3072 1420 2755 
Q 1159 2438 1159 1844 
L 1159 0 
L 581 0 
L 581 3500 
L 1159 3500 
L 1159 2956 
Q 1341 3275 1631 3429 
Q 1922 3584 2338 3584 
Q 2397 3584 2469 3576 
Q 2541 3569 2628 3553 
L 2631 2963 
z
" id="DejaVuSans-72" transform="scale(0.015625)"/>
       <path d="M 3513 2113 
L 3513 0 
L 2938 0 
L 2938 2094 
Q 2938 2591 2744 2837 
Q 2550 3084 2163 3084 
Q 1697 3084 1428 2787 
Q 1159 2491 1159 1978 
L 1159 0 
L 581 0 
L 581 4863 
L 1159 4863 
L 1159 2956 
Q 1366 3272 1645 3428 
Q 1925 3584 2291 3584 
Q 2894 3584 3203 3211 
Q 3513 2838 3513 2113 
z
" id="DejaVuSans-68" transform="scale(0.015625)"/>
       <path d="M 2834 3397 
L 2834 2853 
Q 2591 2978 2328 3040 
Q 2066 3103 1784 3103 
Q 1356 3103 1142 2972 
Q 928 2841 928 2578 
Q 928 2378 1081 2264 
Q 1234 2150 1697 2047 
L 1894 2003 
Q 2506 1872 2764 1633 
Q 3022 1394 3022 966 
Q 3022 478 2636 193 
Q 2250 -91 1575 -91 
Q 1294 -91 989 -36 
Q 684 19 347 128 
L 347 722 
Q 666 556 975 473 
Q 1284 391 1588 391 
Q 1994 391 2212 530 
Q 2431 669 2431 922 
Q 2431 1156 2273 1281 
Q 2116 1406 1581 1522 
L 1381 1569 
Q 847 1681 609 1914 
Q 372 2147 372 2553 
Q 372 3047 722 3315 
Q 1072 3584 1716 3584 
Q 2034 3584 2315 3537 
Q 2597 3491 2834 3397 
z
" id="DejaVuSans-73" transform="scale(0.015625)"/>
      </defs>
      <use xlink:href="#DejaVuSans-4d"/>
      <use x="86.279297" xlink:href="#DejaVuSans-61"/>
      <use x="147.558594" xlink:href="#DejaVuSans-67"/>
      <use x="211.035156" xlink:href="#DejaVuSans-6e"/>
      <use x="274.414062" xlink:href="#DejaVuSans-69"/>
      <use x="302.197266" xlink:href="#DejaVuSans-74"/>
      <use x="341.40625" xlink:href="#DejaVuSans-75"/>
      <use x="404.785156" xlink:href="#DejaVuSans-64"/>
      <use x="468.261719" xlink:href="#DejaVuSans-65"/>
      <use x="529.785156" xlink:href="#DejaVuSans-20"/>
      <use x="561.572266" xlink:href="#DejaVuSans-6f"/>
      <use x="622.753906" xlink:href="#DejaVuSans-66"/>
      <use x="657.958984" xlink:href="#DejaVuSans-20"/>
      <use x="689.746094" xlink:href="#DejaVuSans-42"/>
      <use x="758.349609" xlink:href="#DejaVuSans-72"/>
      <use x="799.462891" xlink:href="#DejaVuSans-69"/>
      <use x="827.246094" xlink:href="#DejaVuSans-67"/>
      <use x="890.722656" xlink:href="#DejaVuSans-68"/>
      <use x="954.101562" xlink:href="#DejaVuSans-74"/>
      <use x="993.310547" xlink:href="#DejaVuSans-6e"/>
      <use x="1056.689453" xlink:href="#DejaVuSans-65"/>
      <use x="1118.212891" xlink:href="#DejaVuSans-73"/>
      <use x="1170.3125" xlink:href="#DejaVuSans-73"/>
     </g>
    </g>
   </g>
   <g id="matplotlib.axis_2">
    <g id="ytick_1">
     <g id="line2d_19">
      <path clip-path="url(#pa9c889fcc5)" d="M 72.56 524.68 
L 851.04 524.68 
" style="fill:none;stroke:#b0b0b0;stroke-dasharray:1.85,0.8;stroke-dashoffset:0;stroke-opacity:0.5;stroke-width:0.5;"/>
     </g>
     <g id="line2d_20">
      <defs>
       <path d="M 0 0 
L -3.5 0 
" id="m1f03ee0a56" style="stroke:#000000;stroke-width:0.8;"/>
      </defs>
      <g>
       <use style="stroke:#000000;stroke-width:0.8;" x="72.56" xlink:href="#m1f03ee0a56" y="524.68"/>
      </g>
     </g>
     <g id="text_11">
      <!-- 0.000 -->
      <g transform="translate(31.20625 529.239062)scale(0.12 -0.12)">
       <use xlink:href="#DejaVuSans-30"/>
       <use x="63.623047" xlink:href="#DejaVuSans-2e"/>
       <use x="95.410156" xlink:href="#DejaVuSans-30"/>
       <use x="159.033203" xlink:href="#DejaVuSans-30"/>
       <use x="222.65625" xlink:href="#DejaVuSans-30"/>
      </g>
     </g>
    </g>
    <g id="ytick_2">
     <g id="line2d_21">
      <path clip-path="url(#pa9c889fcc5)" d="M 72.56 442.313333 
L 851.04 442.313333 
" style="fill:none;stroke:#b0b0b0;stroke-dasharray:1.85,0.8;stroke-dashoffset:0;stroke-opacity:0.5;stroke-width:0.5;"/>
     </g>
     <g id="line2d_22">
      <g>
       <use style="stroke:#000000;stroke-width:0.8;" x="72.56" xlink:href="#m1f03ee0a56" y="442.313333"/>
      </g>
     </g>
     <g id="text_12">
      <!-- 0.200 -->
      <g transform="translate(31.20625 446.872396)scale(0.12 -0.12)">
       <use xlink:href="#DejaVuSans-30"/>
       <use x="63.623047" xlink:href="#DejaVuSans-2e"/>
       <use x="95.410156" xlink:href="#DejaVuSans-32"/>
       <use x="159.033203" xlink:href="#DejaVuSans-30"/>
       <use x="222.65625" xlink:href="#DejaVuSans-30"/>
      </g>
     </g>
    </g>
    <g id="ytick_3">
     <g id="line2d_23">
      <path clip-path="url(#pa9c889fcc5)" d="M 72.56 359.946667 
L 851.04 359.946667 
" style="fill:none;stroke:#b0b0b0;stroke-dasharray:1.85,0.8;stroke-dashoffset:0;stroke-opacity:0.5;stroke-width:0.5;"/>
     </g>
     <g id="line2d_24">
      <g>
       <use style="stroke:#000000;stroke-width:0.8;" x="72.56" xlink:href="#m1f03ee0a56" y="359.946667"/>
      </g>
     </g>
     <g id="text_13">
      <!-- 0.400 -->
      <g transform="translate(31.20625 364.505729)scale(0.12 -0.12)">
       <defs>
        <path d="M 2419 4116 
L 825 1625 
L 2419 1625 
L 2419 4116 
z
M 2253 4666 
L 3047 4666 
L 3047 1625 
L 3713 1625 
L 3713 1100 
L 3047 1100 
L 3047 0 
L 2419 0 
L 2419 1100 
L 313 1100 
L 313 1709 
L 2253 4666 
z
" id="DejaVuSans-34" transform="scale(0.015625)"/>
       </defs>
       <use xlink:href="#DejaVuSans-30"/>
       <use x="63.623047" xlink:href="#DejaVuSans-2e"/>
       <use x="95.410156" xlink:href="#DejaVuSans-34"/>
       <use x="159.033203" xlink:href="#DejaVuSans-30"/>
       <use x="222.65625" xlink:href="#DejaVuSans-30"/>
      </g>
     </g>
    </g>
    <g id="ytick_4">
     <g id="line2d_25">
      <path clip-path="url(#pa9c889fcc5)" d="M 72.56 277.58 
L 851.04 277.58 
" style="fill:none;stroke:#b0b0b0;stroke-dasharray:1.85,0.8;stroke-dashoffset:0;stroke-opacity:0.5;stroke-width:0.5;"/>
     </g>
     <g id="line2d_26">
      <g>
       <use style="stroke:#000000;stroke-width:0.8;" x="72.56" xlink:href="#m1f03ee0a56" y="277.58"/>
      </g>
     </g>
     <g id="text_14">
      <!-- 0.600 -->
      <g transform="translate(31.20625 282.139062)scale(0.12 -0.12)">
       <defs>
        <path d="M 2113 2584 
Q 1688 2584 1439 2293 
Q 1191 2003 1191 1497 
Q 1191 994 1439 701 
Q 1688 409 2113 409 
Q 2538 409 2786 701 
Q 3034 994 3034 1497 
Q 3034 2003 2786 2293 
Q 2538 2584 2113 2584 
z
M 3366 4563 
L 3366 3988 
Q 3128 4100 2886 4159 
Q 2644 4219 2406 4219 
Q 1781 4219 1451 3797 
Q 1122 3375 1075 2522 
Q 1259 2794 1537 2939 
Q 1816 3084 2150 3084 
Q 2853 3084 3261 2657 
Q 3669 2231 3669 1497 
Q 3669 778 3244 343 
Q 2819 -91 2113 -91 
Q 1303 -91 875 529 
Q 447 1150 447 2328 
Q 447 3434 972 4092 
Q 1497 4750 2381 4750 
Q 2619 4750 2861 4703 
Q 3103 4656 3366 4563 
z
" id="DejaVuSans-36" transform="scale(0.015625)"/>
       </defs>
       <use xlink:href="#DejaVuSans-30"/>
       <use x="63.623047" xlink:href="#DejaVuSans-2e"/>
       <use x="95.410156" xlink:href="#DejaVuSans-36"/>
       <use x="159.033203" xlink:href="#DejaVuSans-30"/>
       <use x="222.65625" xlink:href="#DejaVuSans-30"/>
      </g>
     </g>
    </g>
    <g id="ytick_5">
     <g id="line2d_27">
      <path clip-path="url(#pa9c889fcc5)" d="M 72.56 195.213333 
L 851.04 195.213333 
" style="fill:none;stroke:#b0b0b0;stroke-dasharray:1.85,0.8;stroke-dashoffset:0;stroke-opacity:0.5;stroke-width:0.5;"/>
     </g>
     <g id="line2d_28">
      <g>
       <use style="stroke:#000000;stroke-width:0.8;" x="72.56" xlink:href="#m1f03ee0a56" y="195.213333"/>
      </g>
     </g>
     <g id="text_15">
      <!-- 0.800 -->
      <g transform="translate(31.20625 199.772396)scale(0.12 -0.12)">
       <defs>
        <path d="M 2034 2216 
Q 1584 2216 1326 1975 
Q 1069 1734 1069 1313 
Q 1069 891 1326 650 
Q 1584 409 2034 409 
Q 2484 409 2743 651 
Q 3003 894 3003 1313 
Q 3003 1734 2745 1975 
Q 2488 2216 2034 2216 
z
M 1403 2484 
Q 997 2584 770 2862 
Q 544 3141 544 3541 
Q 544 4100 942 4425 
Q 1341 4750 2034 4750 
Q 2731 4750 3128 4425 
Q 3525 4100 3525 3541 
Q 3525 3141 3298 2862 
Q 3072 2584 2669 2484 
Q 3125 2378 3379 2068 
Q 3634 1759 3634 1313 
Q 3634 634 3220 271 
Q 2806 -91 2034 -91 
Q 1263 -91 848 271 
Q 434 634 434 1313 
Q 434 1759 690 2068 
Q 947 2378 1403 2484 
z
M 1172 3481 
Q 1172 3119 1398 2916 
Q 1625 2713 2034 2713 
Q 2441 2713 2670 2916 
Q 2900 3119 2900 3481 
Q 2900 3844 2670 4047 
Q 2441 4250 2034 4250 
Q 1625 4250 1398 4047 
Q 1172 3844 1172 3481 
z
" id="DejaVuSans-38" transform="scale(0.015625)"/>
       </defs>
       <use xlink:href="#DejaVuSans-30"/>
       <use x="63.623047" xlink:href="#DejaVuSans-2e"/>
       <use x="95.410156" xlink:href="#DejaVuSans-38"/>
       <use x="159.033203" xlink:href="#DejaVuSans-30"/>
       <use x="222.65625" xlink:href="#DejaVuSans-30"/>
      </g>
     </g>
    </g>
    <g id="ytick_6">
     <g id="line2d_29">
      <path clip-path="url(#pa9c889fcc5)" d="M 72.56 112.846667 
L 851.04 112.846667 
" style="fill:none;stroke:#b0b0b0;stroke-dasharray:1.85,0.8;stroke-dashoffset:0;stroke-opacity:0.5;stroke-width:0.5;"/>
     </g>
     <g id="line2d_30">
      <g>
       <use style="stroke:#000000;stroke-width:0.8;" x="72.56" xlink:href="#m1f03ee0a56" y="112.846667"/>
      </g>
     </g>
     <g id="text_16">
      <!-- 1.000 -->
      <g transform="translate(31.20625 117.405729)scale(0.12 -0.12)">
       <use xlink:href="#DejaVuSans-31"/>
       <use x="63.623047" xlink:href="#DejaVuSans-2e"/>
       <use x="95.410156" xlink:href="#DejaVuSans-30"/>
       <use x="159.033203" xlink:href="#DejaVuSans-30"/>
       <use x="222.65625" xlink:href="#DejaVuSans-30"/>
      </g>
     </g>
    </g>
    <g id="ytick_7">
     <g id="line2d_31">
      <path clip-path="url(#pa9c889fcc5)" d="M 72.56 30.48 
L 851.04 30.48 
" style="fill:none;stroke:#b0b0b0;stroke-dasharray:1.85,0.8;stroke-dashoffset:0;stroke-opacity:0.5;stroke-width:0.5;"/>
     </g>
     <g id="line2d_32">
      <g>
       <use style="stroke:#000000;stroke-width:0.8;" x="72.56" xlink:href="#m1f03ee0a56" y="30.48"/>
      </g>
     </g>
     <g id="text_17">
      <!-- 1.200 -->
      <g transform="translate(31.20625 35.039062)scale(0.12 -0.12)">
       <use xlink:href="#DejaVuSans-31"/>
       <use x="63.623047" xlink:href="#DejaVuSans-2e"/>
       <use x="95.410156" xlink:href="#DejaVuSans-32"/>
       <use x="159.033203" xlink:href="#DejaVuSans-30"/>
       <use x="222.65625" xlink:href="#DejaVuSans-30"/>
      </g>
     </g>
    </g>
    <g id="ytick_8">
     <g id="line2d_33">
      <path clip-path="url(#pa9c889fcc5)" d="M 72.56 392.893333 
L 851.04 392.893333 
" style="fill:none;stroke:#b0b0b0;stroke-dasharray:1.85,0.8;stroke-dashoffset:0;stroke-opacity:0.5;stroke-width:0.5;"/>
     </g>
     <g id="line2d_34">
      <g>
       <use style="stroke:#000000;stroke-width:0.8;" x="72.56" xlink:href="#m1f03ee0a56" y="392.893333"/>
      </g>
     </g>
     <g id="text_18">
      <!-- 0.320 -->
      <g style="fill:#377eb8;" transform="translate(31.20625 397.452396)scale(0.12 -0.12)">
       <defs>
        <path d="M 2597 2516 
Q 3050 2419 3304 2112 
Q 3559 1806 3559 1356 
Q 3559 666 3084 287 
Q 2609 -91 1734 -91 
Q 1441 -91 1130 -33 
Q 819 25 488 141 
L 488 750 
Q 750 597 1062 519 
Q 1375 441 1716 441 
Q 2309 441 2620 675 
Q 2931 909 2931 1356 
Q 2931 1769 2642 2001 
Q 2353 2234 1838 2234 
L 1294 2234 
L 1294 2753 
L 1863 2753 
Q 2328 2753 2575 2939 
Q 2822 3125 2822 3475 
Q 2822 3834 2567 4026 
Q 2313 4219 1838 4219 
Q 1578 4219 1281 4162 
Q 984 4106 628 3988 
L 628 4550 
Q 988 4650 1302 4700 
Q 1616 4750 1894 4750 
Q 2613 4750 3031 4423 
Q 3450 4097 3450 3541 
Q 3450 3153 3228 2886 
Q 3006 2619 2597 2516 
z
" id="DejaVuSans-33" transform="scale(0.015625)"/>
       </defs>
       <use xlink:href="#DejaVuSans-30"/>
       <use x="63.623047" xlink:href="#DejaVuSans-2e"/>
       <use x="95.410156" xlink:href="#DejaVuSans-33"/>
       <use x="159.033203" xlink:href="#DejaVuSans-32"/>
       <use x="222.65625" xlink:href="#DejaVuSans-30"/>
      </g>
     </g>
    </g>
    <g id="ytick_9">
     <g id="line2d_35">
      <path clip-path="url(#pa9c889fcc5)" d="M 72.56 482.673 
L 851.04 482.673 
" style="fill:none;stroke:#b0b0b0;stroke-dasharray:1.85,0.8;stroke-dashoffset:0;stroke-opacity:0.5;stroke-width:0.5;"/>
     </g>
     <g id="line2d_36">
      <g>
       <use style="stroke:#000000;stroke-width:0.8;" x="72.56" xlink:href="#m1f03ee0a56" y="482.673"/>
      </g>
     </g>
     <g id="text_19">
      <!-- 0.102 -->
      <g style="fill:#4daf4a;" transform="translate(31.20625 487.232062)scale(0.12 -0.12)">
       <use xlink:href="#DejaVuSans-30"/>
       <use x="63.623047" xlink:href="#DejaVuSans-2e"/>
       <use x="95.410156" xlink:href="#DejaVuSans-31"/>
       <use x="159.033203" xlink:href="#DejaVuSans-30"/>
       <use x="222.65625" xlink:href="#DejaVuSans-32"/>
      </g>
     </g>
    </g>
    <g id="text_20">
     <!-- Confidence -->
     <g transform="translate(23.87875 322.5625)rotate(-90)scale(0.16 -0.16)">
      <defs>
       <path d="M 4122 4306 
L 4122 3641 
Q 3803 3938 3442 4084 
Q 3081 4231 2675 4231 
Q 1875 4231 1450 3742 
Q 1025 3253 1025 2328 
Q 1025 1406 1450 917 
Q 1875 428 2675 428 
Q 3081 428 3442 575 
Q 3803 722 4122 1019 
L 4122 359 
Q 3791 134 3420 21 
Q 3050 -91 2638 -91 
Q 1578 -91 968 557 
Q 359 1206 359 2328 
Q 359 3453 968 4101 
Q 1578 4750 2638 4750 
Q 3056 4750 3426 4639 
Q 3797 4528 4122 4306 
z
" id="DejaVuSans-43" transform="scale(0.015625)"/>
       <path d="M 3122 3366 
L 3122 2828 
Q 2878 2963 2633 3030 
Q 2388 3097 2138 3097 
Q 1578 3097 1268 2742 
Q 959 2388 959 1747 
Q 959 1106 1268 751 
Q 1578 397 2138 397 
Q 2388 397 2633 464 
Q 2878 531 3122 666 
L 3122 134 
Q 2881 22 2623 -34 
Q 2366 -91 2075 -91 
Q 1284 -91 818 406 
Q 353 903 353 1747 
Q 353 2603 823 3093 
Q 1294 3584 2113 3584 
Q 2378 3584 2631 3529 
Q 2884 3475 3122 3366 
z
" id="DejaVuSans-63" transform="scale(0.015625)"/>
      </defs>
      <use xlink:href="#DejaVuSans-43"/>
      <use x="69.824219" xlink:href="#DejaVuSans-6f"/>
      <use x="131.005859" xlink:href="#DejaVuSans-6e"/>
      <use x="194.384766" xlink:href="#DejaVuSans-66"/>
      <use x="229.589844" xlink:href="#DejaVuSans-69"/>
      <use x="257.373047" xlink:href="#DejaVuSans-64"/>
      <use x="320.849609" xlink:href="#DejaVuSans-65"/>
      <use x="382.373047" xlink:href="#DejaVuSans-6e"/>
      <use x="445.751953" xlink:href="#DejaVuSans-63"/>
      <use x="500.732422" xlink:href="#DejaVuSans-65"/>
     </g>
    </g>
   </g>
   <g id="line2d_37">
    <path clip-path="url(#pa9c889fcc5)" d="M 107.945455 392.893333 
L 119.740603 392.893333 
L 131.535752 260.060388 
L 143.330901 126.832679 
L 155.126049 126.294129 
L 166.921219 125.755578 
L 178.716368 125.217028 
L 190.511517 124.678474 
L 202.306665 124.139923 
L 214.101814 123.601373 
L 225.896963 123.062823 
L 237.692111 122.524268 
L 249.487281 121.985718 
L 261.28243 121.447167 
L 273.077579 120.908617 
L 284.872727 120.370067 
L 296.667876 119.831512 
L 308.463035 119.292962 
L 320.258184 118.754412 
L 332.053333 118.215857 
L 343.848492 117.677307 
L 355.643641 117.138757 
L 367.438789 116.600206 
L 379.233938 116.061656 
L 391.029092 115.523101 
L 402.824246 114.984551 
L 414.619395 114.446001 
L 426.414546 113.90745 
L 438.209697 113.368896 
L 450.004849 112.846667 
L 461.8 112.846667 
L 461.8 112.846667 
L 473.595151 112.846667 
L 485.390303 112.846667 
L 497.185454 112.846667 
L 508.980605 112.846667 
L 520.775754 112.846667 
L 532.570908 112.846667 
L 544.366062 112.846667 
L 556.161211 112.846667 
L 567.956359 112.846667 
L 579.751508 112.846667 
L 591.546667 112.846667 
L 603.341816 112.846667 
L 615.136965 112.846667 
L 626.932124 112.846667 
L 638.727273 112.846667 
L 650.522421 112.846667 
L 662.31757 112.846667 
L 674.112719 112.846667 
L 685.907889 112.846667 
L 697.703037 112.846667 
L 709.498186 112.846667 
L 721.293335 112.846667 
L 733.088483 112.846667 
L 744.883632 112.846667 
L 756.678781 112.846667 
L 768.473951 112.846667 
L 780.269099 112.846667 
L 792.064248 112.846667 
L 803.859397 112.846667 
L 815.654545 112.846667 
" style="fill:none;stroke:#377eb8;stroke-linecap:square;stroke-width:2;"/>
   </g>
   <g id="line2d_38">
    <path clip-path="url(#pa9c889fcc5)" d="M 107.945455 482.673 
L 119.740603 477.731 
L 131.535752 472.789 
L 143.330901 436.547667 
L 155.126049 368.183333 
L 166.921219 308.055667 
L 178.716368 252.87 
L 190.511517 215.805 
L 202.306665 185.329333 
L 214.101814 165.561333 
L 225.896963 149.088 
L 237.692111 136.733 
L 249.487281 129.32 
L 261.28243 126.849 
L 273.077579 124.378 
L 284.872727 121.083333 
L 296.667876 120.259667 
L 308.463035 116.141333 
L 320.258184 116.141333 
L 332.053333 116.965 
L 343.848492 116.965 
L 355.643641 114.494 
L 367.438789 114.494 
L 379.233938 113.670333 
L 391.029092 113.670333 
L 402.824246 113.670333 
L 414.619395 113.670333 
L 426.414546 112.846667 
L 438.209697 112.846667 
L 450.004849 112.846667 
L 461.8 112.846667 
L 461.8 112.846667 
L 473.595151 112.846667 
L 485.390303 112.846667 
L 497.185454 112.846667 
L 508.980605 112.846667 
L 520.775754 112.846667 
L 532.570908 112.846667 
L 544.366062 112.846667 
L 556.161211 114.494 
L 567.956359 113.670333 
L 579.751508 114.494 
L 591.546667 113.670333 
L 603.341816 113.670333 
L 615.136965 114.494 
L 626.932124 116.141333 
L 638.727273 117.788667 
L 650.522421 118.612333 
L 662.31757 118.612333 
L 674.112719 124.378 
L 685.907889 126.849 
L 697.703037 131.791 
L 709.498186 131.791 
L 721.293335 136.733 
L 733.088483 140.027667 
L 744.883632 142.498667 
L 756.678781 147.440667 
L 768.473951 152.382667 
L 780.269099 154.03 
L 792.064248 161.443 
L 803.859397 159.795667 
L 815.654545 170.503333 
" style="fill:none;stroke:#4daf4a;stroke-linecap:square;stroke-width:2;"/>
   </g>
   <g id="line2d_39">
    <path clip-path="url(#pa9c889fcc5)" d="M 107.945455 471.688798 
L 119.740603 436.987443 
L 131.535752 404.598625 
L 143.330901 374.442602 
L 155.126049 346.43963 
L 166.921219 320.509922 
L 178.716368 296.57383 
L 190.511517 274.551561 
L 202.306665 254.363373 
L 214.101814 235.929524 
L 225.896963 219.170271 
L 237.692111 204.005871 
L 249.487281 190.356558 
L 261.28243 178.142639 
L 273.077579 167.284345 
L 284.872727 157.701933 
L 296.667876 149.315661 
L 308.463035 142.045781 
L 320.258184 135.812562 
L 332.053333 130.536255 
L 343.848492 126.137114 
L 355.643641 122.535403 
L 367.438789 119.651376 
L 379.233938 117.405291 
L 391.029092 115.717404 
L 402.824246 114.507973 
L 414.619395 113.697255 
L 426.414546 113.205509 
L 438.209697 112.95299 
L 450.004849 112.859957 
L 461.8 112.846667 
L 461.8 112.846667 
L 473.595151 112.909455 
L 485.390303 113.097819 
L 497.185454 113.41176 
L 508.980605 113.851276 
L 520.775754 114.416369 
L 532.570908 115.107039 
L 544.366062 115.923284 
L 556.161211 116.865106 
L 567.956359 117.932503 
L 579.751508 119.125477 
L 591.546667 120.444028 
L 603.341816 121.888154 
L 615.136965 123.457857 
L 626.932124 125.153137 
L 638.727273 126.973992 
L 650.522421 128.920423 
L 662.31757 130.99243 
L 674.112719 133.190013 
L 685.907889 135.513177 
L 697.703037 137.961913 
L 709.498186 140.536225 
L 721.293335 143.236113 
L 733.088483 146.061577 
L 744.883632 149.012618 
L 756.678781 152.089234 
L 768.473951 155.291433 
L 780.269099 158.619202 
L 792.064248 162.072548 
L 803.859397 165.651469 
L 815.654545 169.355967 
" style="fill:none;stroke:#ff0000;stroke-dasharray:12.8,3.2,2,3.2;stroke-dashoffset:0;stroke-width:2;"/>
   </g>
   <g id="line2d_40">
    <path clip-path="url(#pa9c889fcc5)" d="M 107.945455 341.898822 
L 119.740603 229.117107 
L 131.535752 170.479513 
L 143.330901 140.694076 
L 155.126049 125.93778 
L 166.921219 118.821272 
L 178.716368 115.487457 
L 190.511517 113.974035 
L 202.306665 113.310074 
L 214.101814 113.029433 
L 225.896963 112.915549 
L 237.692111 112.87136 
L 249.487281 112.855041 
L 261.28243 112.849337 
L 273.077579 112.847461 
L 284.872727 112.846885 
L 296.667876 112.846722 
L 308.463035 112.846679 
L 320.258184 112.846669 
L 332.053333 112.846667 
L 343.848492 112.846667 
L 355.643641 112.846667 
L 367.438789 112.846667 
L 379.233938 112.846667 
L 391.029092 112.846667 
L 402.824246 112.846667 
L 414.619395 112.846667 
L 426.414546 112.846667 
L 438.209697 112.846667 
L 450.004849 112.846667 
L 461.8 112.846667 
L 461.8 112.846667 
L 473.595151 112.848739 
L 485.390303 112.863243 
L 497.185454 112.902611 
L 508.980605 112.979275 
L 520.775754 113.105668 
L 532.570908 113.29422 
L 544.366062 113.557365 
L 556.161211 113.907535 
L 567.956359 114.35716 
L 579.751508 114.918674 
L 591.546667 115.604509 
L 603.341816 116.427096 
L 615.136965 117.398867 
L 626.932124 118.532256 
L 638.727273 119.839693 
L 650.522421 121.33361 
L 662.31757 123.02644 
L 674.112719 124.930614 
L 685.907889 127.058569 
L 697.703037 129.42273 
L 709.498186 132.035531 
L 721.293335 134.909405 
L 733.088483 138.056784 
L 744.883632 141.4901 
L 756.678781 145.221784 
L 768.473951 149.264278 
L 780.269099 153.629997 
L 792.064248 158.331382 
L 803.859397 163.380863 
L 815.654545 168.790874 
" style="fill:none;stroke:#ff0000;stroke-dasharray:7.4,3.2;stroke-dashoffset:0;stroke-width:2;"/>
   </g>
   <g id="line2d_41">
    <path clip-path="url(#pa9c889fcc5)" d="M 107.945455 314.665596 
L 119.740603 301.435247 
L 131.535752 288.653384 
L 143.330901 276.320008 
L 155.126049 264.435118 
L 166.921219 252.998694 
L 178.716368 242.010777 
L 190.511517 231.471347 
L 202.306665 221.380403 
L 214.101814 211.737945 
L 225.896963 202.543974 
L 237.692111 193.798489 
L 249.487281 185.501475 
L 261.28243 177.652963 
L 273.077579 170.252938 
L 284.872727 163.301399 
L 296.667876 156.798346 
L 308.463035 150.743774 
L 320.258184 145.137694 
L 332.053333 139.980101 
L 343.848492 135.270989 
L 355.643641 131.010369 
L 367.438789 127.198235 
L 379.233938 123.834587 
L 391.029092 120.919424 
L 402.824246 118.452747 
L 414.619395 116.434559 
L 426.414546 114.864856 
L 438.209697 113.74364 
L 450.004849 113.07091 
L 461.8 112.846667 
L 461.8 112.846667 
L 473.595151 112.846667 
L 485.390303 112.846667 
L 497.185454 112.846667 
L 508.980605 112.846667 
L 520.775754 112.846667 
L 532.570908 112.846667 
L 544.366062 112.846667 
L 556.161211 112.846667 
L 567.956359 112.846667 
L 579.751508 112.846667 
L 591.546667 112.846667 
L 603.341816 112.846667 
L 615.136965 112.846667 
L 626.932124 112.846667 
L 638.727273 112.846667 
L 650.522421 112.846667 
L 662.31757 112.846667 
L 674.112719 112.846667 
L 685.907889 112.846667 
L 697.703037 112.846667 
L 709.498186 112.846667 
L 721.293335 112.846667 
L 733.088483 112.846667 
L 744.883632 112.846667 
L 756.678781 112.846667 
L 768.473951 112.846667 
L 780.269099 112.846667 
L 792.064248 112.846667 
L 803.859397 112.846667 
L 815.654545 112.846667 
" style="fill:none;stroke:#984ea3;stroke-linecap:square;stroke-width:2;"/>
   </g>
   <g id="line2d_42">
    <path clip-path="url(#pa9c889fcc5)" d="M 107.945455 483.496667 
L 119.740603 483.496667 
L 131.535752 483.496667 
L 143.330901 483.460318 
L 155.126049 481.738476 
L 166.921219 467.657985 
L 178.716368 449.167863 
L 190.511517 429.071857 
L 202.306665 407.645802 
L 214.101814 385.386467 
L 225.896963 362.60482 
L 237.692111 339.705888 
L 249.487281 316.98293 
L 261.28243 294.850188 
L 273.077579 273.405748 
L 284.872727 252.889588 
L 296.667876 233.743309 
L 308.463035 215.878078 
L 320.258184 199.348836 
L 332.053333 184.379567 
L 343.848492 170.873333 
L 355.643641 158.986185 
L 367.438789 148.575444 
L 379.233938 139.634224 
L 391.029092 132.113181 
L 402.824246 125.969479 
L 414.619395 121.119838 
L 426.414546 117.467614 
L 438.209697 114.947425 
L 450.004849 113.460002 
L 461.8 112.846667 
L 461.8 112.846667 
L 473.595151 113.283768 
L 485.390303 114.523761 
L 497.185454 116.521939 
L 508.980605 119.261367 
L 520.775754 122.650753 
L 532.570908 126.592163 
L 544.366062 131.018215 
L 556.161211 135.874749 
L 567.956359 141.019257 
L 579.751508 146.440556 
L 591.546667 151.982847 
L 603.341816 157.748641 
L 615.136965 163.595388 
L 626.932124 169.478452 
L 638.727273 175.433595 
L 650.522421 181.459621 
L 662.31757 187.382364 
L 674.112719 193.323918 
L 685.907889 199.188574 
L 697.703037 205.025238 
L 709.498186 210.719247 
L 721.293335 216.353417 
L 733.088483 221.949013 
L 744.883632 227.361908 
L 756.678781 232.758697 
L 768.473951 237.923179 
L 780.269099 243.146536 
L 792.064248 248.207735 
L 803.859397 253.047524 
L 815.654545 257.656726 
" style="fill:none;stroke:#333333;stroke-linecap:square;stroke-opacity:0.8;"/>
   </g>
   <g id="line2d_43">
    <path clip-path="url(#pa9c889fcc5)" d="M 107.945455 143.156384 
L 119.740603 115.732903 
L 131.535752 113.896316 
L 143.330901 113.386679 
L 155.126049 113.173749 
L 166.921219 113.067522 
L 178.716368 113.006457 
L 190.511517 112.966604 
L 202.306665 112.94089 
L 214.101814 112.923481 
L 225.896963 112.911031 
L 237.692111 112.901267 
L 249.487281 112.893431 
L 261.28243 112.887655 
L 273.077579 112.882762 
L 284.872727 112.879362 
L 296.667876 112.87571 
L 308.463035 112.872924 
L 320.258184 112.870688 
L 332.053333 112.86888 
L 343.848492 112.867191 
L 355.643641 112.865523 
L 367.438789 112.864309 
L 379.233938 112.863217 
L 391.029092 112.862378 
L 402.824246 112.861358 
L 414.619395 112.860695 
L 426.414546 112.859785 
L 438.209697 112.858818 
L 450.004849 112.856939 
L 461.8 112.847566 
L 461.8 112.847566 
L 473.595151 112.864153 
L 485.390303 112.89988 
L 497.185454 112.971197 
L 508.980605 113.087782 
L 520.775754 113.256771 
L 532.570908 113.48361 
L 544.366062 113.771193 
L 556.161211 114.125299 
L 567.956359 114.541425 
L 579.751508 115.021618 
L 591.546667 115.554416 
L 603.341816 116.151757 
L 615.136965 116.80338 
L 626.932124 117.511076 
L 638.727273 118.275644 
L 650.522421 119.095402 
L 662.31757 119.957618 
L 674.112719 120.869696 
L 685.907889 121.821627 
L 697.703037 122.817168 
L 709.498186 123.828183 
L 721.293335 124.872768 
L 733.088483 125.946271 
L 744.883632 127.032923 
L 756.678781 128.150925 
L 768.473951 129.258368 
L 780.269099 130.416251 
L 792.064248 131.574023 
L 803.859397 132.71951 
L 815.654545 133.856514 
" style="fill:none;stroke:#333333;stroke-dasharray:3.7,1.6;stroke-dashoffset:0;stroke-opacity:0.8;"/>
   </g>
   <g id="line2d_44">
    <path clip-path="url(#pa9c889fcc5)" d="M 107.945455 483.496667 
L 119.740603 483.496667 
L 131.535752 483.496667 
L 143.330901 483.496667 
L 155.126049 483.496667 
L 166.921219 478.745315 
L 178.716368 461.003701 
L 190.511517 441.280861 
L 202.306665 419.935569 
L 214.101814 397.408836 
L 225.896963 374.18513 
L 237.692111 350.62791 
L 249.487281 327.147756 
L 261.28243 304.155638 
L 273.077579 281.772467 
L 284.872727 260.384446 
L 296.667876 240.291173 
L 308.463035 221.575102 
L 320.258184 204.209847 
L 332.053333 188.50667 
L 343.848492 174.352705 
L 355.643641 161.831284 
L 367.438789 150.918178 
L 379.233938 141.509038 
L 391.029092 133.639863 
L 402.824246 127.22289 
L 414.619395 122.114202 
L 426.414546 118.281942 
L 438.209697 115.632608 
L 450.004849 114.057451 
L 461.8 113.362092 
L 461.8 113.362092 
L 473.595151 114.042673 
L 485.390303 115.534923 
L 497.185454 117.747722 
L 508.980605 120.873489 
L 520.775754 124.836026 
L 532.570908 129.312502 
L 544.366062 134.310542 
L 556.161211 139.813178 
L 567.956359 145.587662 
L 579.751508 151.642927 
L 591.546667 157.776639 
L 603.341816 164.127455 
L 615.136965 170.520501 
L 626.932124 176.978104 
L 638.727273 183.517757 
L 650.522421 190.101951 
L 662.31757 196.583314 
L 674.112719 203.086512 
L 685.907889 209.469986 
L 697.703037 215.813845 
L 709.498186 222.002577 
L 721.293335 228.181432 
L 733.088483 234.307052 
L 744.883632 240.214262 
L 756.678781 246.083719 
L 768.473951 251.675896 
L 780.269099 257.344465 
L 792.064248 262.837783 
L 803.859397 268.097801 
L 815.654545 273.087323 
" style="fill:none;stroke:#333333;stroke-linecap:square;stroke-opacity:0.8;"/>
    <defs>
     <path d="M 0 1.5 
C 0.397805 1.5 0.77937 1.341951 1.06066 1.06066 
C 1.341951 0.77937 1.5 0.397805 1.5 0 
C 1.5 -0.397805 1.341951 -0.77937 1.06066 -1.06066 
C 0.77937 -1.341951 0.397805 -1.5 0 -1.5 
C -0.397805 -1.5 -0.77937 -1.341951 -1.06066 -1.06066 
C -1.341951 -0.77937 -1.5 -0.397805 -1.5 0 
C -1.5 0.397805 -1.341951 0.77937 -1.06066 1.06066 
C -0.77937 1.341951 -0.397805 1.5 0 1.5 
z
" id="mcb5e4336fc" style="stroke:#333333;stroke-opacity:0.8;"/>
    </defs>
    <g clip-path="url(#pa9c889fcc5)">
     <use style="fill:#333333;fill-opacity:0.8;stroke:#333333;stroke-opacity:0.8;" x="107.945455" xlink:href="#mcb5e4336fc" y="483.496667"/>
     <use style="fill:#333333;fill-opacity:0.8;stroke:#333333;stroke-opacity:0.8;" x="119.740603" xlink:href="#mcb5e4336fc" y="483.496667"/>
     <use style="fill:#333333;fill-opacity:0.8;stroke:#333333;stroke-opacity:0.8;" x="131.535752" xlink:href="#mcb5e4336fc" y="483.496667"/>
     <use style="fill:#333333;fill-opacity:0.8;stroke:#333333;stroke-opacity:0.8;" x="143.330901" xlink:href="#mcb5e4336fc" y="483.496667"/>
     <use style="fill:#333333;fill-opacity:0.8;stroke:#333333;stroke-opacity:0.8;" x="155.126049" xlink:href="#mcb5e4336fc" y="483.496667"/>
     <use style="fill:#333333;fill-opacity:0.8;stroke:#333333;stroke-opacity:0.8;" x="166.921219" xlink:href="#mcb5e4336fc" y="478.745315"/>
     <use style="fill:#333333;fill-opacity:0.8;stroke:#333333;stroke-opacity:0.8;" x="178.716368" xlink:href="#mcb5e4336fc" y="461.003701"/>
     <use style="fill:#333333;fill-opacity:0.8;stroke:#333333;stroke-opacity:0.8;" x="190.511517" xlink:href="#mcb5e4336fc" y="441.280861"/>
     <use style="fill:#333333;fill-opacity:0.8;stroke:#333333;stroke-opacity:0.8;" x="202.306665" xlink:href="#mcb5e4336fc" y="419.935569"/>
     <use style="fill:#333333;fill-opacity:0.8;stroke:#333333;stroke-opacity:0.8;" x="214.101814" xlink:href="#mcb5e4336fc" y="397.408836"/>
     <use style="fill:#333333;fill-opacity:0.8;stroke:#333333;stroke-opacity:0.8;" x="225.896963" xlink:href="#mcb5e4336fc" y="374.18513"/>
     <use style="fill:#333333;fill-opacity:0.8;stroke:#333333;stroke-opacity:0.8;" x="237.692111" xlink:href="#mcb5e4336fc" y="350.62791"/>
     <use style="fill:#333333;fill-opacity:0.8;stroke:#333333;stroke-opacity:0.8;" x="249.487281" xlink:href="#mcb5e4336fc" y="327.147756"/>
     <use style="fill:#333333;fill-opacity:0.8;stroke:#333333;stroke-opacity:0.8;" x="261.28243" xlink:href="#mcb5e4336fc" y="304.155638"/>
     <use style="fill:#333333;fill-opacity:0.8;stroke:#333333;stroke-opacity:0.8;" x="273.077579" xlink:href="#mcb5e4336fc" y="281.772467"/>
     <use style="fill:#333333;fill-opacity:0.8;stroke:#333333;stroke-opacity:0.8;" x="284.872727" xlink:href="#mcb5e4336fc" y="260.384446"/>
     <use style="fill:#333333;fill-opacity:0.8;stroke:#333333;stroke-opacity:0.8;" x="296.667876" xlink:href="#mcb5e4336fc" y="240.291173"/>
     <use style="fill:#333333;fill-opacity:0.8;stroke:#333333;stroke-opacity:0.8;" x="308.463035" xlink:href="#mcb5e4336fc" y="221.575102"/>
     <use style="fill:#333333;fill-opacity:0.8;stroke:#333333;stroke-opacity:0.8;" x="320.258184" xlink:href="#mcb5e4336fc" y="204.209847"/>
     <use style="fill:#333333;fill-opacity:0.8;stroke:#333333;stroke-opacity:0.8;" x="332.053333" xlink:href="#mcb5e4336fc" y="188.50667"/>
     <use style="fill:#333333;fill-opacity:0.8;stroke:#333333;stroke-opacity:0.8;" x="343.848492" xlink:href="#mcb5e4336fc" y="174.352705"/>
     <use style="fill:#333333;fill-opacity:0.8;stroke:#333333;stroke-opacity:0.8;" x="355.643641" xlink:href="#mcb5e4336fc" y="161.831284"/>
     <use style="fill:#333333;fill-opacity:0.8;stroke:#333333;stroke-opacity:0.8;" x="367.438789" xlink:href="#mcb5e4336fc" y="150.918178"/>
     <use style="fill:#333333;fill-opacity:0.8;stroke:#333333;stroke-opacity:0.8;" x="379.233938" xlink:href="#mcb5e4336fc" y="141.509038"/>
     <use style="fill:#333333;fill-opacity:0.8;stroke:#333333;stroke-opacity:0.8;" x="391.029092" xlink:href="#mcb5e4336fc" y="133.639863"/>
     <use style="fill:#333333;fill-opacity:0.8;stroke:#333333;stroke-opacity:0.8;" x="402.824246" xlink:href="#mcb5e4336fc" y="127.22289"/>
     <use style="fill:#333333;fill-opacity:0.8;stroke:#333333;stroke-opacity:0.8;" x="414.619395" xlink:href="#mcb5e4336fc" y="122.114202"/>
     <use style="fill:#333333;fill-opacity:0.8;stroke:#333333;stroke-opacity:0.8;" x="426.414546" xlink:href="#mcb5e4336fc" y="118.281942"/>
     <use style="fill:#333333;fill-opacity:0.8;stroke:#333333;stroke-opacity:0.8;" x="438.209697" xlink:href="#mcb5e4336fc" y="115.632608"/>
     <use style="fill:#333333;fill-opacity:0.8;stroke:#333333;stroke-opacity:0.8;" x="450.004849" xlink:href="#mcb5e4336fc" y="114.057451"/>
     <use style="fill:#333333;fill-opacity:0.8;stroke:#333333;stroke-opacity:0.8;" x="461.8" xlink:href="#mcb5e4336fc" y="113.362092"/>
     <use style="fill:#333333;fill-opacity:0.8;stroke:#333333;stroke-opacity:0.8;" x="461.8" xlink:href="#mcb5e4336fc" y="113.362092"/>
     <use style="fill:#333333;fill-opacity:0.8;stroke:#333333;stroke-opacity:0.8;" x="473.595151" xlink:href="#mcb5e4336fc" y="114.042673"/>
     <use style="fill:#333333;fill-opacity:0.8;stroke:#333333;stroke-opacity:0.8;" x="485.390303" xlink:href="#mcb5e4336fc" y="115.534923"/>
     <use style="fill:#333333;fill-opacity:0.8;stroke:#333333;stroke-opacity:0.8;" x="497.185454" xlink:href="#mcb5e4336fc" y="117.747722"/>
     <use style="fill:#333333;fill-opacity:0.8;stroke:#333333;stroke-opacity:0.8;" x="508.980605" xlink:href="#mcb5e4336fc" y="120.873489"/>
     <use style="fill:#333333;fill-opacity:0.8;stroke:#333333;stroke-opacity:0.8;" x="520.775754" xlink:href="#mcb5e4336fc" y="124.836026"/>
     <use style="fill:#333333;fill-opacity:0.8;stroke:#333333;stroke-opacity:0.8;" x="532.570908" xlink:href="#mcb5e4336fc" y="129.312502"/>
     <use style="fill:#333333;fill-opacity:0.8;stroke:#333333;stroke-opacity:0.8;" x="544.366062" xlink:href="#mcb5e4336fc" y="134.310542"/>
     <use style="fill:#333333;fill-opacity:0.8;stroke:#333333;stroke-opacity:0.8;" x="556.161211" xlink:href="#mcb5e4336fc" y="139.813178"/>
     <use style="fill:#333333;fill-opacity:0.8;stroke:#333333;stroke-opacity:0.8;" x="567.956359" xlink:href="#mcb5e4336fc" y="145.587662"/>
     <use style="fill:#333333;fill-opacity:0.8;stroke:#333333;stroke-opacity:0.8;" x="579.751508" xlink:href="#mcb5e4336fc" y="151.642927"/>
     <use style="fill:#333333;fill-opacity:0.8;stroke:#333333;stroke-opacity:0.8;" x="591.546667" xlink:href="#mcb5e4336fc" y="157.776639"/>
     <use style="fill:#333333;fill-opacity:0.8;stroke:#333333;stroke-opacity:0.8;" x="603.341816" xlink:href="#mcb5e4336fc" y="164.127455"/>
     <use style="fill:#333333;fill-opacity:0.8;stroke:#333333;stroke-opacity:0.8;" x="615.136965" xlink:href="#mcb5e4336fc" y="170.520501"/>
     <use style="fill:#333333;fill-opacity:0.8;stroke:#333333;stroke-opacity:0.8;" x="626.932124" xlink:href="#mcb5e4336fc" y="176.978104"/>
     <use style="fill:#333333;fill-opacity:0.8;stroke:#333333;stroke-opacity:0.8;" x="638.727273" xlink:href="#mcb5e4336fc" y="183.517757"/>
     <use style="fill:#333333;fill-opacity:0.8;stroke:#333333;stroke-opacity:0.8;" x="650.522421" xlink:href="#mcb5e4336fc" y="190.101951"/>
     <use style="fill:#333333;fill-opacity:0.8;stroke:#333333;stroke-opacity:0.8;" x="662.31757" xlink:href="#mcb5e4336fc" y="196.583314"/>
     <use style="fill:#333333;fill-opacity:0.8;stroke:#333333;stroke-opacity:0.8;" x="674.112719" xlink:href="#mcb5e4336fc" y="203.086512"/>
     <use style="fill:#333333;fill-opacity:0.8;stroke:#333333;stroke-opacity:0.8;" x="685.907889" xlink:href="#mcb5e4336fc" y="209.469986"/>
     <use style="fill:#333333;fill-opacity:0.8;stroke:#333333;stroke-opacity:0.8;" x="697.703037" xlink:href="#mcb5e4336fc" y="215.813845"/>
     <use style="fill:#333333;fill-opacity:0.8;stroke:#333333;stroke-opacity:0.8;" x="709.498186" xlink:href="#mcb5e4336fc" y="222.002577"/>
     <use style="fill:#333333;fill-opacity:0.8;stroke:#333333;stroke-opacity:0.8;" x="721.293335" xlink:href="#mcb5e4336fc" y="228.181432"/>
     <use style="fill:#333333;fill-opacity:0.8;stroke:#333333;stroke-opacity:0.8;" x="733.088483" xlink:href="#mcb5e4336fc" y="234.307052"/>
     <use style="fill:#333333;fill-opacity:0.8;stroke:#333333;stroke-opacity:0.8;" x="744.883632" xlink:href="#mcb5e4336fc" y="240.214262"/>
     <use style="fill:#333333;fill-opacity:0.8;stroke:#333333;stroke-opacity:0.8;" x="756.678781" xlink:href="#mcb5e4336fc" y="246.083719"/>
     <use style="fill:#333333;fill-opacity:0.8;stroke:#333333;stroke-opacity:0.8;" x="768.473951" xlink:href="#mcb5e4336fc" y="251.675896"/>
     <use style="fill:#333333;fill-opacity:0.8;stroke:#333333;stroke-opacity:0.8;" x="780.269099" xlink:href="#mcb5e4336fc" y="257.344465"/>
     <use style="fill:#333333;fill-opacity:0.8;stroke:#333333;stroke-opacity:0.8;" x="792.064248" xlink:href="#mcb5e4336fc" y="262.837783"/>
     <use style="fill:#333333;fill-opacity:0.8;stroke:#333333;stroke-opacity:0.8;" x="803.859397" xlink:href="#mcb5e4336fc" y="268.097801"/>
     <use style="fill:#333333;fill-opacity:0.8;stroke:#333333;stroke-opacity:0.8;" x="815.654545" xlink:href="#mcb5e4336fc" y="273.087323"/>
    </g>
   </g>
   <g id="line2d_45">
    <path clip-path="url(#pa9c889fcc5)" d="M 107.945455 223.442594 
L 119.740603 150.688005 
L 131.535752 134.253292 
L 143.330901 127.49715 
L 155.126049 123.411231 
L 166.921219 121.279452 
L 178.716368 119.472079 
L 190.511517 118.399117 
L 202.306665 117.765372 
L 214.101814 116.797476 
L 225.896963 116.339525 
L 237.692111 115.783702 
L 249.487281 115.553876 
L 261.28243 115.381033 
L 273.077579 114.848233 
L 284.872727 114.570976 
L 296.667876 114.448231 
L 308.463035 114.471702 
L 320.258184 114.203306 
L 332.053333 114.120671 
L 343.848492 114.074009 
L 355.643641 113.893922 
L 367.438789 113.845564 
L 379.233938 113.722217 
L 391.029092 113.667433 
L 402.824246 113.742222 
L 414.619395 113.491512 
L 426.414546 113.395158 
L 438.209697 113.278618 
L 450.004849 113.141608 
L 461.8 112.88045 
L 461.8 112.88045 
L 473.595151 113.983681 
L 485.390303 114.754316 
L 497.185454 115.577573 
L 508.980605 116.617372 
L 520.775754 117.891556 
L 532.570908 119.265089 
L 544.366062 120.710888 
L 556.161211 122.389048 
L 567.956359 124.185676 
L 579.751508 126.171912 
L 591.546667 128.10357 
L 603.341816 130.174173 
L 615.136965 132.252113 
L 626.932124 134.451151 
L 638.727273 136.717297 
L 650.522421 139.024967 
L 662.31757 141.305553 
L 674.112719 143.727513 
L 685.907889 146.077887 
L 697.703037 148.476856 
L 709.498186 150.869509 
L 721.293335 153.326283 
L 733.088483 155.836228 
L 744.883632 158.179115 
L 756.678781 160.682673 
L 768.473951 162.97839 
L 780.269099 165.424146 
L 792.064248 167.733948 
L 803.859397 169.980682 
L 815.654545 172.10795 
" style="fill:none;stroke:#333333;stroke-dasharray:1,1.65;stroke-dashoffset:0;stroke-opacity:0.8;"/>
   </g>
   <g id="line2d_46">
    <path clip-path="url(#pa9c889fcc5)" d="M 72.56 392.893333 
L 851.04 392.893333 
" style="fill:none;stroke:#377eb8;stroke-dasharray:2,3.3;stroke-dashoffset:0;stroke-opacity:0.6;stroke-width:2;"/>
   </g>
   <g id="line2d_47">
    <path clip-path="url(#pa9c889fcc5)" d="M 72.56 482.673 
L 851.04 482.673 
" style="fill:none;stroke:#4daf4a;stroke-dasharray:2,3.3;stroke-dashoffset:0;stroke-opacity:0.6;stroke-width:2;"/>
   </g>
   <g id="patch_3">
    <path d="M 72.56 524.68 
L 72.56 30.48 
" style="fill:none;stroke:#000000;stroke-linecap:square;stroke-linejoin:miter;stroke-width:0.8;"/>
   </g>
   <g id="patch_4">
    <path d="M 851.04 524.68 
L 851.04 30.48 
" style="fill:none;stroke:#000000;stroke-linecap:square;stroke-linejoin:miter;stroke-width:0.8;"/>
   </g>
   <g id="patch_5">
    <path d="M 72.56 524.68 
L 851.04 524.68 
" style="fill:none;stroke:#000000;stroke-linecap:square;stroke-linejoin:miter;stroke-width:0.8;"/>
   </g>
   <g id="patch_6">
    <path d="M 72.56 30.48 
L 851.04 30.48 
" style="fill:none;stroke:#000000;stroke-linecap:square;stroke-linejoin:miter;stroke-width:0.8;"/>
   </g>
   <g id="text_21">
    <!-- Brightness -->
    <g transform="translate(413.12625 24.48)scale(0.16 -0.16)">
     <defs>
      <path d="M 2456 2859 
Q 2741 2859 2887 2984 
Q 3034 3109 3034 3353 
Q 3034 3594 2887 3720 
Q 2741 3847 2456 3847 
L 1791 3847 
L 1791 2859 
L 2456 2859 
z
M 2497 819 
Q 2859 819 3042 972 
Q 3225 1125 3225 1434 
Q 3225 1738 3044 1889 
Q 2863 2041 2497 2041 
L 1791 2041 
L 1791 819 
L 2497 819 
z
M 3616 2497 
Q 4003 2384 4215 2081 
Q 4428 1778 4428 1338 
Q 4428 663 3972 331 
Q 3516 0 2584 0 
L 588 0 
L 588 4666 
L 2394 4666 
Q 3366 4666 3802 4372 
Q 4238 4078 4238 3431 
Q 4238 3091 4078 2852 
Q 3919 2613 3616 2497 
z
" id="DejaVuSans-Bold-42" transform="scale(0.015625)"/>
      <path d="M 3138 2547 
Q 2991 2616 2845 2648 
Q 2700 2681 2553 2681 
Q 2122 2681 1889 2404 
Q 1656 2128 1656 1613 
L 1656 0 
L 538 0 
L 538 3500 
L 1656 3500 
L 1656 2925 
Q 1872 3269 2151 3426 
Q 2431 3584 2822 3584 
Q 2878 3584 2943 3579 
Q 3009 3575 3134 3559 
L 3138 2547 
z
" id="DejaVuSans-Bold-72" transform="scale(0.015625)"/>
      <path d="M 538 3500 
L 1656 3500 
L 1656 0 
L 538 0 
L 538 3500 
z
M 538 4863 
L 1656 4863 
L 1656 3950 
L 538 3950 
L 538 4863 
z
" id="DejaVuSans-Bold-69" transform="scale(0.015625)"/>
      <path d="M 2919 594 
Q 2688 288 2409 144 
Q 2131 0 1766 0 
Q 1125 0 706 504 
Q 288 1009 288 1791 
Q 288 2575 706 3076 
Q 1125 3578 1766 3578 
Q 2131 3578 2409 3434 
Q 2688 3291 2919 2981 
L 2919 3500 
L 4044 3500 
L 4044 353 
Q 4044 -491 3511 -936 
Q 2978 -1381 1966 -1381 
Q 1638 -1381 1331 -1331 
Q 1025 -1281 716 -1178 
L 716 -306 
Q 1009 -475 1290 -558 
Q 1572 -641 1856 -641 
Q 2406 -641 2662 -400 
Q 2919 -159 2919 353 
L 2919 594 
z
M 2181 2772 
Q 1834 2772 1640 2515 
Q 1447 2259 1447 1791 
Q 1447 1309 1634 1061 
Q 1822 813 2181 813 
Q 2531 813 2725 1069 
Q 2919 1325 2919 1791 
Q 2919 2259 2725 2515 
Q 2531 2772 2181 2772 
z
" id="DejaVuSans-Bold-67" transform="scale(0.015625)"/>
      <path d="M 4056 2131 
L 4056 0 
L 2931 0 
L 2931 347 
L 2931 1625 
Q 2931 2084 2911 2256 
Q 2891 2428 2841 2509 
Q 2775 2619 2662 2680 
Q 2550 2741 2406 2741 
Q 2056 2741 1856 2470 
Q 1656 2200 1656 1722 
L 1656 0 
L 538 0 
L 538 4863 
L 1656 4863 
L 1656 2988 
Q 1909 3294 2193 3439 
Q 2478 3584 2822 3584 
Q 3428 3584 3742 3212 
Q 4056 2841 4056 2131 
z
" id="DejaVuSans-Bold-68" transform="scale(0.015625)"/>
      <path d="M 1759 4494 
L 1759 3500 
L 2913 3500 
L 2913 2700 
L 1759 2700 
L 1759 1216 
Q 1759 972 1856 886 
Q 1953 800 2241 800 
L 2816 800 
L 2816 0 
L 1856 0 
Q 1194 0 917 276 
Q 641 553 641 1216 
L 641 2700 
L 84 2700 
L 84 3500 
L 641 3500 
L 641 4494 
L 1759 4494 
z
" id="DejaVuSans-Bold-74" transform="scale(0.015625)"/>
      <path d="M 4056 2131 
L 4056 0 
L 2931 0 
L 2931 347 
L 2931 1631 
Q 2931 2084 2911 2256 
Q 2891 2428 2841 2509 
Q 2775 2619 2662 2680 
Q 2550 2741 2406 2741 
Q 2056 2741 1856 2470 
Q 1656 2200 1656 1722 
L 1656 0 
L 538 0 
L 538 3500 
L 1656 3500 
L 1656 2988 
Q 1909 3294 2193 3439 
Q 2478 3584 2822 3584 
Q 3428 3584 3742 3212 
Q 4056 2841 4056 2131 
z
" id="DejaVuSans-Bold-6e" transform="scale(0.015625)"/>
      <path d="M 4031 1759 
L 4031 1441 
L 1416 1441 
Q 1456 1047 1700 850 
Q 1944 653 2381 653 
Q 2734 653 3104 758 
Q 3475 863 3866 1075 
L 3866 213 
Q 3469 63 3072 -14 
Q 2675 -91 2278 -91 
Q 1328 -91 801 392 
Q 275 875 275 1747 
Q 275 2603 792 3093 
Q 1309 3584 2216 3584 
Q 3041 3584 3536 3087 
Q 4031 2591 4031 1759 
z
M 2881 2131 
Q 2881 2450 2695 2645 
Q 2509 2841 2209 2841 
Q 1884 2841 1681 2658 
Q 1478 2475 1428 2131 
L 2881 2131 
z
" id="DejaVuSans-Bold-65" transform="scale(0.015625)"/>
      <path d="M 3272 3391 
L 3272 2541 
Q 2913 2691 2578 2766 
Q 2244 2841 1947 2841 
Q 1628 2841 1473 2761 
Q 1319 2681 1319 2516 
Q 1319 2381 1436 2309 
Q 1553 2238 1856 2203 
L 2053 2175 
Q 2913 2066 3209 1816 
Q 3506 1566 3506 1031 
Q 3506 472 3093 190 
Q 2681 -91 1863 -91 
Q 1516 -91 1145 -36 
Q 775 19 384 128 
L 384 978 
Q 719 816 1070 734 
Q 1422 653 1784 653 
Q 2113 653 2278 743 
Q 2444 834 2444 1013 
Q 2444 1163 2330 1236 
Q 2216 1309 1875 1350 
L 1678 1375 
Q 931 1469 631 1722 
Q 331 1975 331 2491 
Q 331 3047 712 3315 
Q 1094 3584 1881 3584 
Q 2191 3584 2531 3537 
Q 2872 3491 3272 3391 
z
" id="DejaVuSans-Bold-73" transform="scale(0.015625)"/>
     </defs>
     <use xlink:href="#DejaVuSans-Bold-42"/>
     <use x="76.220703" xlink:href="#DejaVuSans-Bold-72"/>
     <use x="125.537109" xlink:href="#DejaVuSans-Bold-69"/>
     <use x="159.814453" xlink:href="#DejaVuSans-Bold-67"/>
     <use x="231.396484" xlink:href="#DejaVuSans-Bold-68"/>
     <use x="302.587891" xlink:href="#DejaVuSans-Bold-74"/>
     <use x="350.390625" xlink:href="#DejaVuSans-Bold-6e"/>
     <use x="421.582031" xlink:href="#DejaVuSans-Bold-65"/>
     <use x="489.404297" xlink:href="#DejaVuSans-Bold-73"/>
     <use x="548.925781" xlink:href="#DejaVuSans-Bold-73"/>
    </g>
   </g>
   <g id="legend_1">
    <g id="line2d_48">
     <path d="M 389.910156 203.44875 
L 409.910156 203.44875 
" style="fill:none;stroke:#377eb8;stroke-linecap:square;stroke-width:2;"/>
    </g>
    <g id="line2d_49"/>
    <g id="text_22">
     <!-- Contrast HVS -->
     <g transform="translate(417.910156 206.94875)scale(0.1 -0.1)">
      <defs>
       <path d="M 628 4666 
L 1259 4666 
L 1259 2753 
L 3553 2753 
L 3553 4666 
L 4184 4666 
L 4184 0 
L 3553 0 
L 3553 2222 
L 1259 2222 
L 1259 0 
L 628 0 
L 628 4666 
z
" id="DejaVuSans-48" transform="scale(0.015625)"/>
       <path d="M 1831 0 
L 50 4666 
L 709 4666 
L 2188 738 
L 3669 4666 
L 4325 4666 
L 2547 0 
L 1831 0 
z
" id="DejaVuSans-56" transform="scale(0.015625)"/>
       <path d="M 3425 4513 
L 3425 3897 
Q 3066 4069 2747 4153 
Q 2428 4238 2131 4238 
Q 1616 4238 1336 4038 
Q 1056 3838 1056 3469 
Q 1056 3159 1242 3001 
Q 1428 2844 1947 2747 
L 2328 2669 
Q 3034 2534 3370 2195 
Q 3706 1856 3706 1288 
Q 3706 609 3251 259 
Q 2797 -91 1919 -91 
Q 1588 -91 1214 -16 
Q 841 59 441 206 
L 441 856 
Q 825 641 1194 531 
Q 1563 422 1919 422 
Q 2459 422 2753 634 
Q 3047 847 3047 1241 
Q 3047 1584 2836 1778 
Q 2625 1972 2144 2069 
L 1759 2144 
Q 1053 2284 737 2584 
Q 422 2884 422 3419 
Q 422 4038 858 4394 
Q 1294 4750 2059 4750 
Q 2388 4750 2728 4690 
Q 3069 4631 3425 4513 
z
" id="DejaVuSans-53" transform="scale(0.015625)"/>
      </defs>
      <use xlink:href="#DejaVuSans-43"/>
      <use x="69.824219" xlink:href="#DejaVuSans-6f"/>
      <use x="131.005859" xlink:href="#DejaVuSans-6e"/>
      <use x="194.384766" xlink:href="#DejaVuSans-74"/>
      <use x="233.59375" xlink:href="#DejaVuSans-72"/>
      <use x="274.707031" xlink:href="#DejaVuSans-61"/>
      <use x="335.986328" xlink:href="#DejaVuSans-73"/>
      <use x="388.085938" xlink:href="#DejaVuSans-74"/>
      <use x="427.294922" xlink:href="#DejaVuSans-20"/>
      <use x="459.082031" xlink:href="#DejaVuSans-48"/>
      <use x="534.277344" xlink:href="#DejaVuSans-56"/>
      <use x="602.685547" xlink:href="#DejaVuSans-53"/>
     </g>
    </g>
    <g id="line2d_50">
     <path d="M 389.910156 218.126875 
L 409.910156 218.126875 
" style="fill:none;stroke:#4daf4a;stroke-linecap:square;stroke-width:2;"/>
    </g>
    <g id="line2d_51"/>
    <g id="text_23">
     <!-- Model Confidence -->
     <g transform="translate(417.910156 221.626875)scale(0.1 -0.1)">
      <defs>
       <path d="M 603 4863 
L 1178 4863 
L 1178 0 
L 603 0 
L 603 4863 
z
" id="DejaVuSans-6c" transform="scale(0.015625)"/>
      </defs>
      <use xlink:href="#DejaVuSans-4d"/>
      <use x="86.279297" xlink:href="#DejaVuSans-6f"/>
      <use x="147.460938" xlink:href="#DejaVuSans-64"/>
      <use x="210.9375" xlink:href="#DejaVuSans-65"/>
      <use x="272.460938" xlink:href="#DejaVuSans-6c"/>
      <use x="300.244141" xlink:href="#DejaVuSans-20"/>
      <use x="332.03125" xlink:href="#DejaVuSans-43"/>
      <use x="401.855469" xlink:href="#DejaVuSans-6f"/>
      <use x="463.037109" xlink:href="#DejaVuSans-6e"/>
      <use x="526.416016" xlink:href="#DejaVuSans-66"/>
      <use x="561.621094" xlink:href="#DejaVuSans-69"/>
      <use x="589.404297" xlink:href="#DejaVuSans-64"/>
      <use x="652.880859" xlink:href="#DejaVuSans-65"/>
      <use x="714.404297" xlink:href="#DejaVuSans-6e"/>
      <use x="777.783203" xlink:href="#DejaVuSans-63"/>
      <use x="832.763672" xlink:href="#DejaVuSans-65"/>
     </g>
    </g>
    <g id="line2d_52">
     <path d="M 389.910156 232.805 
L 409.910156 232.805 
" style="fill:none;stroke:#ff0000;stroke-dasharray:12.8,3.2,2,3.2;stroke-dashoffset:0;stroke-width:2;"/>
    </g>
    <g id="line2d_53"/>
    <g id="text_24">
     <!-- k=(3, 2) -->
     <g transform="translate(417.910156 236.305)scale(0.1 -0.1)">
      <defs>
       <path d="M 581 4863 
L 1159 4863 
L 1159 1991 
L 2875 3500 
L 3609 3500 
L 1753 1863 
L 3688 0 
L 2938 0 
L 1159 1709 
L 1159 0 
L 581 0 
L 581 4863 
z
" id="DejaVuSans-6b" transform="scale(0.015625)"/>
       <path d="M 678 2906 
L 4684 2906 
L 4684 2381 
L 678 2381 
L 678 2906 
z
M 678 1631 
L 4684 1631 
L 4684 1100 
L 678 1100 
L 678 1631 
z
" id="DejaVuSans-3d" transform="scale(0.015625)"/>
       <path d="M 1984 4856 
Q 1566 4138 1362 3434 
Q 1159 2731 1159 2009 
Q 1159 1288 1364 580 
Q 1569 -128 1984 -844 
L 1484 -844 
Q 1016 -109 783 600 
Q 550 1309 550 2009 
Q 550 2706 781 3412 
Q 1013 4119 1484 4856 
L 1984 4856 
z
" id="DejaVuSans-28" transform="scale(0.015625)"/>
       <path d="M 750 794 
L 1409 794 
L 1409 256 
L 897 -744 
L 494 -744 
L 750 256 
L 750 794 
z
" id="DejaVuSans-2c" transform="scale(0.015625)"/>
       <path d="M 513 4856 
L 1013 4856 
Q 1481 4119 1714 3412 
Q 1947 2706 1947 2009 
Q 1947 1309 1714 600 
Q 1481 -109 1013 -844 
L 513 -844 
Q 928 -128 1133 580 
Q 1338 1288 1338 2009 
Q 1338 2731 1133 3434 
Q 928 4138 513 4856 
z
" id="DejaVuSans-29" transform="scale(0.015625)"/>
      </defs>
      <use xlink:href="#DejaVuSans-6b"/>
      <use x="57.910156" xlink:href="#DejaVuSans-3d"/>
      <use x="141.699219" xlink:href="#DejaVuSans-28"/>
      <use x="180.712891" xlink:href="#DejaVuSans-33"/>
      <use x="244.335938" xlink:href="#DejaVuSans-2c"/>
      <use x="276.123047" xlink:href="#DejaVuSans-20"/>
      <use x="307.910156" xlink:href="#DejaVuSans-32"/>
      <use x="371.533203" xlink:href="#DejaVuSans-29"/>
     </g>
    </g>
    <g id="line2d_54">
     <path d="M 389.910156 247.483125 
L 409.910156 247.483125 
" style="fill:none;stroke:#ff0000;stroke-dasharray:7.4,3.2;stroke-dashoffset:0;stroke-width:2;"/>
    </g>
    <g id="line2d_55"/>
    <g id="text_25">
     <!-- k=(20, 3) -->
     <g transform="translate(417.910156 250.983125)scale(0.1 -0.1)">
      <use xlink:href="#DejaVuSans-6b"/>
      <use x="57.910156" xlink:href="#DejaVuSans-3d"/>
      <use x="141.699219" xlink:href="#DejaVuSans-28"/>
      <use x="180.712891" xlink:href="#DejaVuSans-32"/>
      <use x="244.335938" xlink:href="#DejaVuSans-30"/>
      <use x="307.958984" xlink:href="#DejaVuSans-2c"/>
      <use x="339.746094" xlink:href="#DejaVuSans-20"/>
      <use x="371.533203" xlink:href="#DejaVuSans-33"/>
      <use x="435.15625" xlink:href="#DejaVuSans-29"/>
     </g>
    </g>
    <g id="line2d_56">
     <path d="M 389.910156 262.16125 
L 409.910156 262.16125 
" style="fill:none;stroke:#984ea3;stroke-linecap:square;stroke-width:2;"/>
    </g>
    <g id="line2d_57"/>
    <g id="text_26">
     <!-- k=2, Confidence&gt;=0.5 -->
     <g transform="translate(417.910156 265.66125)scale(0.1 -0.1)">
      <defs>
       <path d="M 678 3150 
L 678 3719 
L 4684 2266 
L 4684 1747 
L 678 294 
L 678 863 
L 3897 2003 
L 678 3150 
z
" id="DejaVuSans-3e" transform="scale(0.015625)"/>
      </defs>
      <use xlink:href="#DejaVuSans-6b"/>
      <use x="57.910156" xlink:href="#DejaVuSans-3d"/>
      <use x="141.699219" xlink:href="#DejaVuSans-32"/>
      <use x="205.322266" xlink:href="#DejaVuSans-2c"/>
      <use x="237.109375" xlink:href="#DejaVuSans-20"/>
      <use x="268.896484" xlink:href="#DejaVuSans-43"/>
      <use x="338.720703" xlink:href="#DejaVuSans-6f"/>
      <use x="399.902344" xlink:href="#DejaVuSans-6e"/>
      <use x="463.28125" xlink:href="#DejaVuSans-66"/>
      <use x="498.486328" xlink:href="#DejaVuSans-69"/>
      <use x="526.269531" xlink:href="#DejaVuSans-64"/>
      <use x="589.746094" xlink:href="#DejaVuSans-65"/>
      <use x="651.269531" xlink:href="#DejaVuSans-6e"/>
      <use x="714.648438" xlink:href="#DejaVuSans-63"/>
      <use x="769.628906" xlink:href="#DejaVuSans-65"/>
      <use x="831.152344" xlink:href="#DejaVuSans-3e"/>
      <use x="914.941406" xlink:href="#DejaVuSans-3d"/>
      <use x="998.730469" xlink:href="#DejaVuSans-30"/>
      <use x="1062.353516" xlink:href="#DejaVuSans-2e"/>
      <use x="1094.140625" xlink:href="#DejaVuSans-35"/>
     </g>
    </g>
    <g id="line2d_58">
     <path d="M 389.910156 276.839375 
L 409.910156 276.839375 
" style="fill:none;stroke:#333333;stroke-linecap:square;stroke-opacity:0.8;"/>
    </g>
    <g id="line2d_59"/>
    <g id="text_27">
     <!-- SSIM -->
     <g transform="translate(417.910156 280.339375)scale(0.1 -0.1)">
      <defs>
       <path d="M 628 4666 
L 1259 4666 
L 1259 0 
L 628 0 
L 628 4666 
z
" id="DejaVuSans-49" transform="scale(0.015625)"/>
      </defs>
      <use xlink:href="#DejaVuSans-53"/>
      <use x="63.476562" xlink:href="#DejaVuSans-53"/>
      <use x="126.953125" xlink:href="#DejaVuSans-49"/>
      <use x="156.445312" xlink:href="#DejaVuSans-4d"/>
     </g>
    </g>
    <g id="line2d_60">
     <path d="M 389.910156 291.5175 
L 409.910156 291.5175 
" style="fill:none;stroke:#333333;stroke-dasharray:3.7,1.6;stroke-dashoffset:0;stroke-opacity:0.8;"/>
    </g>
    <g id="line2d_61"/>
    <g id="text_28">
     <!-- NCC -->
     <g transform="translate(417.910156 295.0175)scale(0.1 -0.1)">
      <defs>
       <path d="M 628 4666 
L 1478 4666 
L 3547 763 
L 3547 4666 
L 4159 4666 
L 4159 0 
L 3309 0 
L 1241 3903 
L 1241 0 
L 628 0 
L 628 4666 
z
" id="DejaVuSans-4e" transform="scale(0.015625)"/>
      </defs>
      <use xlink:href="#DejaVuSans-4e"/>
      <use x="74.804688" xlink:href="#DejaVuSans-43"/>
      <use x="144.628906" xlink:href="#DejaVuSans-43"/>
     </g>
    </g>
    <g id="line2d_62">
     <path d="M 389.910156 306.195625 
L 409.910156 306.195625 
" style="fill:none;stroke:#333333;stroke-linecap:square;stroke-opacity:0.8;"/>
    </g>
    <g id="line2d_63">
     <g>
      <use style="fill:#333333;fill-opacity:0.8;stroke:#333333;stroke-opacity:0.8;" x="399.910156" xlink:href="#mcb5e4336fc" y="306.195625"/>
     </g>
    </g>
    <g id="text_29">
     <!-- UIQ -->
     <g transform="translate(417.910156 309.695625)scale(0.1 -0.1)">
      <defs>
       <path d="M 556 4666 
L 1191 4666 
L 1191 1831 
Q 1191 1081 1462 751 
Q 1734 422 2344 422 
Q 2950 422 3222 751 
Q 3494 1081 3494 1831 
L 3494 4666 
L 4128 4666 
L 4128 1753 
Q 4128 841 3676 375 
Q 3225 -91 2344 -91 
Q 1459 -91 1007 375 
Q 556 841 556 1753 
L 556 4666 
z
" id="DejaVuSans-55" transform="scale(0.015625)"/>
       <path d="M 2522 4238 
Q 1834 4238 1429 3725 
Q 1025 3213 1025 2328 
Q 1025 1447 1429 934 
Q 1834 422 2522 422 
Q 3209 422 3611 934 
Q 4013 1447 4013 2328 
Q 4013 3213 3611 3725 
Q 3209 4238 2522 4238 
z
M 3406 84 
L 4238 -825 
L 3475 -825 
L 2784 -78 
Q 2681 -84 2626 -87 
Q 2572 -91 2522 -91 
Q 1538 -91 948 567 
Q 359 1225 359 2328 
Q 359 3434 948 4092 
Q 1538 4750 2522 4750 
Q 3503 4750 4090 4092 
Q 4678 3434 4678 2328 
Q 4678 1516 4351 937 
Q 4025 359 3406 84 
z
" id="DejaVuSans-51" transform="scale(0.015625)"/>
      </defs>
      <use xlink:href="#DejaVuSans-55"/>
      <use x="73.193359" xlink:href="#DejaVuSans-49"/>
      <use x="102.685547" xlink:href="#DejaVuSans-51"/>
     </g>
    </g>
    <g id="line2d_64">
     <path d="M 389.910156 320.87375 
L 409.910156 320.87375 
" style="fill:none;stroke:#333333;stroke-dasharray:1,1.65;stroke-dashoffset:0;stroke-opacity:0.8;"/>
    </g>
    <g id="line2d_65"/>
    <g id="text_30">
     <!-- SCC -->
     <g transform="translate(417.910156 324.37375)scale(0.1 -0.1)">
      <use xlink:href="#DejaVuSans-53"/>
      <use x="63.476562" xlink:href="#DejaVuSans-43"/>
      <use x="133.300781" xlink:href="#DejaVuSans-43"/>
     </g>
    </g>
    <g id="line2d_66">
     <path d="M 389.910156 335.551875 
L 409.910156 335.551875 
" style="fill:none;stroke:#377eb8;stroke-dasharray:2,3.3;stroke-dashoffset:0;stroke-opacity:0.6;stroke-width:2;"/>
    </g>
    <g id="line2d_67"/>
    <g id="text_31">
     <!-- HVS lower bound -->
     <g transform="translate(417.910156 339.051875)scale(0.1 -0.1)">
      <defs>
       <path d="M 269 3500 
L 844 3500 
L 1563 769 
L 2278 3500 
L 2956 3500 
L 3675 769 
L 4391 3500 
L 4966 3500 
L 4050 0 
L 3372 0 
L 2619 2869 
L 1863 0 
L 1184 0 
L 269 3500 
z
" id="DejaVuSans-77" transform="scale(0.015625)"/>
       <path d="M 3116 1747 
Q 3116 2381 2855 2742 
Q 2594 3103 2138 3103 
Q 1681 3103 1420 2742 
Q 1159 2381 1159 1747 
Q 1159 1113 1420 752 
Q 1681 391 2138 391 
Q 2594 391 2855 752 
Q 3116 1113 3116 1747 
z
M 1159 2969 
Q 1341 3281 1617 3432 
Q 1894 3584 2278 3584 
Q 2916 3584 3314 3078 
Q 3713 2572 3713 1747 
Q 3713 922 3314 415 
Q 2916 -91 2278 -91 
Q 1894 -91 1617 61 
Q 1341 213 1159 525 
L 1159 0 
L 581 0 
L 581 4863 
L 1159 4863 
L 1159 2969 
z
" id="DejaVuSans-62" transform="scale(0.015625)"/>
      </defs>
      <use xlink:href="#DejaVuSans-48"/>
      <use x="75.195312" xlink:href="#DejaVuSans-56"/>
      <use x="143.603516" xlink:href="#DejaVuSans-53"/>
      <use x="207.080078" xlink:href="#DejaVuSans-20"/>
      <use x="238.867188" xlink:href="#DejaVuSans-6c"/>
      <use x="266.650391" xlink:href="#DejaVuSans-6f"/>
      <use x="327.832031" xlink:href="#DejaVuSans-77"/>
      <use x="409.619141" xlink:href="#DejaVuSans-65"/>
      <use x="471.142578" xlink:href="#DejaVuSans-72"/>
      <use x="512.255859" xlink:href="#DejaVuSans-20"/>
      <use x="544.042969" xlink:href="#DejaVuSans-62"/>
      <use x="607.519531" xlink:href="#DejaVuSans-6f"/>
      <use x="668.701172" xlink:href="#DejaVuSans-75"/>
      <use x="732.080078" xlink:href="#DejaVuSans-6e"/>
      <use x="795.458984" xlink:href="#DejaVuSans-64"/>
     </g>
    </g>
    <g id="line2d_68">
     <path d="M 389.910156 350.23 
L 409.910156 350.23 
" style="fill:none;stroke:#4daf4a;stroke-dasharray:2,3.3;stroke-dashoffset:0;stroke-opacity:0.6;stroke-width:2;"/>
    </g>
    <g id="line2d_69"/>
    <g id="text_32">
     <!-- Model lower bound -->
     <g transform="translate(417.910156 353.73)scale(0.1 -0.1)">
      <use xlink:href="#DejaVuSans-4d"/>
      <use x="86.279297" xlink:href="#DejaVuSans-6f"/>
      <use x="147.460938" xlink:href="#DejaVuSans-64"/>
      <use x="210.9375" xlink:href="#DejaVuSans-65"/>
      <use x="272.460938" xlink:href="#DejaVuSans-6c"/>
      <use x="300.244141" xlink:href="#DejaVuSans-20"/>
      <use x="332.03125" xlink:href="#DejaVuSans-6c"/>
      <use x="359.814453" xlink:href="#DejaVuSans-6f"/>
      <use x="420.996094" xlink:href="#DejaVuSans-77"/>
      <use x="502.783203" xlink:href="#DejaVuSans-65"/>
      <use x="564.306641" xlink:href="#DejaVuSans-72"/>
      <use x="605.419922" xlink:href="#DejaVuSans-20"/>
      <use x="637.207031" xlink:href="#DejaVuSans-62"/>
      <use x="700.683594" xlink:href="#DejaVuSans-6f"/>
      <use x="761.865234" xlink:href="#DejaVuSans-75"/>
      <use x="825.244141" xlink:href="#DejaVuSans-6e"/>
      <use x="888.623047" xlink:href="#DejaVuSans-64"/>
     </g>
    </g>
   </g>
  </g>
 </g>
 <defs>
  <clipPath id="pa9c889fcc5">
   <rect height="494.2" width="778.48" x="72.56" y="30.48"/>
  </clipPath>
 </defs>
</svg>
