<?xml version="1.0" encoding="utf-8" standalone="no"?>
<!DOCTYPE svg PUBLIC "-//W3C//DTD SVG 1.1//EN"
  "http://www.w3.org/Graphics/SVG/1.1/DTD/svg11.dtd">
<svg height="576pt" version="1.1" viewBox="0 0 864 576" width="864pt" xmlns="http://www.w3.org/2000/svg" xmlns:xlink="http://www.w3.org/1999/xlink">
 <metadata>
  <rdf:RDF xmlns:cc="http://creativecommons.org/ns#" xmlns:dc="http://purl.org/dc/elements/1.1/" xmlns:rdf="http://www.w3.org/1999/02/22-rdf-syntax-ns#">
   <cc:Work>
    <dc:type rdf:resource="http://purl.org/dc/dcmitype/StillImage"/>
    <dc:date>2024-12-02T14:07:28.898632</dc:date>
    <dc:format>image/svg+xml</dc:format>
    <dc:creator>
     <cc:Agent>
      <dc:title>Matplotlib v3.4.0, https://matplotlib.org/</dc:title>
     </cc:Agent>
    </dc:creator>
   </cc:Work>
  </rdf:RDF>
 </metadata>
 <defs>
  <style type="text/css">*{stroke-linecap:butt;stroke-linejoin:round;}</style>
 </defs>
 <g id="figure_1">
  <g id="patch_1">
   <path d="M 0 576 
L 864 576 
L 864 0 
L 0 0 
z
" style="fill:#ffffff;"/>
  </g>
  <g id="axes_1">
   <g id="patch_2">
    <path d="M 72.56 524.68 
L 847.545909 524.68 
L 847.545909 30.48 
L 72.56 30.48 
z
" style="fill:#ffffff;"/>
   </g>
   <g id="matplotlib.axis_1">
    <g id="xtick_1">
     <g id="line2d_1">
      <path clip-path="url(#p2bfe802f98)" d="M 107.786632 524.68 
L 107.786632 30.48 
" style="fill:none;stroke:#b0b0b0;stroke-dasharray:1.85,0.8;stroke-dashoffset:0;stroke-opacity:0.5;stroke-width:0.5;"/>
     </g>
     <g id="line2d_2">
      <defs>
       <path d="M 0 0 
L 0 3.5 
" id="m826bb2262e" style="stroke:#000000;stroke-width:0.8;"/>
      </defs>
      <g>
       <use style="stroke:#000000;stroke-width:0.8;" x="107.786632" xlink:href="#m826bb2262e" y="524.68"/>
      </g>
     </g>
     <g id="text_1">
      <!-- 0 -->
      <g transform="translate(103.969132 540.798125)scale(0.12 -0.12)">
       <defs>
        <path d="M 2034 4250 
Q 1547 4250 1301 3770 
Q 1056 3291 1056 2328 
Q 1056 1369 1301 889 
Q 1547 409 2034 409 
Q 2525 409 2770 889 
Q 3016 1369 3016 2328 
Q 3016 3291 2770 3770 
Q 2525 4250 2034 4250 
z
M 2034 4750 
Q 2819 4750 3233 4129 
Q 3647 3509 3647 2328 
Q 3647 1150 3233 529 
Q 2819 -91 2034 -91 
Q 1250 -91 836 529 
Q 422 1150 422 2328 
Q 422 3509 836 4129 
Q 1250 4750 2034 4750 
z
" id="DejaVuSans-30" transform="scale(0.015625)"/>
       </defs>
       <use xlink:href="#DejaVuSans-30"/>
      </g>
     </g>
    </g>
    <g id="xtick_2">
     <g id="line2d_3">
      <path clip-path="url(#p2bfe802f98)" d="M 212.161839 524.68 
L 212.161839 30.48 
" style="fill:none;stroke:#b0b0b0;stroke-dasharray:1.85,0.8;stroke-dashoffset:0;stroke-opacity:0.5;stroke-width:0.5;"/>
     </g>
     <g id="line2d_4">
      <g>
       <use style="stroke:#000000;stroke-width:0.8;" x="212.161839" xlink:href="#m826bb2262e" y="524.68"/>
      </g>
     </g>
     <g id="text_2">
      <!-- 20 -->
      <g transform="translate(204.526839 540.798125)scale(0.12 -0.12)">
       <defs>
        <path d="M 1228 531 
L 3431 531 
L 3431 0 
L 469 0 
L 469 531 
Q 828 903 1448 1529 
Q 2069 2156 2228 2338 
Q 2531 2678 2651 2914 
Q 2772 3150 2772 3378 
Q 2772 3750 2511 3984 
Q 2250 4219 1831 4219 
Q 1534 4219 1204 4116 
Q 875 4013 500 3803 
L 500 4441 
Q 881 4594 1212 4672 
Q 1544 4750 1819 4750 
Q 2544 4750 2975 4387 
Q 3406 4025 3406 3419 
Q 3406 3131 3298 2873 
Q 3191 2616 2906 2266 
Q 2828 2175 2409 1742 
Q 1991 1309 1228 531 
z
" id="DejaVuSans-32" transform="scale(0.015625)"/>
       </defs>
       <use xlink:href="#DejaVuSans-32"/>
       <use x="63.623047" xlink:href="#DejaVuSans-30"/>
      </g>
     </g>
    </g>
    <g id="xtick_3">
     <g id="line2d_5">
      <path clip-path="url(#p2bfe802f98)" d="M 316.537045 524.68 
L 316.537045 30.48 
" style="fill:none;stroke:#b0b0b0;stroke-dasharray:1.85,0.8;stroke-dashoffset:0;stroke-opacity:0.5;stroke-width:0.5;"/>
     </g>
     <g id="line2d_6">
      <g>
       <use style="stroke:#000000;stroke-width:0.8;" x="316.537045" xlink:href="#m826bb2262e" y="524.68"/>
      </g>
     </g>
     <g id="text_3">
      <!-- 40 -->
      <g transform="translate(308.902045 540.798125)scale(0.12 -0.12)">
       <defs>
        <path d="M 2419 4116 
L 825 1625 
L 2419 1625 
L 2419 4116 
z
M 2253 4666 
L 3047 4666 
L 3047 1625 
L 3713 1625 
L 3713 1100 
L 3047 1100 
L 3047 0 
L 2419 0 
L 2419 1100 
L 313 1100 
L 313 1709 
L 2253 4666 
z
" id="DejaVuSans-34" transform="scale(0.015625)"/>
       </defs>
       <use xlink:href="#DejaVuSans-34"/>
       <use x="63.623047" xlink:href="#DejaVuSans-30"/>
      </g>
     </g>
    </g>
    <g id="xtick_4">
     <g id="line2d_7">
      <path clip-path="url(#p2bfe802f98)" d="M 420.912252 524.68 
L 420.912252 30.48 
" style="fill:none;stroke:#b0b0b0;stroke-dasharray:1.85,0.8;stroke-dashoffset:0;stroke-opacity:0.5;stroke-width:0.5;"/>
     </g>
     <g id="line2d_8">
      <g>
       <use style="stroke:#000000;stroke-width:0.8;" x="420.912252" xlink:href="#m826bb2262e" y="524.68"/>
      </g>
     </g>
     <g id="text_4">
      <!-- 60 -->
      <g transform="translate(413.277252 540.798125)scale(0.12 -0.12)">
       <defs>
        <path d="M 2113 2584 
Q 1688 2584 1439 2293 
Q 1191 2003 1191 1497 
Q 1191 994 1439 701 
Q 1688 409 2113 409 
Q 2538 409 2786 701 
Q 3034 994 3034 1497 
Q 3034 2003 2786 2293 
Q 2538 2584 2113 2584 
z
M 3366 4563 
L 3366 3988 
Q 3128 4100 2886 4159 
Q 2644 4219 2406 4219 
Q 1781 4219 1451 3797 
Q 1122 3375 1075 2522 
Q 1259 2794 1537 2939 
Q 1816 3084 2150 3084 
Q 2853 3084 3261 2657 
Q 3669 2231 3669 1497 
Q 3669 778 3244 343 
Q 2819 -91 2113 -91 
Q 1303 -91 875 529 
Q 447 1150 447 2328 
Q 447 3434 972 4092 
Q 1497 4750 2381 4750 
Q 2619 4750 2861 4703 
Q 3103 4656 3366 4563 
z
" id="DejaVuSans-36" transform="scale(0.015625)"/>
       </defs>
       <use xlink:href="#DejaVuSans-36"/>
       <use x="63.623047" xlink:href="#DejaVuSans-30"/>
      </g>
     </g>
    </g>
    <g id="xtick_5">
     <g id="line2d_9">
      <path clip-path="url(#p2bfe802f98)" d="M 525.287459 524.68 
L 525.287459 30.48 
" style="fill:none;stroke:#b0b0b0;stroke-dasharray:1.85,0.8;stroke-dashoffset:0;stroke-opacity:0.5;stroke-width:0.5;"/>
     </g>
     <g id="line2d_10">
      <g>
       <use style="stroke:#000000;stroke-width:0.8;" x="525.287459" xlink:href="#m826bb2262e" y="524.68"/>
      </g>
     </g>
     <g id="text_5">
      <!-- 80 -->
      <g transform="translate(517.652459 540.798125)scale(0.12 -0.12)">
       <defs>
        <path d="M 2034 2216 
Q 1584 2216 1326 1975 
Q 1069 1734 1069 1313 
Q 1069 891 1326 650 
Q 1584 409 2034 409 
Q 2484 409 2743 651 
Q 3003 894 3003 1313 
Q 3003 1734 2745 1975 
Q 2488 2216 2034 2216 
z
M 1403 2484 
Q 997 2584 770 2862 
Q 544 3141 544 3541 
Q 544 4100 942 4425 
Q 1341 4750 2034 4750 
Q 2731 4750 3128 4425 
Q 3525 4100 3525 3541 
Q 3525 3141 3298 2862 
Q 3072 2584 2669 2484 
Q 3125 2378 3379 2068 
Q 3634 1759 3634 1313 
Q 3634 634 3220 271 
Q 2806 -91 2034 -91 
Q 1263 -91 848 271 
Q 434 634 434 1313 
Q 434 1759 690 2068 
Q 947 2378 1403 2484 
z
M 1172 3481 
Q 1172 3119 1398 2916 
Q 1625 2713 2034 2713 
Q 2441 2713 2670 2916 
Q 2900 3119 2900 3481 
Q 2900 3844 2670 4047 
Q 2441 4250 2034 4250 
Q 1625 4250 1398 4047 
Q 1172 3844 1172 3481 
z
" id="DejaVuSans-38" transform="scale(0.015625)"/>
       </defs>
       <use xlink:href="#DejaVuSans-38"/>
       <use x="63.623047" xlink:href="#DejaVuSans-30"/>
      </g>
     </g>
    </g>
    <g id="xtick_6">
     <g id="line2d_11">
      <path clip-path="url(#p2bfe802f98)" d="M 629.662665 524.68 
L 629.662665 30.48 
" style="fill:none;stroke:#b0b0b0;stroke-dasharray:1.85,0.8;stroke-dashoffset:0;stroke-opacity:0.5;stroke-width:0.5;"/>
     </g>
     <g id="line2d_12">
      <g>
       <use style="stroke:#000000;stroke-width:0.8;" x="629.662665" xlink:href="#m826bb2262e" y="524.68"/>
      </g>
     </g>
     <g id="text_6">
      <!-- 100 -->
      <g transform="translate(618.210165 540.798125)scale(0.12 -0.12)">
       <defs>
        <path d="M 794 531 
L 1825 531 
L 1825 4091 
L 703 3866 
L 703 4441 
L 1819 4666 
L 2450 4666 
L 2450 531 
L 3481 531 
L 3481 0 
L 794 0 
L 794 531 
z
" id="DejaVuSans-31" transform="scale(0.015625)"/>
       </defs>
       <use xlink:href="#DejaVuSans-31"/>
       <use x="63.623047" xlink:href="#DejaVuSans-30"/>
       <use x="127.246094" xlink:href="#DejaVuSans-30"/>
      </g>
     </g>
    </g>
    <g id="xtick_7">
     <g id="line2d_13">
      <path clip-path="url(#p2bfe802f98)" d="M 734.037872 524.68 
L 734.037872 30.48 
" style="fill:none;stroke:#b0b0b0;stroke-dasharray:1.85,0.8;stroke-dashoffset:0;stroke-opacity:0.5;stroke-width:0.5;"/>
     </g>
     <g id="line2d_14">
      <g>
       <use style="stroke:#000000;stroke-width:0.8;" x="734.037872" xlink:href="#m826bb2262e" y="524.68"/>
      </g>
     </g>
     <g id="text_7">
      <!-- 120 -->
      <g transform="translate(722.585372 540.798125)scale(0.12 -0.12)">
       <use xlink:href="#DejaVuSans-31"/>
       <use x="63.623047" xlink:href="#DejaVuSans-32"/>
       <use x="127.246094" xlink:href="#DejaVuSans-30"/>
      </g>
     </g>
    </g>
    <g id="xtick_8">
     <g id="line2d_15">
      <path clip-path="url(#p2bfe802f98)" d="M 838.413079 524.68 
L 838.413079 30.48 
" style="fill:none;stroke:#b0b0b0;stroke-dasharray:1.85,0.8;stroke-dashoffset:0;stroke-opacity:0.5;stroke-width:0.5;"/>
     </g>
     <g id="line2d_16">
      <g>
       <use style="stroke:#000000;stroke-width:0.8;" x="838.413079" xlink:href="#m826bb2262e" y="524.68"/>
      </g>
     </g>
     <g id="text_8">
      <!-- 140 -->
      <g transform="translate(826.960579 540.798125)scale(0.12 -0.12)">
       <use xlink:href="#DejaVuSans-31"/>
       <use x="63.623047" xlink:href="#DejaVuSans-34"/>
       <use x="127.246094" xlink:href="#DejaVuSans-30"/>
      </g>
     </g>
    </g>
    <g id="text_9">
     <!-- Magnitude of Rotate -->
     <g transform="translate(378.681705 559.45125)scale(0.16 -0.16)">
      <defs>
       <path d="M 628 4666 
L 1569 4666 
L 2759 1491 
L 3956 4666 
L 4897 4666 
L 4897 0 
L 4281 0 
L 4281 4097 
L 3078 897 
L 2444 897 
L 1241 4097 
L 1241 0 
L 628 0 
L 628 4666 
z
" id="DejaVuSans-4d" transform="scale(0.015625)"/>
       <path d="M 2194 1759 
Q 1497 1759 1228 1600 
Q 959 1441 959 1056 
Q 959 750 1161 570 
Q 1363 391 1709 391 
Q 2188 391 2477 730 
Q 2766 1069 2766 1631 
L 2766 1759 
L 2194 1759 
z
M 3341 1997 
L 3341 0 
L 2766 0 
L 2766 531 
Q 2569 213 2275 61 
Q 1981 -91 1556 -91 
Q 1019 -91 701 211 
Q 384 513 384 1019 
Q 384 1609 779 1909 
Q 1175 2209 1959 2209 
L 2766 2209 
L 2766 2266 
Q 2766 2663 2505 2880 
Q 2244 3097 1772 3097 
Q 1472 3097 1187 3025 
Q 903 2953 641 2809 
L 641 3341 
Q 956 3463 1253 3523 
Q 1550 3584 1831 3584 
Q 2591 3584 2966 3190 
Q 3341 2797 3341 1997 
z
" id="DejaVuSans-61" transform="scale(0.015625)"/>
       <path d="M 2906 1791 
Q 2906 2416 2648 2759 
Q 2391 3103 1925 3103 
Q 1463 3103 1205 2759 
Q 947 2416 947 1791 
Q 947 1169 1205 825 
Q 1463 481 1925 481 
Q 2391 481 2648 825 
Q 2906 1169 2906 1791 
z
M 3481 434 
Q 3481 -459 3084 -895 
Q 2688 -1331 1869 -1331 
Q 1566 -1331 1297 -1286 
Q 1028 -1241 775 -1147 
L 775 -588 
Q 1028 -725 1275 -790 
Q 1522 -856 1778 -856 
Q 2344 -856 2625 -561 
Q 2906 -266 2906 331 
L 2906 616 
Q 2728 306 2450 153 
Q 2172 0 1784 0 
Q 1141 0 747 490 
Q 353 981 353 1791 
Q 353 2603 747 3093 
Q 1141 3584 1784 3584 
Q 2172 3584 2450 3431 
Q 2728 3278 2906 2969 
L 2906 3500 
L 3481 3500 
L 3481 434 
z
" id="DejaVuSans-67" transform="scale(0.015625)"/>
       <path d="M 3513 2113 
L 3513 0 
L 2938 0 
L 2938 2094 
Q 2938 2591 2744 2837 
Q 2550 3084 2163 3084 
Q 1697 3084 1428 2787 
Q 1159 2491 1159 1978 
L 1159 0 
L 581 0 
L 581 3500 
L 1159 3500 
L 1159 2956 
Q 1366 3272 1645 3428 
Q 1925 3584 2291 3584 
Q 2894 3584 3203 3211 
Q 3513 2838 3513 2113 
z
" id="DejaVuSans-6e" transform="scale(0.015625)"/>
       <path d="M 603 3500 
L 1178 3500 
L 1178 0 
L 603 0 
L 603 3500 
z
M 603 4863 
L 1178 4863 
L 1178 4134 
L 603 4134 
L 603 4863 
z
" id="DejaVuSans-69" transform="scale(0.015625)"/>
       <path d="M 1172 4494 
L 1172 3500 
L 2356 3500 
L 2356 3053 
L 1172 3053 
L 1172 1153 
Q 1172 725 1289 603 
Q 1406 481 1766 481 
L 2356 481 
L 2356 0 
L 1766 0 
Q 1100 0 847 248 
Q 594 497 594 1153 
L 594 3053 
L 172 3053 
L 172 3500 
L 594 3500 
L 594 4494 
L 1172 4494 
z
" id="DejaVuSans-74" transform="scale(0.015625)"/>
       <path d="M 544 1381 
L 544 3500 
L 1119 3500 
L 1119 1403 
Q 1119 906 1312 657 
Q 1506 409 1894 409 
Q 2359 409 2629 706 
Q 2900 1003 2900 1516 
L 2900 3500 
L 3475 3500 
L 3475 0 
L 2900 0 
L 2900 538 
Q 2691 219 2414 64 
Q 2138 -91 1772 -91 
Q 1169 -91 856 284 
Q 544 659 544 1381 
z
M 1991 3584 
L 1991 3584 
z
" id="DejaVuSans-75" transform="scale(0.015625)"/>
       <path d="M 2906 2969 
L 2906 4863 
L 3481 4863 
L 3481 0 
L 2906 0 
L 2906 525 
Q 2725 213 2448 61 
Q 2172 -91 1784 -91 
Q 1150 -91 751 415 
Q 353 922 353 1747 
Q 353 2572 751 3078 
Q 1150 3584 1784 3584 
Q 2172 3584 2448 3432 
Q 2725 3281 2906 2969 
z
M 947 1747 
Q 947 1113 1208 752 
Q 1469 391 1925 391 
Q 2381 391 2643 752 
Q 2906 1113 2906 1747 
Q 2906 2381 2643 2742 
Q 2381 3103 1925 3103 
Q 1469 3103 1208 2742 
Q 947 2381 947 1747 
z
" id="DejaVuSans-64" transform="scale(0.015625)"/>
       <path d="M 3597 1894 
L 3597 1613 
L 953 1613 
Q 991 1019 1311 708 
Q 1631 397 2203 397 
Q 2534 397 2845 478 
Q 3156 559 3463 722 
L 3463 178 
Q 3153 47 2828 -22 
Q 2503 -91 2169 -91 
Q 1331 -91 842 396 
Q 353 884 353 1716 
Q 353 2575 817 3079 
Q 1281 3584 2069 3584 
Q 2775 3584 3186 3129 
Q 3597 2675 3597 1894 
z
M 3022 2063 
Q 3016 2534 2758 2815 
Q 2500 3097 2075 3097 
Q 1594 3097 1305 2825 
Q 1016 2553 972 2059 
L 3022 2063 
z
" id="DejaVuSans-65" transform="scale(0.015625)"/>
       <path id="DejaVuSans-20" transform="scale(0.015625)"/>
       <path d="M 1959 3097 
Q 1497 3097 1228 2736 
Q 959 2375 959 1747 
Q 959 1119 1226 758 
Q 1494 397 1959 397 
Q 2419 397 2687 759 
Q 2956 1122 2956 1747 
Q 2956 2369 2687 2733 
Q 2419 3097 1959 3097 
z
M 1959 3584 
Q 2709 3584 3137 3096 
Q 3566 2609 3566 1747 
Q 3566 888 3137 398 
Q 2709 -91 1959 -91 
Q 1206 -91 779 398 
Q 353 888 353 1747 
Q 353 2609 779 3096 
Q 1206 3584 1959 3584 
z
" id="DejaVuSans-6f" transform="scale(0.015625)"/>
       <path d="M 2375 4863 
L 2375 4384 
L 1825 4384 
Q 1516 4384 1395 4259 
Q 1275 4134 1275 3809 
L 1275 3500 
L 2222 3500 
L 2222 3053 
L 1275 3053 
L 1275 0 
L 697 0 
L 697 3053 
L 147 3053 
L 147 3500 
L 697 3500 
L 697 3744 
Q 697 4328 969 4595 
Q 1241 4863 1831 4863 
L 2375 4863 
z
" id="DejaVuSans-66" transform="scale(0.015625)"/>
       <path d="M 2841 2188 
Q 3044 2119 3236 1894 
Q 3428 1669 3622 1275 
L 4263 0 
L 3584 0 
L 2988 1197 
Q 2756 1666 2539 1819 
Q 2322 1972 1947 1972 
L 1259 1972 
L 1259 0 
L 628 0 
L 628 4666 
L 2053 4666 
Q 2853 4666 3247 4331 
Q 3641 3997 3641 3322 
Q 3641 2881 3436 2590 
Q 3231 2300 2841 2188 
z
M 1259 4147 
L 1259 2491 
L 2053 2491 
Q 2509 2491 2742 2702 
Q 2975 2913 2975 3322 
Q 2975 3731 2742 3939 
Q 2509 4147 2053 4147 
L 1259 4147 
z
" id="DejaVuSans-52" transform="scale(0.015625)"/>
      </defs>
      <use xlink:href="#DejaVuSans-4d"/>
      <use x="86.279297" xlink:href="#DejaVuSans-61"/>
      <use x="147.558594" xlink:href="#DejaVuSans-67"/>
      <use x="211.035156" xlink:href="#DejaVuSans-6e"/>
      <use x="274.414062" xlink:href="#DejaVuSans-69"/>
      <use x="302.197266" xlink:href="#DejaVuSans-74"/>
      <use x="341.40625" xlink:href="#DejaVuSans-75"/>
      <use x="404.785156" xlink:href="#DejaVuSans-64"/>
      <use x="468.261719" xlink:href="#DejaVuSans-65"/>
      <use x="529.785156" xlink:href="#DejaVuSans-20"/>
      <use x="561.572266" xlink:href="#DejaVuSans-6f"/>
      <use x="622.753906" xlink:href="#DejaVuSans-66"/>
      <use x="657.958984" xlink:href="#DejaVuSans-20"/>
      <use x="689.746094" xlink:href="#DejaVuSans-52"/>
      <use x="754.728516" xlink:href="#DejaVuSans-6f"/>
      <use x="815.910156" xlink:href="#DejaVuSans-74"/>
      <use x="855.119141" xlink:href="#DejaVuSans-61"/>
      <use x="916.398438" xlink:href="#DejaVuSans-74"/>
      <use x="955.607422" xlink:href="#DejaVuSans-65"/>
     </g>
    </g>
   </g>
   <g id="matplotlib.axis_2">
    <g id="ytick_1">
     <g id="line2d_17">
      <path clip-path="url(#p2bfe802f98)" d="M 72.56 524.68 
L 847.545909 524.68 
" style="fill:none;stroke:#b0b0b0;stroke-dasharray:1.85,0.8;stroke-dashoffset:0;stroke-opacity:0.5;stroke-width:0.5;"/>
     </g>
     <g id="line2d_18">
      <defs>
       <path d="M 0 0 
L -3.5 0 
" id="m77fb750ff7" style="stroke:#000000;stroke-width:0.8;"/>
      </defs>
      <g>
       <use style="stroke:#000000;stroke-width:0.8;" x="72.56" xlink:href="#m77fb750ff7" y="524.68"/>
      </g>
     </g>
     <g id="text_10">
      <!-- 0.000 -->
      <g transform="translate(31.20625 529.239062)scale(0.12 -0.12)">
       <defs>
        <path d="M 684 794 
L 1344 794 
L 1344 0 
L 684 0 
L 684 794 
z
" id="DejaVuSans-2e" transform="scale(0.015625)"/>
       </defs>
       <use xlink:href="#DejaVuSans-30"/>
       <use x="63.623047" xlink:href="#DejaVuSans-2e"/>
       <use x="95.410156" xlink:href="#DejaVuSans-30"/>
       <use x="159.033203" xlink:href="#DejaVuSans-30"/>
       <use x="222.65625" xlink:href="#DejaVuSans-30"/>
      </g>
     </g>
    </g>
    <g id="ytick_2">
     <g id="line2d_19">
      <path clip-path="url(#p2bfe802f98)" d="M 72.56 442.313333 
L 847.545909 442.313333 
" style="fill:none;stroke:#b0b0b0;stroke-dasharray:1.85,0.8;stroke-dashoffset:0;stroke-opacity:0.5;stroke-width:0.5;"/>
     </g>
     <g id="line2d_20">
      <g>
       <use style="stroke:#000000;stroke-width:0.8;" x="72.56" xlink:href="#m77fb750ff7" y="442.313333"/>
      </g>
     </g>
     <g id="text_11">
      <!-- 0.200 -->
      <g transform="translate(31.20625 446.872396)scale(0.12 -0.12)">
       <use xlink:href="#DejaVuSans-30"/>
       <use x="63.623047" xlink:href="#DejaVuSans-2e"/>
       <use x="95.410156" xlink:href="#DejaVuSans-32"/>
       <use x="159.033203" xlink:href="#DejaVuSans-30"/>
       <use x="222.65625" xlink:href="#DejaVuSans-30"/>
      </g>
     </g>
    </g>
    <g id="ytick_3">
     <g id="line2d_21">
      <path clip-path="url(#p2bfe802f98)" d="M 72.56 359.946667 
L 847.545909 359.946667 
" style="fill:none;stroke:#b0b0b0;stroke-dasharray:1.85,0.8;stroke-dashoffset:0;stroke-opacity:0.5;stroke-width:0.5;"/>
     </g>
     <g id="line2d_22">
      <g>
       <use style="stroke:#000000;stroke-width:0.8;" x="72.56" xlink:href="#m77fb750ff7" y="359.946667"/>
      </g>
     </g>
     <g id="text_12">
      <!-- 0.400 -->
      <g transform="translate(31.20625 364.505729)scale(0.12 -0.12)">
       <use xlink:href="#DejaVuSans-30"/>
       <use x="63.623047" xlink:href="#DejaVuSans-2e"/>
       <use x="95.410156" xlink:href="#DejaVuSans-34"/>
       <use x="159.033203" xlink:href="#DejaVuSans-30"/>
       <use x="222.65625" xlink:href="#DejaVuSans-30"/>
      </g>
     </g>
    </g>
    <g id="ytick_4">
     <g id="line2d_23">
      <path clip-path="url(#p2bfe802f98)" d="M 72.56 277.58 
L 847.545909 277.58 
" style="fill:none;stroke:#b0b0b0;stroke-dasharray:1.85,0.8;stroke-dashoffset:0;stroke-opacity:0.5;stroke-width:0.5;"/>
     </g>
     <g id="line2d_24">
      <g>
       <use style="stroke:#000000;stroke-width:0.8;" x="72.56" xlink:href="#m77fb750ff7" y="277.58"/>
      </g>
     </g>
     <g id="text_13">
      <!-- 0.600 -->
      <g transform="translate(31.20625 282.139062)scale(0.12 -0.12)">
       <use xlink:href="#DejaVuSans-30"/>
       <use x="63.623047" xlink:href="#DejaVuSans-2e"/>
       <use x="95.410156" xlink:href="#DejaVuSans-36"/>
       <use x="159.033203" xlink:href="#DejaVuSans-30"/>
       <use x="222.65625" xlink:href="#DejaVuSans-30"/>
      </g>
     </g>
    </g>
    <g id="ytick_5">
     <g id="line2d_25">
      <path clip-path="url(#p2bfe802f98)" d="M 72.56 195.213333 
L 847.545909 195.213333 
" style="fill:none;stroke:#b0b0b0;stroke-dasharray:1.85,0.8;stroke-dashoffset:0;stroke-opacity:0.5;stroke-width:0.5;"/>
     </g>
     <g id="line2d_26">
      <g>
       <use style="stroke:#000000;stroke-width:0.8;" x="72.56" xlink:href="#m77fb750ff7" y="195.213333"/>
      </g>
     </g>
     <g id="text_14">
      <!-- 0.800 -->
      <g transform="translate(31.20625 199.772396)scale(0.12 -0.12)">
       <use xlink:href="#DejaVuSans-30"/>
       <use x="63.623047" xlink:href="#DejaVuSans-2e"/>
       <use x="95.410156" xlink:href="#DejaVuSans-38"/>
       <use x="159.033203" xlink:href="#DejaVuSans-30"/>
       <use x="222.65625" xlink:href="#DejaVuSans-30"/>
      </g>
     </g>
    </g>
    <g id="ytick_6">
     <g id="line2d_27">
      <path clip-path="url(#p2bfe802f98)" d="M 72.56 112.846667 
L 847.545909 112.846667 
" style="fill:none;stroke:#b0b0b0;stroke-dasharray:1.85,0.8;stroke-dashoffset:0;stroke-opacity:0.5;stroke-width:0.5;"/>
     </g>
     <g id="line2d_28">
      <g>
       <use style="stroke:#000000;stroke-width:0.8;" x="72.56" xlink:href="#m77fb750ff7" y="112.846667"/>
      </g>
     </g>
     <g id="text_15">
      <!-- 1.000 -->
      <g transform="translate(31.20625 117.405729)scale(0.12 -0.12)">
       <use xlink:href="#DejaVuSans-31"/>
       <use x="63.623047" xlink:href="#DejaVuSans-2e"/>
       <use x="95.410156" xlink:href="#DejaVuSans-30"/>
       <use x="159.033203" xlink:href="#DejaVuSans-30"/>
       <use x="222.65625" xlink:href="#DejaVuSans-30"/>
      </g>
     </g>
    </g>
    <g id="ytick_7">
     <g id="line2d_29">
      <path clip-path="url(#p2bfe802f98)" d="M 72.56 30.48 
L 847.545909 30.48 
" style="fill:none;stroke:#b0b0b0;stroke-dasharray:1.85,0.8;stroke-dashoffset:0;stroke-opacity:0.5;stroke-width:0.5;"/>
     </g>
     <g id="line2d_30">
      <g>
       <use style="stroke:#000000;stroke-width:0.8;" x="72.56" xlink:href="#m77fb750ff7" y="30.48"/>
      </g>
     </g>
     <g id="text_16">
      <!-- 1.200 -->
      <g transform="translate(31.20625 35.039062)scale(0.12 -0.12)">
       <use xlink:href="#DejaVuSans-31"/>
       <use x="63.623047" xlink:href="#DejaVuSans-2e"/>
       <use x="95.410156" xlink:href="#DejaVuSans-32"/>
       <use x="159.033203" xlink:href="#DejaVuSans-30"/>
       <use x="222.65625" xlink:href="#DejaVuSans-30"/>
      </g>
     </g>
    </g>
    <g id="ytick_8">
     <g id="line2d_31">
      <path clip-path="url(#p2bfe802f98)" d="M 72.56 141.05725 
L 847.545909 141.05725 
" style="fill:none;stroke:#b0b0b0;stroke-dasharray:1.85,0.8;stroke-dashoffset:0;stroke-opacity:0.5;stroke-width:0.5;"/>
     </g>
     <g id="line2d_32">
      <g>
       <use style="stroke:#000000;stroke-width:0.8;" x="72.56" xlink:href="#m77fb750ff7" y="141.05725"/>
      </g>
     </g>
     <g id="text_17">
      <!-- 0.931 -->
      <g style="fill:#377eb8;" transform="translate(31.20625 145.616312)scale(0.12 -0.12)">
       <defs>
        <path d="M 703 97 
L 703 672 
Q 941 559 1184 500 
Q 1428 441 1663 441 
Q 2288 441 2617 861 
Q 2947 1281 2994 2138 
Q 2813 1869 2534 1725 
Q 2256 1581 1919 1581 
Q 1219 1581 811 2004 
Q 403 2428 403 3163 
Q 403 3881 828 4315 
Q 1253 4750 1959 4750 
Q 2769 4750 3195 4129 
Q 3622 3509 3622 2328 
Q 3622 1225 3098 567 
Q 2575 -91 1691 -91 
Q 1453 -91 1209 -44 
Q 966 3 703 97 
z
M 1959 2075 
Q 2384 2075 2632 2365 
Q 2881 2656 2881 3163 
Q 2881 3666 2632 3958 
Q 2384 4250 1959 4250 
Q 1534 4250 1286 3958 
Q 1038 3666 1038 3163 
Q 1038 2656 1286 2365 
Q 1534 2075 1959 2075 
z
" id="DejaVuSans-39" transform="scale(0.015625)"/>
        <path d="M 2597 2516 
Q 3050 2419 3304 2112 
Q 3559 1806 3559 1356 
Q 3559 666 3084 287 
Q 2609 -91 1734 -91 
Q 1441 -91 1130 -33 
Q 819 25 488 141 
L 488 750 
Q 750 597 1062 519 
Q 1375 441 1716 441 
Q 2309 441 2620 675 
Q 2931 909 2931 1356 
Q 2931 1769 2642 2001 
Q 2353 2234 1838 2234 
L 1294 2234 
L 1294 2753 
L 1863 2753 
Q 2328 2753 2575 2939 
Q 2822 3125 2822 3475 
Q 2822 3834 2567 4026 
Q 2313 4219 1838 4219 
Q 1578 4219 1281 4162 
Q 984 4106 628 3988 
L 628 4550 
Q 988 4650 1302 4700 
Q 1616 4750 1894 4750 
Q 2613 4750 3031 4423 
Q 3450 4097 3450 3541 
Q 3450 3153 3228 2886 
Q 3006 2619 2597 2516 
z
" id="DejaVuSans-33" transform="scale(0.015625)"/>
       </defs>
       <use xlink:href="#DejaVuSans-30"/>
       <use x="63.623047" xlink:href="#DejaVuSans-2e"/>
       <use x="95.410156" xlink:href="#DejaVuSans-39"/>
       <use x="159.033203" xlink:href="#DejaVuSans-33"/>
       <use x="222.65625" xlink:href="#DejaVuSans-31"/>
      </g>
     </g>
    </g>
    <g id="ytick_9">
     <g id="line2d_33">
      <path clip-path="url(#p2bfe802f98)" d="M 72.56 442.313333 
L 847.545909 442.313333 
" style="fill:none;stroke:#b0b0b0;stroke-dasharray:1.85,0.8;stroke-dashoffset:0;stroke-opacity:0.5;stroke-width:0.5;"/>
     </g>
     <g id="line2d_34">
      <g>
       <use style="stroke:#000000;stroke-width:0.8;" x="72.56" xlink:href="#m77fb750ff7" y="442.313333"/>
      </g>
     </g>
     <g id="text_18">
      <!-- 0.200 -->
      <g style="fill:#4daf4a;" transform="translate(31.20625 446.872396)scale(0.12 -0.12)">
       <use xlink:href="#DejaVuSans-30"/>
       <use x="63.623047" xlink:href="#DejaVuSans-2e"/>
       <use x="95.410156" xlink:href="#DejaVuSans-32"/>
       <use x="159.033203" xlink:href="#DejaVuSans-30"/>
       <use x="222.65625" xlink:href="#DejaVuSans-30"/>
      </g>
     </g>
    </g>
    <g id="text_19">
     <!-- Confidence -->
     <g transform="translate(23.87875 322.5625)rotate(-90)scale(0.16 -0.16)">
      <defs>
       <path d="M 4122 4306 
L 4122 3641 
Q 3803 3938 3442 4084 
Q 3081 4231 2675 4231 
Q 1875 4231 1450 3742 
Q 1025 3253 1025 2328 
Q 1025 1406 1450 917 
Q 1875 428 2675 428 
Q 3081 428 3442 575 
Q 3803 722 4122 1019 
L 4122 359 
Q 3791 134 3420 21 
Q 3050 -91 2638 -91 
Q 1578 -91 968 557 
Q 359 1206 359 2328 
Q 359 3453 968 4101 
Q 1578 4750 2638 4750 
Q 3056 4750 3426 4639 
Q 3797 4528 4122 4306 
z
" id="DejaVuSans-43" transform="scale(0.015625)"/>
       <path d="M 3122 3366 
L 3122 2828 
Q 2878 2963 2633 3030 
Q 2388 3097 2138 3097 
Q 1578 3097 1268 2742 
Q 959 2388 959 1747 
Q 959 1106 1268 751 
Q 1578 397 2138 397 
Q 2388 397 2633 464 
Q 2878 531 3122 666 
L 3122 134 
Q 2881 22 2623 -34 
Q 2366 -91 2075 -91 
Q 1284 -91 818 406 
Q 353 903 353 1747 
Q 353 2603 823 3093 
Q 1294 3584 2113 3584 
Q 2378 3584 2631 3529 
Q 2884 3475 3122 3366 
z
" id="DejaVuSans-63" transform="scale(0.015625)"/>
      </defs>
      <use xlink:href="#DejaVuSans-43"/>
      <use x="69.824219" xlink:href="#DejaVuSans-6f"/>
      <use x="131.005859" xlink:href="#DejaVuSans-6e"/>
      <use x="194.384766" xlink:href="#DejaVuSans-66"/>
      <use x="229.589844" xlink:href="#DejaVuSans-69"/>
      <use x="257.373047" xlink:href="#DejaVuSans-64"/>
      <use x="320.849609" xlink:href="#DejaVuSans-65"/>
      <use x="382.373047" xlink:href="#DejaVuSans-6e"/>
      <use x="445.751953" xlink:href="#DejaVuSans-63"/>
      <use x="500.732422" xlink:href="#DejaVuSans-65"/>
     </g>
    </g>
   </g>
   <g id="line2d_35">
    <path clip-path="url(#p2bfe802f98)" d="M 107.786632 112.846667 
L 131.271054 113.464417 
L 154.755475 114.082167 
L 178.239897 114.699917 
L 201.724318 115.317667 
L 225.20874 115.935417 
L 248.693161 116.553167 
L 272.177583 117.170917 
L 295.662004 117.788667 
L 319.146426 118.406417 
L 342.630847 119.024167 
L 366.115269 119.641917 
L 389.59969 120.259667 
L 413.084112 120.877417 
L 436.568533 121.495167 
L 460.052955 122.112917 
L 483.537376 122.730667 
L 507.021798 123.348417 
L 530.506219 123.966167 
L 553.99064 124.583917 
L 577.475062 125.201667 
L 600.959483 127.672667 
L 624.443905 130.143667 
L 647.928326 132.614667 
L 671.412748 135.085667 
L 694.897169 137.556667 
L 718.381591 140.027667 
L 741.866012 141.05725 
L 765.350434 139.204 
L 788.834855 137.35075 
L 812.319277 135.4975 
" style="fill:none;stroke:#377eb8;stroke-linecap:square;stroke-width:2;"/>
   </g>
   <g id="line2d_36">
    <path clip-path="url(#p2bfe802f98)" d="M 107.786632 112.846667 
L 131.271054 116.965 
L 154.755475 122.730667 
L 178.239897 150.735333 
L 201.724318 218.276 
L 225.20874 290.758667 
L 248.693161 336.060333 
L 272.177583 356.652 
L 295.662004 378.067333 
L 319.146426 371.478 
L 342.630847 374.772667 
L 366.115269 388.775 
L 389.59969 409.366667 
L 413.084112 420.898 
L 436.568533 437.371333 
L 460.052955 421.721667 
L 483.537376 424.192667 
L 507.021798 394.540667 
L 530.506219 373.125333 
L 553.99064 373.125333 
L 577.475062 359.123 
L 600.959483 377.243667 
L 624.443905 397.011667 
L 647.928326 413.485 
L 671.412748 417.603333 
L 694.897169 429.134667 
L 718.381591 440.666 
L 741.866012 442.313333 
L 765.350434 439.842333 
L 788.834855 434.900333 
L 812.319277 429.134667 
" style="fill:none;stroke:#4daf4a;stroke-linecap:square;stroke-width:2;"/>
   </g>
   <g id="line2d_37">
    <path clip-path="url(#p2bfe802f98)" d="M 107.786632 112.846667 
L 131.271054 112.878012 
L 154.755475 112.972047 
L 178.239897 113.128772 
L 201.724318 113.348188 
L 225.20874 113.630294 
L 248.693161 113.97509 
L 272.177583 114.382576 
L 295.662004 114.852753 
L 319.146426 115.385619 
L 342.630847 115.981176 
L 366.115269 116.639423 
L 389.59969 117.36036 
L 413.084112 118.143987 
L 436.568533 118.990305 
L 460.052955 119.899313 
L 483.537376 120.87101 
L 507.021798 121.905398 
L 530.506219 123.002477 
L 553.99064 124.162245 
L 577.475062 125.384704 
L 600.959483 126.669852 
L 624.443905 128.017691 
L 647.928326 129.428221 
L 671.412748 130.90144 
L 694.897169 132.43735 
L 718.381591 134.035949 
L 741.866012 135.697239 
L 765.350434 137.421219 
L 788.834855 139.20789 
L 812.319277 141.05725 
" style="fill:none;stroke:#ff0000;stroke-dasharray:12.8,3.2,2,3.2;stroke-dashoffset:0;stroke-width:2;"/>
   </g>
   <g id="line2d_38">
    <path clip-path="url(#p2bfe802f98)" d="M 107.786632 112.846667 
L 131.271054 112.858869 
L 154.755475 112.944286 
L 178.239897 113.176133 
L 201.724318 113.627625 
L 225.20874 114.371975 
L 248.693161 115.4824 
L 272.177583 117.032114 
L 295.662004 119.094331 
L 319.146426 121.742267 
L 342.630847 125.049136 
L 366.115269 129.088153 
L 389.59969 133.932533 
L 413.084112 139.655491 
L 436.568533 146.330242 
L 460.052955 154.03 
L 483.537376 162.82798 
L 507.021798 172.797398 
L 530.506219 184.011467 
L 553.99064 196.543402 
L 577.475062 210.46642 
L 600.959483 225.853733 
L 624.443905 242.778558 
L 647.928326 261.314109 
L 671.412748 281.5336 
L 694.897169 303.510247 
L 718.381591 327.317264 
L 741.866012 353.027867 
L 765.350434 380.715269 
L 788.834855 410.452686 
L 812.319277 442.313333 
" style="fill:none;stroke:#ff0000;stroke-dasharray:7.4,3.2;stroke-dashoffset:0;stroke-width:2;"/>
   </g>
   <g id="line2d_39">
    <path clip-path="url(#p2bfe802f98)" d="M 107.786632 112.846667 
L 131.271054 202.46798 
L 154.755475 285.249924 
L 178.239897 356.018492 
L 201.724318 398.498132 
L 225.20874 425.986769 
L 248.693161 442.382485 
L 272.177583 453.723312 
L 295.662004 461.701269 
L 319.146426 466.401913 
L 342.630847 469.142354 
L 366.115269 471.375174 
L 389.59969 472.804295 
L 413.084112 474.179448 
L 436.568533 474.870569 
L 460.052955 475.100096 
L 483.537376 475.789761 
L 507.021798 475.820622 
L 530.506219 476.038574 
L 553.99064 476.285356 
L 577.475062 477.132649 
L 600.959483 476.848903 
L 624.443905 477.262377 
L 647.928326 477.726803 
L 671.412748 477.906374 
L 694.897169 478.091691 
L 718.381591 478.098765 
L 741.866012 478.287594 
L 765.350434 478.436261 
L 788.834855 478.630078 
L 812.319277 478.714252 
" style="fill:none;stroke:#333333;stroke-linecap:square;stroke-opacity:0.8;"/>
   </g>
   <g id="line2d_40">
    <path clip-path="url(#p2bfe802f98)" d="M 107.786632 112.847566 
L 131.271054 160.238447 
L 154.755475 196.25203 
L 178.239897 222.476862 
L 201.724318 241.259598 
L 225.20874 254.935984 
L 248.693161 264.370199 
L 272.177583 274.368862 
L 295.662004 281.046015 
L 319.146426 286.8848 
L 342.630847 292.199899 
L 366.115269 295.688245 
L 389.59969 299.133129 
L 413.084112 302.601441 
L 436.568533 304.168258 
L 460.052955 306.301688 
L 483.537376 307.912851 
L 507.021798 308.444508 
L 530.506219 308.371548 
L 553.99064 307.552404 
L 577.475062 305.26383 
L 600.959483 311.974501 
L 624.443905 316.815342 
L 647.928326 320.50412 
L 671.412748 323.336036 
L 694.897169 325.478735 
L 718.381591 326.985251 
L 741.866012 328.571813 
L 765.350434 329.482519 
L 788.834855 330.535903 
L 812.319277 331.60641 
" style="fill:none;stroke:#333333;stroke-dasharray:3.7,1.6;stroke-dashoffset:0;stroke-opacity:0.8;"/>
   </g>
   <g id="line2d_41">
    <path clip-path="url(#p2bfe802f98)" d="M 107.786632 113.362092 
L 131.271054 212.463169 
L 154.755475 301.61477 
L 178.239897 376.054237 
L 201.724318 419.179343 
L 225.20874 445.557537 
L 248.693161 459.930286 
L 272.177583 468.564406 
L 295.662004 473.888091 
L 319.146426 476.230691 
L 342.630847 477.781315 
L 366.115269 478.841749 
L 389.59969 479.435485 
L 413.084112 479.993066 
L 436.568533 480.388529 
L 460.052955 480.427938 
L 483.537376 480.774059 
L 507.021798 480.897377 
L 530.506219 480.97727 
L 553.99064 481.138461 
L 577.475062 481.152188 
L 600.959483 481.247503 
L 624.443905 481.418634 
L 647.928326 481.513716 
L 671.412748 481.390339 
L 694.897169 481.19373 
L 718.381591 481.001369 
L 741.866012 481.120022 
L 765.350434 481.344628 
L 788.834855 481.567248 
L 812.319277 481.563209 
" style="fill:none;stroke:#333333;stroke-linecap:square;stroke-opacity:0.8;"/>
    <defs>
     <path d="M 0 1.5 
C 0.397805 1.5 0.77937 1.341951 1.06066 1.06066 
C 1.341951 0.77937 1.5 0.397805 1.5 0 
C 1.5 -0.397805 1.341951 -0.77937 1.06066 -1.06066 
C 0.77937 -1.341951 0.397805 -1.5 0 -1.5 
C -0.397805 -1.5 -0.77937 -1.341951 -1.06066 -1.06066 
C -1.341951 -0.77937 -1.5 -0.397805 -1.5 0 
C -1.5 0.397805 -1.341951 0.77937 -1.06066 1.06066 
C -0.77937 1.341951 -0.397805 1.5 0 1.5 
z
" id="mad335e17f6" style="stroke:#333333;stroke-opacity:0.8;"/>
    </defs>
    <g clip-path="url(#p2bfe802f98)">
     <use style="fill:#333333;fill-opacity:0.8;stroke:#333333;stroke-opacity:0.8;" x="107.786632" xlink:href="#mad335e17f6" y="113.362092"/>
     <use style="fill:#333333;fill-opacity:0.8;stroke:#333333;stroke-opacity:0.8;" x="131.271054" xlink:href="#mad335e17f6" y="212.463169"/>
     <use style="fill:#333333;fill-opacity:0.8;stroke:#333333;stroke-opacity:0.8;" x="154.755475" xlink:href="#mad335e17f6" y="301.61477"/>
     <use style="fill:#333333;fill-opacity:0.8;stroke:#333333;stroke-opacity:0.8;" x="178.239897" xlink:href="#mad335e17f6" y="376.054237"/>
     <use style="fill:#333333;fill-opacity:0.8;stroke:#333333;stroke-opacity:0.8;" x="201.724318" xlink:href="#mad335e17f6" y="419.179343"/>
     <use style="fill:#333333;fill-opacity:0.8;stroke:#333333;stroke-opacity:0.8;" x="225.20874" xlink:href="#mad335e17f6" y="445.557537"/>
     <use style="fill:#333333;fill-opacity:0.8;stroke:#333333;stroke-opacity:0.8;" x="248.693161" xlink:href="#mad335e17f6" y="459.930286"/>
     <use style="fill:#333333;fill-opacity:0.8;stroke:#333333;stroke-opacity:0.8;" x="272.177583" xlink:href="#mad335e17f6" y="468.564406"/>
     <use style="fill:#333333;fill-opacity:0.8;stroke:#333333;stroke-opacity:0.8;" x="295.662004" xlink:href="#mad335e17f6" y="473.888091"/>
     <use style="fill:#333333;fill-opacity:0.8;stroke:#333333;stroke-opacity:0.8;" x="319.146426" xlink:href="#mad335e17f6" y="476.230691"/>
     <use style="fill:#333333;fill-opacity:0.8;stroke:#333333;stroke-opacity:0.8;" x="342.630847" xlink:href="#mad335e17f6" y="477.781315"/>
     <use style="fill:#333333;fill-opacity:0.8;stroke:#333333;stroke-opacity:0.8;" x="366.115269" xlink:href="#mad335e17f6" y="478.841749"/>
     <use style="fill:#333333;fill-opacity:0.8;stroke:#333333;stroke-opacity:0.8;" x="389.59969" xlink:href="#mad335e17f6" y="479.435485"/>
     <use style="fill:#333333;fill-opacity:0.8;stroke:#333333;stroke-opacity:0.8;" x="413.084112" xlink:href="#mad335e17f6" y="479.993066"/>
     <use style="fill:#333333;fill-opacity:0.8;stroke:#333333;stroke-opacity:0.8;" x="436.568533" xlink:href="#mad335e17f6" y="480.388529"/>
     <use style="fill:#333333;fill-opacity:0.8;stroke:#333333;stroke-opacity:0.8;" x="460.052955" xlink:href="#mad335e17f6" y="480.427938"/>
     <use style="fill:#333333;fill-opacity:0.8;stroke:#333333;stroke-opacity:0.8;" x="483.537376" xlink:href="#mad335e17f6" y="480.774059"/>
     <use style="fill:#333333;fill-opacity:0.8;stroke:#333333;stroke-opacity:0.8;" x="507.021798" xlink:href="#mad335e17f6" y="480.897377"/>
     <use style="fill:#333333;fill-opacity:0.8;stroke:#333333;stroke-opacity:0.8;" x="530.506219" xlink:href="#mad335e17f6" y="480.97727"/>
     <use style="fill:#333333;fill-opacity:0.8;stroke:#333333;stroke-opacity:0.8;" x="553.99064" xlink:href="#mad335e17f6" y="481.138461"/>
     <use style="fill:#333333;fill-opacity:0.8;stroke:#333333;stroke-opacity:0.8;" x="577.475062" xlink:href="#mad335e17f6" y="481.152188"/>
     <use style="fill:#333333;fill-opacity:0.8;stroke:#333333;stroke-opacity:0.8;" x="600.959483" xlink:href="#mad335e17f6" y="481.247503"/>
     <use style="fill:#333333;fill-opacity:0.8;stroke:#333333;stroke-opacity:0.8;" x="624.443905" xlink:href="#mad335e17f6" y="481.418634"/>
     <use style="fill:#333333;fill-opacity:0.8;stroke:#333333;stroke-opacity:0.8;" x="647.928326" xlink:href="#mad335e17f6" y="481.513716"/>
     <use style="fill:#333333;fill-opacity:0.8;stroke:#333333;stroke-opacity:0.8;" x="671.412748" xlink:href="#mad335e17f6" y="481.390339"/>
     <use style="fill:#333333;fill-opacity:0.8;stroke:#333333;stroke-opacity:0.8;" x="694.897169" xlink:href="#mad335e17f6" y="481.19373"/>
     <use style="fill:#333333;fill-opacity:0.8;stroke:#333333;stroke-opacity:0.8;" x="718.381591" xlink:href="#mad335e17f6" y="481.001369"/>
     <use style="fill:#333333;fill-opacity:0.8;stroke:#333333;stroke-opacity:0.8;" x="741.866012" xlink:href="#mad335e17f6" y="481.120022"/>
     <use style="fill:#333333;fill-opacity:0.8;stroke:#333333;stroke-opacity:0.8;" x="765.350434" xlink:href="#mad335e17f6" y="481.344628"/>
     <use style="fill:#333333;fill-opacity:0.8;stroke:#333333;stroke-opacity:0.8;" x="788.834855" xlink:href="#mad335e17f6" y="481.567248"/>
     <use style="fill:#333333;fill-opacity:0.8;stroke:#333333;stroke-opacity:0.8;" x="812.319277" xlink:href="#mad335e17f6" y="481.563209"/>
    </g>
   </g>
   <g id="line2d_42">
    <path clip-path="url(#p2bfe802f98)" d="M 107.786632 112.88045 
L 131.271054 256.58382 
L 154.755475 308.069702 
L 178.239897 316.070323 
L 201.724318 318.124947 
L 225.20874 318.621572 
L 248.693161 318.59245 
L 272.177583 318.450683 
L 295.662004 318.542131 
L 319.146426 318.63979 
L 342.630847 318.789451 
L 366.115269 318.730114 
L 389.59969 319.013479 
L 413.084112 319.007041 
L 436.568533 318.752899 
L 460.052955 318.599011 
L 483.537376 319.142435 
L 507.021798 318.304677 
L 530.506219 318.350763 
L 553.99064 319.261394 
L 577.475062 317.744217 
L 600.959483 317.727222 
L 624.443905 318.09921 
L 647.928326 318.945201 
L 671.412748 318.753315 
L 694.897169 318.62655 
L 718.381591 318.896745 
L 741.866012 318.648728 
L 765.350434 318.15268 
L 788.834855 318.534038 
L 812.319277 318.80629 
" style="fill:none;stroke:#333333;stroke-dasharray:1,1.65;stroke-dashoffset:0;stroke-opacity:0.8;"/>
   </g>
   <g id="line2d_43">
    <path clip-path="url(#p2bfe802f98)" d="M 107.786632 112.846667 
L 131.271054 221.754814 
L 154.755475 255.255553 
L 178.239897 265.806468 
L 201.724318 279.917425 
L 225.20874 278.438713 
L 248.693161 279.414936 
L 272.177583 280.39035 
L 295.662004 281.720704 
L 319.146426 280.739957 
L 342.630847 281.439383 
L 366.115269 277.160454 
L 389.59969 283.119892 
L 413.084112 282.243961 
L 436.568533 279.204995 
L 460.052955 285.406974 
L 483.537376 283.333513 
L 507.021798 268.307355 
L 530.506219 256.401712 
L 553.99064 223.200297 
L 577.475062 135.32762 
L 600.959483 222.085954 
L 624.443905 258.001936 
L 647.928326 268.921718 
L 671.412748 277.536202 
L 694.897169 281.446049 
L 718.381591 281.615098 
L 741.866012 280.37771 
L 765.350434 284.770375 
L 788.834855 276.390728 
L 812.319277 274.992037 
" style="fill:none;stroke:#333333;stroke-dasharray:6.4,1.6,1,1.6;stroke-dashoffset:0;stroke-opacity:0.8;"/>
   </g>
   <g id="line2d_44">
    <path clip-path="url(#p2bfe802f98)" d="M 107.786632 112.846667 
L 131.271054 113.075463 
L 154.755475 113.761852 
L 178.239897 114.905833 
L 201.724318 116.507407 
L 225.20874 118.566574 
L 248.693161 121.083333 
L 272.177583 124.057685 
L 295.662004 127.48963 
L 319.146426 131.379167 
L 342.630847 135.726296 
L 366.115269 140.531019 
L 389.59969 145.793333 
L 413.084112 151.513241 
L 436.568533 157.690741 
L 460.052955 164.325833 
L 483.537376 171.418519 
L 507.021798 178.968796 
L 530.506219 186.976667 
L 553.99064 195.44213 
L 577.475062 204.365185 
L 600.959483 213.745833 
L 624.443905 223.584074 
L 647.928326 233.879907 
L 671.412748 244.633333 
L 694.897169 255.844352 
L 718.381591 267.512963 
L 741.866012 279.639167 
L 765.350434 292.222963 
L 788.834855 305.264352 
L 812.319277 318.763333 
" style="fill:none;stroke:#984ea3;stroke-linecap:square;stroke-width:2;"/>
   </g>
   <g id="line2d_45">
    <path clip-path="url(#p2bfe802f98)" d="M 72.56 141.05725 
L 847.545909 141.05725 
" style="fill:none;stroke:#377eb8;stroke-dasharray:2,3.3;stroke-dashoffset:0;stroke-opacity:0.6;stroke-width:2;"/>
   </g>
   <g id="line2d_46">
    <path clip-path="url(#p2bfe802f98)" d="M 72.56 442.313333 
L 847.545909 442.313333 
" style="fill:none;stroke:#4daf4a;stroke-dasharray:2,3.3;stroke-dashoffset:0;stroke-opacity:0.6;stroke-width:2;"/>
   </g>
   <g id="patch_3">
    <path d="M 72.56 524.68 
L 72.56 30.48 
" style="fill:none;stroke:#000000;stroke-linecap:square;stroke-linejoin:miter;stroke-width:0.8;"/>
   </g>
   <g id="patch_4">
    <path d="M 847.545909 524.68 
L 847.545909 30.48 
" style="fill:none;stroke:#000000;stroke-linecap:square;stroke-linejoin:miter;stroke-width:0.8;"/>
   </g>
   <g id="patch_5">
    <path d="M 72.56 524.68 
L 847.545909 524.68 
" style="fill:none;stroke:#000000;stroke-linecap:square;stroke-linejoin:miter;stroke-width:0.8;"/>
   </g>
   <g id="patch_6">
    <path d="M 72.56 30.48 
L 847.545909 30.48 
" style="fill:none;stroke:#000000;stroke-linecap:square;stroke-linejoin:miter;stroke-width:0.8;"/>
   </g>
   <g id="text_20">
    <!-- Rotate -->
    <g transform="translate(429.924205 24.48)scale(0.16 -0.16)">
     <defs>
      <path d="M 2297 2597 
Q 2675 2597 2839 2737 
Q 3003 2878 3003 3200 
Q 3003 3519 2839 3656 
Q 2675 3794 2297 3794 
L 1791 3794 
L 1791 2597 
L 2297 2597 
z
M 1791 1766 
L 1791 0 
L 588 0 
L 588 4666 
L 2425 4666 
Q 3347 4666 3776 4356 
Q 4206 4047 4206 3378 
Q 4206 2916 3982 2619 
Q 3759 2322 3309 2181 
Q 3556 2125 3751 1926 
Q 3947 1728 4147 1325 
L 4800 0 
L 3519 0 
L 2950 1159 
Q 2778 1509 2601 1637 
Q 2425 1766 2131 1766 
L 1791 1766 
z
" id="DejaVuSans-Bold-52" transform="scale(0.015625)"/>
      <path d="M 2203 2784 
Q 1831 2784 1636 2517 
Q 1441 2250 1441 1747 
Q 1441 1244 1636 976 
Q 1831 709 2203 709 
Q 2569 709 2762 976 
Q 2956 1244 2956 1747 
Q 2956 2250 2762 2517 
Q 2569 2784 2203 2784 
z
M 2203 3584 
Q 3106 3584 3614 3096 
Q 4122 2609 4122 1747 
Q 4122 884 3614 396 
Q 3106 -91 2203 -91 
Q 1297 -91 786 396 
Q 275 884 275 1747 
Q 275 2609 786 3096 
Q 1297 3584 2203 3584 
z
" id="DejaVuSans-Bold-6f" transform="scale(0.015625)"/>
      <path d="M 1759 4494 
L 1759 3500 
L 2913 3500 
L 2913 2700 
L 1759 2700 
L 1759 1216 
Q 1759 972 1856 886 
Q 1953 800 2241 800 
L 2816 800 
L 2816 0 
L 1856 0 
Q 1194 0 917 276 
Q 641 553 641 1216 
L 641 2700 
L 84 2700 
L 84 3500 
L 641 3500 
L 641 4494 
L 1759 4494 
z
" id="DejaVuSans-Bold-74" transform="scale(0.015625)"/>
      <path d="M 2106 1575 
Q 1756 1575 1579 1456 
Q 1403 1338 1403 1106 
Q 1403 894 1545 773 
Q 1688 653 1941 653 
Q 2256 653 2472 879 
Q 2688 1106 2688 1447 
L 2688 1575 
L 2106 1575 
z
M 3816 1997 
L 3816 0 
L 2688 0 
L 2688 519 
Q 2463 200 2181 54 
Q 1900 -91 1497 -91 
Q 953 -91 614 226 
Q 275 544 275 1050 
Q 275 1666 698 1953 
Q 1122 2241 2028 2241 
L 2688 2241 
L 2688 2328 
Q 2688 2594 2478 2717 
Q 2269 2841 1825 2841 
Q 1466 2841 1156 2769 
Q 847 2697 581 2553 
L 581 3406 
Q 941 3494 1303 3539 
Q 1666 3584 2028 3584 
Q 2975 3584 3395 3211 
Q 3816 2838 3816 1997 
z
" id="DejaVuSans-Bold-61" transform="scale(0.015625)"/>
      <path d="M 4031 1759 
L 4031 1441 
L 1416 1441 
Q 1456 1047 1700 850 
Q 1944 653 2381 653 
Q 2734 653 3104 758 
Q 3475 863 3866 1075 
L 3866 213 
Q 3469 63 3072 -14 
Q 2675 -91 2278 -91 
Q 1328 -91 801 392 
Q 275 875 275 1747 
Q 275 2603 792 3093 
Q 1309 3584 2216 3584 
Q 3041 3584 3536 3087 
Q 4031 2591 4031 1759 
z
M 2881 2131 
Q 2881 2450 2695 2645 
Q 2509 2841 2209 2841 
Q 1884 2841 1681 2658 
Q 1478 2475 1428 2131 
L 2881 2131 
z
" id="DejaVuSans-Bold-65" transform="scale(0.015625)"/>
     </defs>
     <use xlink:href="#DejaVuSans-Bold-52"/>
     <use x="77.001953" xlink:href="#DejaVuSans-Bold-6f"/>
     <use x="145.703125" xlink:href="#DejaVuSans-Bold-74"/>
     <use x="193.505859" xlink:href="#DejaVuSans-Bold-61"/>
     <use x="260.986328" xlink:href="#DejaVuSans-Bold-74"/>
     <use x="308.789062" xlink:href="#DejaVuSans-Bold-65"/>
    </g>
   </g>
   <g id="legend_1">
    <g id="line2d_47">
     <path d="M 81.56 348.640938 
L 101.56 348.640938 
" style="fill:none;stroke:#377eb8;stroke-linecap:square;stroke-width:2;"/>
    </g>
    <g id="line2d_48"/>
    <g id="text_21">
     <!-- Rotation HVS -->
     <g transform="translate(109.56 352.140938)scale(0.1 -0.1)">
      <defs>
       <path d="M 628 4666 
L 1259 4666 
L 1259 2753 
L 3553 2753 
L 3553 4666 
L 4184 4666 
L 4184 0 
L 3553 0 
L 3553 2222 
L 1259 2222 
L 1259 0 
L 628 0 
L 628 4666 
z
" id="DejaVuSans-48" transform="scale(0.015625)"/>
       <path d="M 1831 0 
L 50 4666 
L 709 4666 
L 2188 738 
L 3669 4666 
L 4325 4666 
L 2547 0 
L 1831 0 
z
" id="DejaVuSans-56" transform="scale(0.015625)"/>
       <path d="M 3425 4513 
L 3425 3897 
Q 3066 4069 2747 4153 
Q 2428 4238 2131 4238 
Q 1616 4238 1336 4038 
Q 1056 3838 1056 3469 
Q 1056 3159 1242 3001 
Q 1428 2844 1947 2747 
L 2328 2669 
Q 3034 2534 3370 2195 
Q 3706 1856 3706 1288 
Q 3706 609 3251 259 
Q 2797 -91 1919 -91 
Q 1588 -91 1214 -16 
Q 841 59 441 206 
L 441 856 
Q 825 641 1194 531 
Q 1563 422 1919 422 
Q 2459 422 2753 634 
Q 3047 847 3047 1241 
Q 3047 1584 2836 1778 
Q 2625 1972 2144 2069 
L 1759 2144 
Q 1053 2284 737 2584 
Q 422 2884 422 3419 
Q 422 4038 858 4394 
Q 1294 4750 2059 4750 
Q 2388 4750 2728 4690 
Q 3069 4631 3425 4513 
z
" id="DejaVuSans-53" transform="scale(0.015625)"/>
      </defs>
      <use xlink:href="#DejaVuSans-52"/>
      <use x="64.982422" xlink:href="#DejaVuSans-6f"/>
      <use x="126.164062" xlink:href="#DejaVuSans-74"/>
      <use x="165.373047" xlink:href="#DejaVuSans-61"/>
      <use x="226.652344" xlink:href="#DejaVuSans-74"/>
      <use x="265.861328" xlink:href="#DejaVuSans-69"/>
      <use x="293.644531" xlink:href="#DejaVuSans-6f"/>
      <use x="354.826172" xlink:href="#DejaVuSans-6e"/>
      <use x="418.205078" xlink:href="#DejaVuSans-20"/>
      <use x="449.992188" xlink:href="#DejaVuSans-48"/>
      <use x="525.1875" xlink:href="#DejaVuSans-56"/>
      <use x="593.595703" xlink:href="#DejaVuSans-53"/>
     </g>
    </g>
    <g id="line2d_49">
     <path d="M 81.56 363.319063 
L 101.56 363.319063 
" style="fill:none;stroke:#4daf4a;stroke-linecap:square;stroke-width:2;"/>
    </g>
    <g id="line2d_50"/>
    <g id="text_22">
     <!-- Model Confidence -->
     <g transform="translate(109.56 366.819063)scale(0.1 -0.1)">
      <defs>
       <path d="M 603 4863 
L 1178 4863 
L 1178 0 
L 603 0 
L 603 4863 
z
" id="DejaVuSans-6c" transform="scale(0.015625)"/>
      </defs>
      <use xlink:href="#DejaVuSans-4d"/>
      <use x="86.279297" xlink:href="#DejaVuSans-6f"/>
      <use x="147.460938" xlink:href="#DejaVuSans-64"/>
      <use x="210.9375" xlink:href="#DejaVuSans-65"/>
      <use x="272.460938" xlink:href="#DejaVuSans-6c"/>
      <use x="300.244141" xlink:href="#DejaVuSans-20"/>
      <use x="332.03125" xlink:href="#DejaVuSans-43"/>
      <use x="401.855469" xlink:href="#DejaVuSans-6f"/>
      <use x="463.037109" xlink:href="#DejaVuSans-6e"/>
      <use x="526.416016" xlink:href="#DejaVuSans-66"/>
      <use x="561.621094" xlink:href="#DejaVuSans-69"/>
      <use x="589.404297" xlink:href="#DejaVuSans-64"/>
      <use x="652.880859" xlink:href="#DejaVuSans-65"/>
      <use x="714.404297" xlink:href="#DejaVuSans-6e"/>
      <use x="777.783203" xlink:href="#DejaVuSans-63"/>
      <use x="832.763672" xlink:href="#DejaVuSans-65"/>
     </g>
    </g>
    <g id="line2d_51">
     <path d="M 81.56 377.997187 
L 101.56 377.997187 
" style="fill:none;stroke:#ff0000;stroke-dasharray:12.8,3.2,2,3.2;stroke-dashoffset:0;stroke-width:2;"/>
    </g>
    <g id="line2d_52"/>
    <g id="text_23">
     <!-- k=2 -->
     <g transform="translate(109.56 381.497187)scale(0.1 -0.1)">
      <defs>
       <path d="M 581 4863 
L 1159 4863 
L 1159 1991 
L 2875 3500 
L 3609 3500 
L 1753 1863 
L 3688 0 
L 2938 0 
L 1159 1709 
L 1159 0 
L 581 0 
L 581 4863 
z
" id="DejaVuSans-6b" transform="scale(0.015625)"/>
       <path d="M 678 2906 
L 4684 2906 
L 4684 2381 
L 678 2381 
L 678 2906 
z
M 678 1631 
L 4684 1631 
L 4684 1100 
L 678 1100 
L 678 1631 
z
" id="DejaVuSans-3d" transform="scale(0.015625)"/>
      </defs>
      <use xlink:href="#DejaVuSans-6b"/>
      <use x="57.910156" xlink:href="#DejaVuSans-3d"/>
      <use x="141.699219" xlink:href="#DejaVuSans-32"/>
     </g>
    </g>
    <g id="line2d_53">
     <path d="M 81.56 392.675313 
L 101.56 392.675313 
" style="fill:none;stroke:#ff0000;stroke-dasharray:7.4,3.2;stroke-dashoffset:0;stroke-width:2;"/>
    </g>
    <g id="line2d_54"/>
    <g id="text_24">
     <!-- k=3 -->
     <g transform="translate(109.56 396.175313)scale(0.1 -0.1)">
      <use xlink:href="#DejaVuSans-6b"/>
      <use x="57.910156" xlink:href="#DejaVuSans-3d"/>
      <use x="141.699219" xlink:href="#DejaVuSans-33"/>
     </g>
    </g>
    <g id="line2d_55">
     <path d="M 81.56 407.353438 
L 101.56 407.353438 
" style="fill:none;stroke:#333333;stroke-linecap:square;stroke-opacity:0.8;"/>
    </g>
    <g id="line2d_56"/>
    <g id="text_25">
     <!-- SSIM -->
     <g transform="translate(109.56 410.853438)scale(0.1 -0.1)">
      <defs>
       <path d="M 628 4666 
L 1259 4666 
L 1259 0 
L 628 0 
L 628 4666 
z
" id="DejaVuSans-49" transform="scale(0.015625)"/>
      </defs>
      <use xlink:href="#DejaVuSans-53"/>
      <use x="63.476562" xlink:href="#DejaVuSans-53"/>
      <use x="126.953125" xlink:href="#DejaVuSans-49"/>
      <use x="156.445312" xlink:href="#DejaVuSans-4d"/>
     </g>
    </g>
    <g id="line2d_57">
     <path d="M 81.56 422.031563 
L 101.56 422.031563 
" style="fill:none;stroke:#333333;stroke-dasharray:3.7,1.6;stroke-dashoffset:0;stroke-opacity:0.8;"/>
    </g>
    <g id="line2d_58"/>
    <g id="text_26">
     <!-- NCC -->
     <g transform="translate(109.56 425.531563)scale(0.1 -0.1)">
      <defs>
       <path d="M 628 4666 
L 1478 4666 
L 3547 763 
L 3547 4666 
L 4159 4666 
L 4159 0 
L 3309 0 
L 1241 3903 
L 1241 0 
L 628 0 
L 628 4666 
z
" id="DejaVuSans-4e" transform="scale(0.015625)"/>
      </defs>
      <use xlink:href="#DejaVuSans-4e"/>
      <use x="74.804688" xlink:href="#DejaVuSans-43"/>
      <use x="144.628906" xlink:href="#DejaVuSans-43"/>
     </g>
    </g>
    <g id="line2d_59">
     <path d="M 81.56 436.709688 
L 101.56 436.709688 
" style="fill:none;stroke:#333333;stroke-linecap:square;stroke-opacity:0.8;"/>
    </g>
    <g id="line2d_60">
     <g>
      <use style="fill:#333333;fill-opacity:0.8;stroke:#333333;stroke-opacity:0.8;" x="91.56" xlink:href="#mad335e17f6" y="436.709688"/>
     </g>
    </g>
    <g id="text_27">
     <!-- UIQ -->
     <g transform="translate(109.56 440.209688)scale(0.1 -0.1)">
      <defs>
       <path d="M 556 4666 
L 1191 4666 
L 1191 1831 
Q 1191 1081 1462 751 
Q 1734 422 2344 422 
Q 2950 422 3222 751 
Q 3494 1081 3494 1831 
L 3494 4666 
L 4128 4666 
L 4128 1753 
Q 4128 841 3676 375 
Q 3225 -91 2344 -91 
Q 1459 -91 1007 375 
Q 556 841 556 1753 
L 556 4666 
z
" id="DejaVuSans-55" transform="scale(0.015625)"/>
       <path d="M 2522 4238 
Q 1834 4238 1429 3725 
Q 1025 3213 1025 2328 
Q 1025 1447 1429 934 
Q 1834 422 2522 422 
Q 3209 422 3611 934 
Q 4013 1447 4013 2328 
Q 4013 3213 3611 3725 
Q 3209 4238 2522 4238 
z
M 3406 84 
L 4238 -825 
L 3475 -825 
L 2784 -78 
Q 2681 -84 2626 -87 
Q 2572 -91 2522 -91 
Q 1538 -91 948 567 
Q 359 1225 359 2328 
Q 359 3434 948 4092 
Q 1538 4750 2522 4750 
Q 3503 4750 4090 4092 
Q 4678 3434 4678 2328 
Q 4678 1516 4351 937 
Q 4025 359 3406 84 
z
" id="DejaVuSans-51" transform="scale(0.015625)"/>
      </defs>
      <use xlink:href="#DejaVuSans-55"/>
      <use x="73.193359" xlink:href="#DejaVuSans-49"/>
      <use x="102.685547" xlink:href="#DejaVuSans-51"/>
     </g>
    </g>
    <g id="line2d_61">
     <path d="M 81.56 451.387812 
L 101.56 451.387812 
" style="fill:none;stroke:#333333;stroke-dasharray:1,1.65;stroke-dashoffset:0;stroke-opacity:0.8;"/>
    </g>
    <g id="line2d_62"/>
    <g id="text_28">
     <!-- SCC -->
     <g transform="translate(109.56 454.887812)scale(0.1 -0.1)">
      <use xlink:href="#DejaVuSans-53"/>
      <use x="63.476562" xlink:href="#DejaVuSans-43"/>
      <use x="133.300781" xlink:href="#DejaVuSans-43"/>
     </g>
    </g>
    <g id="line2d_63">
     <path d="M 81.56 466.065938 
L 101.56 466.065938 
" style="fill:none;stroke:#333333;stroke-dasharray:6.4,1.6,1,1.6;stroke-dashoffset:0;stroke-opacity:0.8;"/>
    </g>
    <g id="line2d_64"/>
    <g id="text_29">
     <!-- SIFT -->
     <g transform="translate(109.56 469.565938)scale(0.1 -0.1)">
      <defs>
       <path d="M 628 4666 
L 3309 4666 
L 3309 4134 
L 1259 4134 
L 1259 2759 
L 3109 2759 
L 3109 2228 
L 1259 2228 
L 1259 0 
L 628 0 
L 628 4666 
z
" id="DejaVuSans-46" transform="scale(0.015625)"/>
       <path d="M -19 4666 
L 3928 4666 
L 3928 4134 
L 2272 4134 
L 2272 0 
L 1638 0 
L 1638 4134 
L -19 4134 
L -19 4666 
z
" id="DejaVuSans-54" transform="scale(0.015625)"/>
      </defs>
      <use xlink:href="#DejaVuSans-53"/>
      <use x="63.476562" xlink:href="#DejaVuSans-49"/>
      <use x="92.96875" xlink:href="#DejaVuSans-46"/>
      <use x="148.738281" xlink:href="#DejaVuSans-54"/>
     </g>
    </g>
    <g id="line2d_65">
     <path d="M 81.56 480.744062 
L 101.56 480.744062 
" style="fill:none;stroke:#984ea3;stroke-linecap:square;stroke-width:2;"/>
    </g>
    <g id="line2d_66"/>
    <g id="text_30">
     <!-- k=2, Confidence&gt;=0.5 -->
     <g transform="translate(109.56 484.244062)scale(0.1 -0.1)">
      <defs>
       <path d="M 750 794 
L 1409 794 
L 1409 256 
L 897 -744 
L 494 -744 
L 750 256 
L 750 794 
z
" id="DejaVuSans-2c" transform="scale(0.015625)"/>
       <path d="M 678 3150 
L 678 3719 
L 4684 2266 
L 4684 1747 
L 678 294 
L 678 863 
L 3897 2003 
L 678 3150 
z
" id="DejaVuSans-3e" transform="scale(0.015625)"/>
       <path d="M 691 4666 
L 3169 4666 
L 3169 4134 
L 1269 4134 
L 1269 2991 
Q 1406 3038 1543 3061 
Q 1681 3084 1819 3084 
Q 2600 3084 3056 2656 
Q 3513 2228 3513 1497 
Q 3513 744 3044 326 
Q 2575 -91 1722 -91 
Q 1428 -91 1123 -41 
Q 819 9 494 109 
L 494 744 
Q 775 591 1075 516 
Q 1375 441 1709 441 
Q 2250 441 2565 725 
Q 2881 1009 2881 1497 
Q 2881 1984 2565 2268 
Q 2250 2553 1709 2553 
Q 1456 2553 1204 2497 
Q 953 2441 691 2322 
L 691 4666 
z
" id="DejaVuSans-35" transform="scale(0.015625)"/>
      </defs>
      <use xlink:href="#DejaVuSans-6b"/>
      <use x="57.910156" xlink:href="#DejaVuSans-3d"/>
      <use x="141.699219" xlink:href="#DejaVuSans-32"/>
      <use x="205.322266" xlink:href="#DejaVuSans-2c"/>
      <use x="237.109375" xlink:href="#DejaVuSans-20"/>
      <use x="268.896484" xlink:href="#DejaVuSans-43"/>
      <use x="338.720703" xlink:href="#DejaVuSans-6f"/>
      <use x="399.902344" xlink:href="#DejaVuSans-6e"/>
      <use x="463.28125" xlink:href="#DejaVuSans-66"/>
      <use x="498.486328" xlink:href="#DejaVuSans-69"/>
      <use x="526.269531" xlink:href="#DejaVuSans-64"/>
      <use x="589.746094" xlink:href="#DejaVuSans-65"/>
      <use x="651.269531" xlink:href="#DejaVuSans-6e"/>
      <use x="714.648438" xlink:href="#DejaVuSans-63"/>
      <use x="769.628906" xlink:href="#DejaVuSans-65"/>
      <use x="831.152344" xlink:href="#DejaVuSans-3e"/>
      <use x="914.941406" xlink:href="#DejaVuSans-3d"/>
      <use x="998.730469" xlink:href="#DejaVuSans-30"/>
      <use x="1062.353516" xlink:href="#DejaVuSans-2e"/>
      <use x="1094.140625" xlink:href="#DejaVuSans-35"/>
     </g>
    </g>
    <g id="line2d_67">
     <path d="M 81.56 495.422187 
L 101.56 495.422187 
" style="fill:none;stroke:#377eb8;stroke-dasharray:2,3.3;stroke-dashoffset:0;stroke-opacity:0.6;stroke-width:2;"/>
    </g>
    <g id="line2d_68"/>
    <g id="text_31">
     <!-- HVS lower bound -->
     <g transform="translate(109.56 498.922187)scale(0.1 -0.1)">
      <defs>
       <path d="M 269 3500 
L 844 3500 
L 1563 769 
L 2278 3500 
L 2956 3500 
L 3675 769 
L 4391 3500 
L 4966 3500 
L 4050 0 
L 3372 0 
L 2619 2869 
L 1863 0 
L 1184 0 
L 269 3500 
z
" id="DejaVuSans-77" transform="scale(0.015625)"/>
       <path d="M 2631 2963 
Q 2534 3019 2420 3045 
Q 2306 3072 2169 3072 
Q 1681 3072 1420 2755 
Q 1159 2438 1159 1844 
L 1159 0 
L 581 0 
L 581 3500 
L 1159 3500 
L 1159 2956 
Q 1341 3275 1631 3429 
Q 1922 3584 2338 3584 
Q 2397 3584 2469 3576 
Q 2541 3569 2628 3553 
L 2631 2963 
z
" id="DejaVuSans-72" transform="scale(0.015625)"/>
       <path d="M 3116 1747 
Q 3116 2381 2855 2742 
Q 2594 3103 2138 3103 
Q 1681 3103 1420 2742 
Q 1159 2381 1159 1747 
Q 1159 1113 1420 752 
Q 1681 391 2138 391 
Q 2594 391 2855 752 
Q 3116 1113 3116 1747 
z
M 1159 2969 
Q 1341 3281 1617 3432 
Q 1894 3584 2278 3584 
Q 2916 3584 3314 3078 
Q 3713 2572 3713 1747 
Q 3713 922 3314 415 
Q 2916 -91 2278 -91 
Q 1894 -91 1617 61 
Q 1341 213 1159 525 
L 1159 0 
L 581 0 
L 581 4863 
L 1159 4863 
L 1159 2969 
z
" id="DejaVuSans-62" transform="scale(0.015625)"/>
      </defs>
      <use xlink:href="#DejaVuSans-48"/>
      <use x="75.195312" xlink:href="#DejaVuSans-56"/>
      <use x="143.603516" xlink:href="#DejaVuSans-53"/>
      <use x="207.080078" xlink:href="#DejaVuSans-20"/>
      <use x="238.867188" xlink:href="#DejaVuSans-6c"/>
      <use x="266.650391" xlink:href="#DejaVuSans-6f"/>
      <use x="327.832031" xlink:href="#DejaVuSans-77"/>
      <use x="409.619141" xlink:href="#DejaVuSans-65"/>
      <use x="471.142578" xlink:href="#DejaVuSans-72"/>
      <use x="512.255859" xlink:href="#DejaVuSans-20"/>
      <use x="544.042969" xlink:href="#DejaVuSans-62"/>
      <use x="607.519531" xlink:href="#DejaVuSans-6f"/>
      <use x="668.701172" xlink:href="#DejaVuSans-75"/>
      <use x="732.080078" xlink:href="#DejaVuSans-6e"/>
      <use x="795.458984" xlink:href="#DejaVuSans-64"/>
     </g>
    </g>
    <g id="line2d_69">
     <path d="M 81.56 510.100312 
L 101.56 510.100312 
" style="fill:none;stroke:#4daf4a;stroke-dasharray:2,3.3;stroke-dashoffset:0;stroke-opacity:0.6;stroke-width:2;"/>
    </g>
    <g id="line2d_70"/>
    <g id="text_32">
     <!-- Model lower bound -->
     <g transform="translate(109.56 513.600312)scale(0.1 -0.1)">
      <use xlink:href="#DejaVuSans-4d"/>
      <use x="86.279297" xlink:href="#DejaVuSans-6f"/>
      <use x="147.460938" xlink:href="#DejaVuSans-64"/>
      <use x="210.9375" xlink:href="#DejaVuSans-65"/>
      <use x="272.460938" xlink:href="#DejaVuSans-6c"/>
      <use x="300.244141" xlink:href="#DejaVuSans-20"/>
      <use x="332.03125" xlink:href="#DejaVuSans-6c"/>
      <use x="359.814453" xlink:href="#DejaVuSans-6f"/>
      <use x="420.996094" xlink:href="#DejaVuSans-77"/>
      <use x="502.783203" xlink:href="#DejaVuSans-65"/>
      <use x="564.306641" xlink:href="#DejaVuSans-72"/>
      <use x="605.419922" xlink:href="#DejaVuSans-20"/>
      <use x="637.207031" xlink:href="#DejaVuSans-62"/>
      <use x="700.683594" xlink:href="#DejaVuSans-6f"/>
      <use x="761.865234" xlink:href="#DejaVuSans-75"/>
      <use x="825.244141" xlink:href="#DejaVuSans-6e"/>
      <use x="888.623047" xlink:href="#DejaVuSans-64"/>
     </g>
    </g>
   </g>
  </g>
 </g>
 <defs>
  <clipPath id="p2bfe802f98">
   <rect height="494.2" width="774.985909" x="72.56" y="30.48"/>
  </clipPath>
 </defs>
</svg>
