<?xml version="1.0" encoding="utf-8" standalone="no"?>
<!DOCTYPE svg PUBLIC "-//W3C//DTD SVG 1.1//EN"
  "http://www.w3.org/Graphics/SVG/1.1/DTD/svg11.dtd">
<svg height="576pt" version="1.1" viewBox="0 0 864 576" width="864pt" xmlns="http://www.w3.org/2000/svg" xmlns:xlink="http://www.w3.org/1999/xlink">
 <metadata>
  <rdf:RDF xmlns:cc="http://creativecommons.org/ns#" xmlns:dc="http://purl.org/dc/elements/1.1/" xmlns:rdf="http://www.w3.org/1999/02/22-rdf-syntax-ns#">
   <cc:Work>
    <dc:type rdf:resource="http://purl.org/dc/dcmitype/StillImage"/>
    <dc:date>2024-12-02T14:15:46.930936</dc:date>
    <dc:format>image/svg+xml</dc:format>
    <dc:creator>
     <cc:Agent>
      <dc:title>Matplotlib v3.4.0, https://matplotlib.org/</dc:title>
     </cc:Agent>
    </dc:creator>
   </cc:Work>
  </rdf:RDF>
 </metadata>
 <defs>
  <style type="text/css">*{stroke-linecap:butt;stroke-linejoin:round;}</style>
 </defs>
 <g id="figure_1">
  <g id="patch_1">
   <path d="M 0 576 
L 864 576 
L 864 0 
L 0 0 
z
" style="fill:#ffffff;"/>
  </g>
  <g id="axes_1">
   <g id="patch_2">
    <path d="M 71.84 525.4 
L 851.04 525.4 
L 851.04 30.48 
L 71.84 30.48 
z
" style="fill:#ffffff;"/>
   </g>
   <g id="matplotlib.axis_1">
    <g id="xtick_1">
     <g id="line2d_1">
      <path clip-path="url(#p8836216f60)" d="M 107.258182 525.4 
L 107.258182 30.48 
" style="fill:none;stroke:#b0b0b0;stroke-dasharray:1.85,0.8;stroke-dashoffset:0;stroke-opacity:0.5;stroke-width:0.5;"/>
     </g>
     <g id="line2d_2">
      <defs>
       <path d="M 0 0 
L 0 3.5 
" id="m71d261ab4b" style="stroke:#000000;stroke-width:0.8;"/>
      </defs>
      <g>
       <use style="stroke:#000000;stroke-width:0.8;" x="107.258182" xlink:href="#m71d261ab4b" y="525.4"/>
      </g>
     </g>
     <g id="text_1">
      <!-- 0 -->
      <g transform="translate(103.440682 541.518125)scale(0.12 -0.12)">
       <defs>
        <path d="M 2034 4250 
Q 1547 4250 1301 3770 
Q 1056 3291 1056 2328 
Q 1056 1369 1301 889 
Q 1547 409 2034 409 
Q 2525 409 2770 889 
Q 3016 1369 3016 2328 
Q 3016 3291 2770 3770 
Q 2525 4250 2034 4250 
z
M 2034 4750 
Q 2819 4750 3233 4129 
Q 3647 3509 3647 2328 
Q 3647 1150 3233 529 
Q 2819 -91 2034 -91 
Q 1250 -91 836 529 
Q 422 1150 422 2328 
Q 422 3509 836 4129 
Q 1250 4750 2034 4750 
z
" id="DejaVuSans-30" transform="scale(0.015625)"/>
       </defs>
       <use xlink:href="#DejaVuSans-30"/>
      </g>
     </g>
    </g>
    <g id="xtick_2">
     <g id="line2d_3">
      <path clip-path="url(#p8836216f60)" d="M 246.153012 525.4 
L 246.153012 30.48 
" style="fill:none;stroke:#b0b0b0;stroke-dasharray:1.85,0.8;stroke-dashoffset:0;stroke-opacity:0.5;stroke-width:0.5;"/>
     </g>
     <g id="line2d_4">
      <g>
       <use style="stroke:#000000;stroke-width:0.8;" x="246.153012" xlink:href="#m71d261ab4b" y="525.4"/>
      </g>
     </g>
     <g id="text_2">
      <!-- 50 -->
      <g transform="translate(238.518012 541.518125)scale(0.12 -0.12)">
       <defs>
        <path d="M 691 4666 
L 3169 4666 
L 3169 4134 
L 1269 4134 
L 1269 2991 
Q 1406 3038 1543 3061 
Q 1681 3084 1819 3084 
Q 2600 3084 3056 2656 
Q 3513 2228 3513 1497 
Q 3513 744 3044 326 
Q 2575 -91 1722 -91 
Q 1428 -91 1123 -41 
Q 819 9 494 109 
L 494 744 
Q 775 591 1075 516 
Q 1375 441 1709 441 
Q 2250 441 2565 725 
Q 2881 1009 2881 1497 
Q 2881 1984 2565 2268 
Q 2250 2553 1709 2553 
Q 1456 2553 1204 2497 
Q 953 2441 691 2322 
L 691 4666 
z
" id="DejaVuSans-35" transform="scale(0.015625)"/>
       </defs>
       <use xlink:href="#DejaVuSans-35"/>
       <use x="63.623047" xlink:href="#DejaVuSans-30"/>
      </g>
     </g>
    </g>
    <g id="xtick_3">
     <g id="line2d_5">
      <path clip-path="url(#p8836216f60)" d="M 385.047843 525.4 
L 385.047843 30.48 
" style="fill:none;stroke:#b0b0b0;stroke-dasharray:1.85,0.8;stroke-dashoffset:0;stroke-opacity:0.5;stroke-width:0.5;"/>
     </g>
     <g id="line2d_6">
      <g>
       <use style="stroke:#000000;stroke-width:0.8;" x="385.047843" xlink:href="#m71d261ab4b" y="525.4"/>
      </g>
     </g>
     <g id="text_3">
      <!-- 100 -->
      <g transform="translate(373.595343 541.518125)scale(0.12 -0.12)">
       <defs>
        <path d="M 794 531 
L 1825 531 
L 1825 4091 
L 703 3866 
L 703 4441 
L 1819 4666 
L 2450 4666 
L 2450 531 
L 3481 531 
L 3481 0 
L 794 0 
L 794 531 
z
" id="DejaVuSans-31" transform="scale(0.015625)"/>
       </defs>
       <use xlink:href="#DejaVuSans-31"/>
       <use x="63.623047" xlink:href="#DejaVuSans-30"/>
       <use x="127.246094" xlink:href="#DejaVuSans-30"/>
      </g>
     </g>
    </g>
    <g id="xtick_4">
     <g id="line2d_7">
      <path clip-path="url(#p8836216f60)" d="M 523.942674 525.4 
L 523.942674 30.48 
" style="fill:none;stroke:#b0b0b0;stroke-dasharray:1.85,0.8;stroke-dashoffset:0;stroke-opacity:0.5;stroke-width:0.5;"/>
     </g>
     <g id="line2d_8">
      <g>
       <use style="stroke:#000000;stroke-width:0.8;" x="523.942674" xlink:href="#m71d261ab4b" y="525.4"/>
      </g>
     </g>
     <g id="text_4">
      <!-- 150 -->
      <g transform="translate(512.490174 541.518125)scale(0.12 -0.12)">
       <use xlink:href="#DejaVuSans-31"/>
       <use x="63.623047" xlink:href="#DejaVuSans-35"/>
       <use x="127.246094" xlink:href="#DejaVuSans-30"/>
      </g>
     </g>
    </g>
    <g id="xtick_5">
     <g id="line2d_9">
      <path clip-path="url(#p8836216f60)" d="M 662.837504 525.4 
L 662.837504 30.48 
" style="fill:none;stroke:#b0b0b0;stroke-dasharray:1.85,0.8;stroke-dashoffset:0;stroke-opacity:0.5;stroke-width:0.5;"/>
     </g>
     <g id="line2d_10">
      <g>
       <use style="stroke:#000000;stroke-width:0.8;" x="662.837504" xlink:href="#m71d261ab4b" y="525.4"/>
      </g>
     </g>
     <g id="text_5">
      <!-- 200 -->
      <g transform="translate(651.385004 541.518125)scale(0.12 -0.12)">
       <defs>
        <path d="M 1228 531 
L 3431 531 
L 3431 0 
L 469 0 
L 469 531 
Q 828 903 1448 1529 
Q 2069 2156 2228 2338 
Q 2531 2678 2651 2914 
Q 2772 3150 2772 3378 
Q 2772 3750 2511 3984 
Q 2250 4219 1831 4219 
Q 1534 4219 1204 4116 
Q 875 4013 500 3803 
L 500 4441 
Q 881 4594 1212 4672 
Q 1544 4750 1819 4750 
Q 2544 4750 2975 4387 
Q 3406 4025 3406 3419 
Q 3406 3131 3298 2873 
Q 3191 2616 2906 2266 
Q 2828 2175 2409 1742 
Q 1991 1309 1228 531 
z
" id="DejaVuSans-32" transform="scale(0.015625)"/>
       </defs>
       <use xlink:href="#DejaVuSans-32"/>
       <use x="63.623047" xlink:href="#DejaVuSans-30"/>
       <use x="127.246094" xlink:href="#DejaVuSans-30"/>
      </g>
     </g>
    </g>
    <g id="xtick_6">
     <g id="line2d_11">
      <path clip-path="url(#p8836216f60)" d="M 801.732335 525.4 
L 801.732335 30.48 
" style="fill:none;stroke:#b0b0b0;stroke-dasharray:1.85,0.8;stroke-dashoffset:0;stroke-opacity:0.5;stroke-width:0.5;"/>
     </g>
     <g id="line2d_12">
      <g>
       <use style="stroke:#000000;stroke-width:0.8;" x="801.732335" xlink:href="#m71d261ab4b" y="525.4"/>
      </g>
     </g>
     <g id="text_6">
      <!-- 250 -->
      <g transform="translate(790.279835 541.518125)scale(0.12 -0.12)">
       <use xlink:href="#DejaVuSans-32"/>
       <use x="63.623047" xlink:href="#DejaVuSans-35"/>
       <use x="127.246094" xlink:href="#DejaVuSans-30"/>
      </g>
     </g>
    </g>
    <g id="text_7">
     <!-- Magnitude of Solarize -->
     <g transform="translate(385.392656 558.651563)scale(0.14 -0.14)">
      <defs>
       <path d="M 628 4666 
L 1569 4666 
L 2759 1491 
L 3956 4666 
L 4897 4666 
L 4897 0 
L 4281 0 
L 4281 4097 
L 3078 897 
L 2444 897 
L 1241 4097 
L 1241 0 
L 628 0 
L 628 4666 
z
" id="DejaVuSans-4d" transform="scale(0.015625)"/>
       <path d="M 2194 1759 
Q 1497 1759 1228 1600 
Q 959 1441 959 1056 
Q 959 750 1161 570 
Q 1363 391 1709 391 
Q 2188 391 2477 730 
Q 2766 1069 2766 1631 
L 2766 1759 
L 2194 1759 
z
M 3341 1997 
L 3341 0 
L 2766 0 
L 2766 531 
Q 2569 213 2275 61 
Q 1981 -91 1556 -91 
Q 1019 -91 701 211 
Q 384 513 384 1019 
Q 384 1609 779 1909 
Q 1175 2209 1959 2209 
L 2766 2209 
L 2766 2266 
Q 2766 2663 2505 2880 
Q 2244 3097 1772 3097 
Q 1472 3097 1187 3025 
Q 903 2953 641 2809 
L 641 3341 
Q 956 3463 1253 3523 
Q 1550 3584 1831 3584 
Q 2591 3584 2966 3190 
Q 3341 2797 3341 1997 
z
" id="DejaVuSans-61" transform="scale(0.015625)"/>
       <path d="M 2906 1791 
Q 2906 2416 2648 2759 
Q 2391 3103 1925 3103 
Q 1463 3103 1205 2759 
Q 947 2416 947 1791 
Q 947 1169 1205 825 
Q 1463 481 1925 481 
Q 2391 481 2648 825 
Q 2906 1169 2906 1791 
z
M 3481 434 
Q 3481 -459 3084 -895 
Q 2688 -1331 1869 -1331 
Q 1566 -1331 1297 -1286 
Q 1028 -1241 775 -1147 
L 775 -588 
Q 1028 -725 1275 -790 
Q 1522 -856 1778 -856 
Q 2344 -856 2625 -561 
Q 2906 -266 2906 331 
L 2906 616 
Q 2728 306 2450 153 
Q 2172 0 1784 0 
Q 1141 0 747 490 
Q 353 981 353 1791 
Q 353 2603 747 3093 
Q 1141 3584 1784 3584 
Q 2172 3584 2450 3431 
Q 2728 3278 2906 2969 
L 2906 3500 
L 3481 3500 
L 3481 434 
z
" id="DejaVuSans-67" transform="scale(0.015625)"/>
       <path d="M 3513 2113 
L 3513 0 
L 2938 0 
L 2938 2094 
Q 2938 2591 2744 2837 
Q 2550 3084 2163 3084 
Q 1697 3084 1428 2787 
Q 1159 2491 1159 1978 
L 1159 0 
L 581 0 
L 581 3500 
L 1159 3500 
L 1159 2956 
Q 1366 3272 1645 3428 
Q 1925 3584 2291 3584 
Q 2894 3584 3203 3211 
Q 3513 2838 3513 2113 
z
" id="DejaVuSans-6e" transform="scale(0.015625)"/>
       <path d="M 603 3500 
L 1178 3500 
L 1178 0 
L 603 0 
L 603 3500 
z
M 603 4863 
L 1178 4863 
L 1178 4134 
L 603 4134 
L 603 4863 
z
" id="DejaVuSans-69" transform="scale(0.015625)"/>
       <path d="M 1172 4494 
L 1172 3500 
L 2356 3500 
L 2356 3053 
L 1172 3053 
L 1172 1153 
Q 1172 725 1289 603 
Q 1406 481 1766 481 
L 2356 481 
L 2356 0 
L 1766 0 
Q 1100 0 847 248 
Q 594 497 594 1153 
L 594 3053 
L 172 3053 
L 172 3500 
L 594 3500 
L 594 4494 
L 1172 4494 
z
" id="DejaVuSans-74" transform="scale(0.015625)"/>
       <path d="M 544 1381 
L 544 3500 
L 1119 3500 
L 1119 1403 
Q 1119 906 1312 657 
Q 1506 409 1894 409 
Q 2359 409 2629 706 
Q 2900 1003 2900 1516 
L 2900 3500 
L 3475 3500 
L 3475 0 
L 2900 0 
L 2900 538 
Q 2691 219 2414 64 
Q 2138 -91 1772 -91 
Q 1169 -91 856 284 
Q 544 659 544 1381 
z
M 1991 3584 
L 1991 3584 
z
" id="DejaVuSans-75" transform="scale(0.015625)"/>
       <path d="M 2906 2969 
L 2906 4863 
L 3481 4863 
L 3481 0 
L 2906 0 
L 2906 525 
Q 2725 213 2448 61 
Q 2172 -91 1784 -91 
Q 1150 -91 751 415 
Q 353 922 353 1747 
Q 353 2572 751 3078 
Q 1150 3584 1784 3584 
Q 2172 3584 2448 3432 
Q 2725 3281 2906 2969 
z
M 947 1747 
Q 947 1113 1208 752 
Q 1469 391 1925 391 
Q 2381 391 2643 752 
Q 2906 1113 2906 1747 
Q 2906 2381 2643 2742 
Q 2381 3103 1925 3103 
Q 1469 3103 1208 2742 
Q 947 2381 947 1747 
z
" id="DejaVuSans-64" transform="scale(0.015625)"/>
       <path d="M 3597 1894 
L 3597 1613 
L 953 1613 
Q 991 1019 1311 708 
Q 1631 397 2203 397 
Q 2534 397 2845 478 
Q 3156 559 3463 722 
L 3463 178 
Q 3153 47 2828 -22 
Q 2503 -91 2169 -91 
Q 1331 -91 842 396 
Q 353 884 353 1716 
Q 353 2575 817 3079 
Q 1281 3584 2069 3584 
Q 2775 3584 3186 3129 
Q 3597 2675 3597 1894 
z
M 3022 2063 
Q 3016 2534 2758 2815 
Q 2500 3097 2075 3097 
Q 1594 3097 1305 2825 
Q 1016 2553 972 2059 
L 3022 2063 
z
" id="DejaVuSans-65" transform="scale(0.015625)"/>
       <path id="DejaVuSans-20" transform="scale(0.015625)"/>
       <path d="M 1959 3097 
Q 1497 3097 1228 2736 
Q 959 2375 959 1747 
Q 959 1119 1226 758 
Q 1494 397 1959 397 
Q 2419 397 2687 759 
Q 2956 1122 2956 1747 
Q 2956 2369 2687 2733 
Q 2419 3097 1959 3097 
z
M 1959 3584 
Q 2709 3584 3137 3096 
Q 3566 2609 3566 1747 
Q 3566 888 3137 398 
Q 2709 -91 1959 -91 
Q 1206 -91 779 398 
Q 353 888 353 1747 
Q 353 2609 779 3096 
Q 1206 3584 1959 3584 
z
" id="DejaVuSans-6f" transform="scale(0.015625)"/>
       <path d="M 2375 4863 
L 2375 4384 
L 1825 4384 
Q 1516 4384 1395 4259 
Q 1275 4134 1275 3809 
L 1275 3500 
L 2222 3500 
L 2222 3053 
L 1275 3053 
L 1275 0 
L 697 0 
L 697 3053 
L 147 3053 
L 147 3500 
L 697 3500 
L 697 3744 
Q 697 4328 969 4595 
Q 1241 4863 1831 4863 
L 2375 4863 
z
" id="DejaVuSans-66" transform="scale(0.015625)"/>
       <path d="M 3425 4513 
L 3425 3897 
Q 3066 4069 2747 4153 
Q 2428 4238 2131 4238 
Q 1616 4238 1336 4038 
Q 1056 3838 1056 3469 
Q 1056 3159 1242 3001 
Q 1428 2844 1947 2747 
L 2328 2669 
Q 3034 2534 3370 2195 
Q 3706 1856 3706 1288 
Q 3706 609 3251 259 
Q 2797 -91 1919 -91 
Q 1588 -91 1214 -16 
Q 841 59 441 206 
L 441 856 
Q 825 641 1194 531 
Q 1563 422 1919 422 
Q 2459 422 2753 634 
Q 3047 847 3047 1241 
Q 3047 1584 2836 1778 
Q 2625 1972 2144 2069 
L 1759 2144 
Q 1053 2284 737 2584 
Q 422 2884 422 3419 
Q 422 4038 858 4394 
Q 1294 4750 2059 4750 
Q 2388 4750 2728 4690 
Q 3069 4631 3425 4513 
z
" id="DejaVuSans-53" transform="scale(0.015625)"/>
       <path d="M 603 4863 
L 1178 4863 
L 1178 0 
L 603 0 
L 603 4863 
z
" id="DejaVuSans-6c" transform="scale(0.015625)"/>
       <path d="M 2631 2963 
Q 2534 3019 2420 3045 
Q 2306 3072 2169 3072 
Q 1681 3072 1420 2755 
Q 1159 2438 1159 1844 
L 1159 0 
L 581 0 
L 581 3500 
L 1159 3500 
L 1159 2956 
Q 1341 3275 1631 3429 
Q 1922 3584 2338 3584 
Q 2397 3584 2469 3576 
Q 2541 3569 2628 3553 
L 2631 2963 
z
" id="DejaVuSans-72" transform="scale(0.015625)"/>
       <path d="M 353 3500 
L 3084 3500 
L 3084 2975 
L 922 459 
L 3084 459 
L 3084 0 
L 275 0 
L 275 525 
L 2438 3041 
L 353 3041 
L 353 3500 
z
" id="DejaVuSans-7a" transform="scale(0.015625)"/>
      </defs>
      <use xlink:href="#DejaVuSans-4d"/>
      <use x="86.279297" xlink:href="#DejaVuSans-61"/>
      <use x="147.558594" xlink:href="#DejaVuSans-67"/>
      <use x="211.035156" xlink:href="#DejaVuSans-6e"/>
      <use x="274.414062" xlink:href="#DejaVuSans-69"/>
      <use x="302.197266" xlink:href="#DejaVuSans-74"/>
      <use x="341.40625" xlink:href="#DejaVuSans-75"/>
      <use x="404.785156" xlink:href="#DejaVuSans-64"/>
      <use x="468.261719" xlink:href="#DejaVuSans-65"/>
      <use x="529.785156" xlink:href="#DejaVuSans-20"/>
      <use x="561.572266" xlink:href="#DejaVuSans-6f"/>
      <use x="622.753906" xlink:href="#DejaVuSans-66"/>
      <use x="657.958984" xlink:href="#DejaVuSans-20"/>
      <use x="689.746094" xlink:href="#DejaVuSans-53"/>
      <use x="753.222656" xlink:href="#DejaVuSans-6f"/>
      <use x="814.404297" xlink:href="#DejaVuSans-6c"/>
      <use x="842.1875" xlink:href="#DejaVuSans-61"/>
      <use x="903.466797" xlink:href="#DejaVuSans-72"/>
      <use x="944.580078" xlink:href="#DejaVuSans-69"/>
      <use x="972.363281" xlink:href="#DejaVuSans-7a"/>
      <use x="1024.853516" xlink:href="#DejaVuSans-65"/>
     </g>
    </g>
   </g>
   <g id="matplotlib.axis_2">
    <g id="ytick_1">
     <g id="line2d_13">
      <path clip-path="url(#p8836216f60)" d="M 71.84 525.4 
L 851.04 525.4 
" style="fill:none;stroke:#b0b0b0;stroke-dasharray:1.85,0.8;stroke-dashoffset:0;stroke-opacity:0.5;stroke-width:0.5;"/>
     </g>
     <g id="line2d_14">
      <defs>
       <path d="M 0 0 
L -3.5 0 
" id="m24efc72c02" style="stroke:#000000;stroke-width:0.8;"/>
      </defs>
      <g>
       <use style="stroke:#000000;stroke-width:0.8;" x="71.84" xlink:href="#m24efc72c02" y="525.4"/>
      </g>
     </g>
     <g id="text_8">
      <!-- 0.000 -->
      <g transform="translate(30.48625 529.959063)scale(0.12 -0.12)">
       <defs>
        <path d="M 684 794 
L 1344 794 
L 1344 0 
L 684 0 
L 684 794 
z
" id="DejaVuSans-2e" transform="scale(0.015625)"/>
       </defs>
       <use xlink:href="#DejaVuSans-30"/>
       <use x="63.623047" xlink:href="#DejaVuSans-2e"/>
       <use x="95.410156" xlink:href="#DejaVuSans-30"/>
       <use x="159.033203" xlink:href="#DejaVuSans-30"/>
       <use x="222.65625" xlink:href="#DejaVuSans-30"/>
      </g>
     </g>
    </g>
    <g id="ytick_2">
     <g id="line2d_15">
      <path clip-path="url(#p8836216f60)" d="M 71.84 442.913333 
L 851.04 442.913333 
" style="fill:none;stroke:#b0b0b0;stroke-dasharray:1.85,0.8;stroke-dashoffset:0;stroke-opacity:0.5;stroke-width:0.5;"/>
     </g>
     <g id="line2d_16">
      <g>
       <use style="stroke:#000000;stroke-width:0.8;" x="71.84" xlink:href="#m24efc72c02" y="442.913333"/>
      </g>
     </g>
     <g id="text_9">
      <!-- 0.200 -->
      <g transform="translate(30.48625 447.472396)scale(0.12 -0.12)">
       <use xlink:href="#DejaVuSans-30"/>
       <use x="63.623047" xlink:href="#DejaVuSans-2e"/>
       <use x="95.410156" xlink:href="#DejaVuSans-32"/>
       <use x="159.033203" xlink:href="#DejaVuSans-30"/>
       <use x="222.65625" xlink:href="#DejaVuSans-30"/>
      </g>
     </g>
    </g>
    <g id="ytick_3">
     <g id="line2d_17">
      <path clip-path="url(#p8836216f60)" d="M 71.84 360.426667 
L 851.04 360.426667 
" style="fill:none;stroke:#b0b0b0;stroke-dasharray:1.85,0.8;stroke-dashoffset:0;stroke-opacity:0.5;stroke-width:0.5;"/>
     </g>
     <g id="line2d_18">
      <g>
       <use style="stroke:#000000;stroke-width:0.8;" x="71.84" xlink:href="#m24efc72c02" y="360.426667"/>
      </g>
     </g>
     <g id="text_10">
      <!-- 0.400 -->
      <g transform="translate(30.48625 364.985729)scale(0.12 -0.12)">
       <defs>
        <path d="M 2419 4116 
L 825 1625 
L 2419 1625 
L 2419 4116 
z
M 2253 4666 
L 3047 4666 
L 3047 1625 
L 3713 1625 
L 3713 1100 
L 3047 1100 
L 3047 0 
L 2419 0 
L 2419 1100 
L 313 1100 
L 313 1709 
L 2253 4666 
z
" id="DejaVuSans-34" transform="scale(0.015625)"/>
       </defs>
       <use xlink:href="#DejaVuSans-30"/>
       <use x="63.623047" xlink:href="#DejaVuSans-2e"/>
       <use x="95.410156" xlink:href="#DejaVuSans-34"/>
       <use x="159.033203" xlink:href="#DejaVuSans-30"/>
       <use x="222.65625" xlink:href="#DejaVuSans-30"/>
      </g>
     </g>
    </g>
    <g id="ytick_4">
     <g id="line2d_19">
      <path clip-path="url(#p8836216f60)" d="M 71.84 277.94 
L 851.04 277.94 
" style="fill:none;stroke:#b0b0b0;stroke-dasharray:1.85,0.8;stroke-dashoffset:0;stroke-opacity:0.5;stroke-width:0.5;"/>
     </g>
     <g id="line2d_20">
      <g>
       <use style="stroke:#000000;stroke-width:0.8;" x="71.84" xlink:href="#m24efc72c02" y="277.94"/>
      </g>
     </g>
     <g id="text_11">
      <!-- 0.600 -->
      <g transform="translate(30.48625 282.499062)scale(0.12 -0.12)">
       <defs>
        <path d="M 2113 2584 
Q 1688 2584 1439 2293 
Q 1191 2003 1191 1497 
Q 1191 994 1439 701 
Q 1688 409 2113 409 
Q 2538 409 2786 701 
Q 3034 994 3034 1497 
Q 3034 2003 2786 2293 
Q 2538 2584 2113 2584 
z
M 3366 4563 
L 3366 3988 
Q 3128 4100 2886 4159 
Q 2644 4219 2406 4219 
Q 1781 4219 1451 3797 
Q 1122 3375 1075 2522 
Q 1259 2794 1537 2939 
Q 1816 3084 2150 3084 
Q 2853 3084 3261 2657 
Q 3669 2231 3669 1497 
Q 3669 778 3244 343 
Q 2819 -91 2113 -91 
Q 1303 -91 875 529 
Q 447 1150 447 2328 
Q 447 3434 972 4092 
Q 1497 4750 2381 4750 
Q 2619 4750 2861 4703 
Q 3103 4656 3366 4563 
z
" id="DejaVuSans-36" transform="scale(0.015625)"/>
       </defs>
       <use xlink:href="#DejaVuSans-30"/>
       <use x="63.623047" xlink:href="#DejaVuSans-2e"/>
       <use x="95.410156" xlink:href="#DejaVuSans-36"/>
       <use x="159.033203" xlink:href="#DejaVuSans-30"/>
       <use x="222.65625" xlink:href="#DejaVuSans-30"/>
      </g>
     </g>
    </g>
    <g id="ytick_5">
     <g id="line2d_21">
      <path clip-path="url(#p8836216f60)" d="M 71.84 195.453333 
L 851.04 195.453333 
" style="fill:none;stroke:#b0b0b0;stroke-dasharray:1.85,0.8;stroke-dashoffset:0;stroke-opacity:0.5;stroke-width:0.5;"/>
     </g>
     <g id="line2d_22">
      <g>
       <use style="stroke:#000000;stroke-width:0.8;" x="71.84" xlink:href="#m24efc72c02" y="195.453333"/>
      </g>
     </g>
     <g id="text_12">
      <!-- 0.800 -->
      <g transform="translate(30.48625 200.012396)scale(0.12 -0.12)">
       <defs>
        <path d="M 2034 2216 
Q 1584 2216 1326 1975 
Q 1069 1734 1069 1313 
Q 1069 891 1326 650 
Q 1584 409 2034 409 
Q 2484 409 2743 651 
Q 3003 894 3003 1313 
Q 3003 1734 2745 1975 
Q 2488 2216 2034 2216 
z
M 1403 2484 
Q 997 2584 770 2862 
Q 544 3141 544 3541 
Q 544 4100 942 4425 
Q 1341 4750 2034 4750 
Q 2731 4750 3128 4425 
Q 3525 4100 3525 3541 
Q 3525 3141 3298 2862 
Q 3072 2584 2669 2484 
Q 3125 2378 3379 2068 
Q 3634 1759 3634 1313 
Q 3634 634 3220 271 
Q 2806 -91 2034 -91 
Q 1263 -91 848 271 
Q 434 634 434 1313 
Q 434 1759 690 2068 
Q 947 2378 1403 2484 
z
M 1172 3481 
Q 1172 3119 1398 2916 
Q 1625 2713 2034 2713 
Q 2441 2713 2670 2916 
Q 2900 3119 2900 3481 
Q 2900 3844 2670 4047 
Q 2441 4250 2034 4250 
Q 1625 4250 1398 4047 
Q 1172 3844 1172 3481 
z
" id="DejaVuSans-38" transform="scale(0.015625)"/>
       </defs>
       <use xlink:href="#DejaVuSans-30"/>
       <use x="63.623047" xlink:href="#DejaVuSans-2e"/>
       <use x="95.410156" xlink:href="#DejaVuSans-38"/>
       <use x="159.033203" xlink:href="#DejaVuSans-30"/>
       <use x="222.65625" xlink:href="#DejaVuSans-30"/>
      </g>
     </g>
    </g>
    <g id="ytick_6">
     <g id="line2d_23">
      <path clip-path="url(#p8836216f60)" d="M 71.84 112.966667 
L 851.04 112.966667 
" style="fill:none;stroke:#b0b0b0;stroke-dasharray:1.85,0.8;stroke-dashoffset:0;stroke-opacity:0.5;stroke-width:0.5;"/>
     </g>
     <g id="line2d_24">
      <g>
       <use style="stroke:#000000;stroke-width:0.8;" x="71.84" xlink:href="#m24efc72c02" y="112.966667"/>
      </g>
     </g>
     <g id="text_13">
      <!-- 1.000 -->
      <g transform="translate(30.48625 117.525729)scale(0.12 -0.12)">
       <use xlink:href="#DejaVuSans-31"/>
       <use x="63.623047" xlink:href="#DejaVuSans-2e"/>
       <use x="95.410156" xlink:href="#DejaVuSans-30"/>
       <use x="159.033203" xlink:href="#DejaVuSans-30"/>
       <use x="222.65625" xlink:href="#DejaVuSans-30"/>
      </g>
     </g>
    </g>
    <g id="ytick_7">
     <g id="line2d_25">
      <path clip-path="url(#p8836216f60)" d="M 71.84 30.48 
L 851.04 30.48 
" style="fill:none;stroke:#b0b0b0;stroke-dasharray:1.85,0.8;stroke-dashoffset:0;stroke-opacity:0.5;stroke-width:0.5;"/>
     </g>
     <g id="line2d_26">
      <g>
       <use style="stroke:#000000;stroke-width:0.8;" x="71.84" xlink:href="#m24efc72c02" y="30.48"/>
      </g>
     </g>
     <g id="text_14">
      <!-- 1.200 -->
      <g transform="translate(30.48625 35.039062)scale(0.12 -0.12)">
       <use xlink:href="#DejaVuSans-31"/>
       <use x="63.623047" xlink:href="#DejaVuSans-2e"/>
       <use x="95.410156" xlink:href="#DejaVuSans-32"/>
       <use x="159.033203" xlink:href="#DejaVuSans-30"/>
       <use x="222.65625" xlink:href="#DejaVuSans-30"/>
      </g>
     </g>
    </g>
    <g id="ytick_8">
     <g id="line2d_27">
      <path clip-path="url(#p8836216f60)" d="M 71.84 314.234133 
L 851.04 314.234133 
" style="fill:none;stroke:#b0b0b0;stroke-dasharray:1.85,0.8;stroke-dashoffset:0;stroke-opacity:0.5;stroke-width:0.5;"/>
     </g>
     <g id="line2d_28">
      <g>
       <use style="stroke:#000000;stroke-width:0.8;" x="71.84" xlink:href="#m24efc72c02" y="314.234133"/>
      </g>
     </g>
     <g id="text_15">
      <!-- 0.512 -->
      <g style="fill:#4daf4a;" transform="translate(30.48625 318.793196)scale(0.12 -0.12)">
       <use xlink:href="#DejaVuSans-30"/>
       <use x="63.623047" xlink:href="#DejaVuSans-2e"/>
       <use x="95.410156" xlink:href="#DejaVuSans-35"/>
       <use x="159.033203" xlink:href="#DejaVuSans-31"/>
       <use x="222.65625" xlink:href="#DejaVuSans-32"/>
      </g>
     </g>
    </g>
    <g id="text_16">
     <!-- Confidence -->
     <g transform="translate(23.574688 317.299687)rotate(-90)scale(0.14 -0.14)">
      <defs>
       <path d="M 4122 4306 
L 4122 3641 
Q 3803 3938 3442 4084 
Q 3081 4231 2675 4231 
Q 1875 4231 1450 3742 
Q 1025 3253 1025 2328 
Q 1025 1406 1450 917 
Q 1875 428 2675 428 
Q 3081 428 3442 575 
Q 3803 722 4122 1019 
L 4122 359 
Q 3791 134 3420 21 
Q 3050 -91 2638 -91 
Q 1578 -91 968 557 
Q 359 1206 359 2328 
Q 359 3453 968 4101 
Q 1578 4750 2638 4750 
Q 3056 4750 3426 4639 
Q 3797 4528 4122 4306 
z
" id="DejaVuSans-43" transform="scale(0.015625)"/>
       <path d="M 3122 3366 
L 3122 2828 
Q 2878 2963 2633 3030 
Q 2388 3097 2138 3097 
Q 1578 3097 1268 2742 
Q 959 2388 959 1747 
Q 959 1106 1268 751 
Q 1578 397 2138 397 
Q 2388 397 2633 464 
Q 2878 531 3122 666 
L 3122 134 
Q 2881 22 2623 -34 
Q 2366 -91 2075 -91 
Q 1284 -91 818 406 
Q 353 903 353 1747 
Q 353 2603 823 3093 
Q 1294 3584 2113 3584 
Q 2378 3584 2631 3529 
Q 2884 3475 3122 3366 
z
" id="DejaVuSans-63" transform="scale(0.015625)"/>
      </defs>
      <use xlink:href="#DejaVuSans-43"/>
      <use x="69.824219" xlink:href="#DejaVuSans-6f"/>
      <use x="131.005859" xlink:href="#DejaVuSans-6e"/>
      <use x="194.384766" xlink:href="#DejaVuSans-66"/>
      <use x="229.589844" xlink:href="#DejaVuSans-69"/>
      <use x="257.373047" xlink:href="#DejaVuSans-64"/>
      <use x="320.849609" xlink:href="#DejaVuSans-65"/>
      <use x="382.373047" xlink:href="#DejaVuSans-6e"/>
      <use x="445.751953" xlink:href="#DejaVuSans-63"/>
      <use x="500.732422" xlink:href="#DejaVuSans-65"/>
     </g>
    </g>
   </g>
   <g id="line2d_29">
    <path clip-path="url(#p8836216f60)" d="M 107.258182 298.561667 
L 107.258182 291.962733 
L 130.870303 299.386533 
L 130.870303 299.386533 
L 154.482424 307.6352 
L 154.482424 304.335733 
L 178.094545 310.1098 
L 178.094545 300.2114 
L 201.706667 314.234133 
L 201.706667 308.460067 
L 225.318788 310.1098 
L 225.318788 307.6352 
L 248.930909 299.386533 
L 248.930909 304.335733 
L 272.54303 291.962733 
L 272.54303 287.013533 
L 296.155152 284.538933 
L 296.155152 282.064333 
L 319.767273 263.0924 
L 319.767273 264.742133 
L 343.379394 251.544267 
L 343.379394 251.544267 
L 366.991515 236.696667 
L 366.991515 230.097733 
L 390.603636 221.0242 
L 390.603636 211.950667 
L 414.215758 206.1766 
L 414.215758 207.826333 
L 437.827879 201.2274 
L 437.827879 203.702 
L 461.44 199.577667 
L 461.44 197.927933 
L 485.052121 197.927933 
L 485.052121 200.402533 
L 508.664242 192.153867 
L 508.664242 197.103067 
L 532.276364 192.153867 
L 532.276364 189.679267 
L 555.888485 182.255467 
L 555.888485 188.029533 
L 579.500606 164.1084 
L 579.500606 165.758133 
L 603.112727 148.435933 
L 603.112727 155.034867 
L 626.724848 150.910533 
L 626.724848 151.7354 
L 650.33697 138.537533 
L 650.33697 141.012133 
L 673.949091 137.712667 
L 673.949091 136.8878 
L 697.561212 131.113733 
L 697.561212 131.9386 
L 721.173333 127.814267 
L 721.173333 126.9894 
L 744.785455 122.0402 
L 744.785455 121.215333 
L 768.397576 118.740733 
L 768.397576 117.915867 
L 792.009697 115.441267 
L 792.009697 116.266133 
L 815.621818 112.966667 
L 815.621818 112.966667 
" style="fill:none;stroke:#4daf4a;stroke-linecap:square;stroke-width:2;"/>
   </g>
   <g id="line2d_30">
    <path clip-path="url(#p8836216f60)" d="M 107.258182 314.234133 
L 107.258182 314.234133 
L 130.870303 304.255093 
L 130.870303 304.255093 
L 154.482424 294.446656 
L 154.482424 294.446656 
L 178.094545 284.811842 
L 178.094545 284.811842 
L 201.706667 275.353839 
L 201.706667 275.353839 
L 225.318788 266.076016 
L 225.318788 266.076016 
L 248.930909 256.981943 
L 248.930909 256.981943 
L 272.54303 248.075409 
L 272.54303 248.075409 
L 296.155152 239.360452 
L 296.155152 239.360452 
L 319.767273 230.841377 
L 319.767273 230.841377 
L 343.379394 222.522799 
L 343.379394 222.522799 
L 366.991515 214.40967 
L 366.991515 214.40967 
L 390.603636 206.507332 
L 390.603636 206.507332 
L 414.215758 198.821565 
L 414.215758 198.821565 
L 437.827879 191.358654 
L 437.827879 191.358654 
L 461.44 184.125462 
L 461.44 184.125462 
L 485.052121 177.129532 
L 485.052121 177.129532 
L 508.664242 170.379202 
L 508.664242 170.379202 
L 532.276364 163.883756 
L 532.276364 163.883756 
L 555.888485 157.653618 
L 555.888485 157.653618 
L 579.500606 151.700609 
L 579.500606 151.700609 
L 603.112727 146.038286 
L 603.112727 146.038286 
L 626.724848 140.682419 
L 626.724848 140.682419 
L 650.33697 135.651665 
L 650.33697 135.651665 
L 673.949091 130.968576 
L 673.949091 130.968576 
L 697.561212 126.661183 
L 697.561212 126.661183 
L 721.173333 122.765665 
L 721.173333 122.765665 
L 744.785455 119.331303 
L 744.785455 119.331303 
L 768.397576 116.431136 
L 768.397576 116.431136 
L 792.009697 114.191541 
L 792.009697 114.191541 
L 815.621818 112.966667 
L 815.621818 112.966667 
" style="fill:none;stroke:#ff0000;stroke-dasharray:12.8,3.2,2,3.2;stroke-dashoffset:0;stroke-width:2;"/>
   </g>
   <g id="line2d_31">
    <path clip-path="url(#p8836216f60)" d="M 107.258182 314.234133 
L 107.258182 314.234133 
L 130.870303 301.039933 
L 130.870303 301.039933 
L 154.482424 288.292993 
L 154.482424 288.292993 
L 178.094545 275.993315 
L 178.094545 275.993315 
L 201.706667 264.140897 
L 201.706667 264.140897 
L 225.318788 252.735741 
L 225.318788 252.735741 
L 248.930909 241.777845 
L 248.930909 241.777845 
L 272.54303 231.267211 
L 272.54303 231.267211 
L 296.155152 221.203838 
L 296.155152 221.203838 
L 319.767273 211.587725 
L 319.767273 211.587725 
L 343.379394 202.418874 
L 343.379394 202.418874 
L 366.991515 193.697284 
L 366.991515 193.697284 
L 390.603636 185.422955 
L 390.603636 185.422955 
L 414.215758 177.595887 
L 414.215758 177.595887 
L 437.827879 170.216079 
L 437.827879 170.216079 
L 461.44 163.283533 
L 461.44 163.283533 
L 485.052121 156.798248 
L 485.052121 156.798248 
L 508.664242 150.760224 
L 508.664242 150.760224 
L 532.276364 145.169461 
L 532.276364 145.169461 
L 555.888485 140.025959 
L 555.888485 140.025959 
L 579.500606 135.329719 
L 579.500606 135.329719 
L 603.112727 131.080739 
L 603.112727 131.080739 
L 626.724848 127.27902 
L 626.724848 127.27902 
L 650.33697 123.924562 
L 650.33697 123.924562 
L 673.949091 121.017365 
L 673.949091 121.017365 
L 697.561212 118.55743 
L 697.561212 118.55743 
L 721.173333 116.544755 
L 721.173333 116.544755 
L 744.785455 114.979341 
L 744.785455 114.979341 
L 768.397576 113.861189 
L 768.397576 113.861189 
L 792.009697 113.190297 
L 792.009697 113.190297 
L 815.621818 112.966667 
L 815.621818 112.966667 
" style="fill:none;stroke:#ff0000;stroke-dasharray:7.4,3.2;stroke-dashoffset:0;stroke-width:2;"/>
   </g>
   <g id="line2d_32">
    <path clip-path="url(#p8836216f60)" d="M 107.258182 484.156667 
L 107.258182 484.156667 
L 130.870303 484.156667 
L 130.870303 484.156667 
L 154.482424 484.079509 
L 154.482424 484.079509 
L 178.094545 483.74885 
L 178.094545 483.74885 
L 201.706667 483.098382 
L 201.706667 483.098382 
L 225.318788 481.614269 
L 225.318788 481.614269 
L 248.930909 478.699184 
L 248.930909 478.699184 
L 272.54303 472.977726 
L 272.54303 472.977726 
L 296.155152 464.120474 
L 296.155152 464.120474 
L 319.767273 449.84913 
L 319.767273 449.84913 
L 343.379394 434.756703 
L 343.379394 434.756703 
L 366.991515 415.472358 
L 366.991515 415.472358 
L 390.603636 399.141212 
L 390.603636 399.141212 
L 414.215758 384.356936 
L 414.215758 384.356936 
L 437.827879 376.252202 
L 437.827879 376.252202 
L 461.44 373.848174 
L 461.44 373.848174 
L 485.052121 373.388411 
L 485.052121 373.388411 
L 508.664242 368.248918 
L 508.664242 368.248918 
L 532.276364 358.796883 
L 532.276364 358.796883 
L 555.888485 343.324226 
L 555.888485 343.324226 
L 579.500606 326.741764 
L 579.500606 326.741764 
L 603.112727 306.13402 
L 603.112727 306.13402 
L 626.724848 285.661366 
L 626.724848 285.661366 
L 650.33697 262.047967 
L 650.33697 262.047967 
L 673.949091 240.181187 
L 673.949091 240.181187 
L 697.561212 215.154489 
L 697.561212 215.154489 
L 721.173333 194.509762 
L 721.173333 194.509762 
L 744.785455 172.455139 
L 744.785455 172.455139 
L 768.397576 154.196741 
L 768.397576 154.196741 
L 792.009697 136.52867 
L 792.009697 136.52867 
L 815.621818 119.929515 
L 815.621818 119.929515 
" style="fill:none;stroke:#333333;stroke-linecap:square;stroke-opacity:0.8;"/>
   </g>
   <g id="line2d_33">
    <path clip-path="url(#p8836216f60)" d="M 107.258182 484.156667 
L 107.258182 484.156667 
L 130.870303 475.377444 
L 130.870303 475.377444 
L 154.482424 464.936561 
L 154.482424 464.936561 
L 178.094545 448.307993 
L 178.094545 448.307993 
L 201.706667 432.116442 
L 201.706667 432.116442 
L 225.318788 411.568261 
L 225.318788 411.568261 
L 248.930909 392.028939 
L 248.930909 392.028939 
L 272.54303 371.687926 
L 272.54303 371.687926 
L 296.155152 355.357884 
L 296.155152 355.357884 
L 319.767273 338.55625 
L 319.767273 338.55625 
L 343.379394 325.793161 
L 343.379394 325.793161 
L 366.991515 314.524005 
L 366.991515 314.524005 
L 390.603636 307.1484 
L 390.603636 307.1484 
L 414.215758 301.935294 
L 414.215758 301.935294 
L 437.827879 299.802488 
L 437.827879 299.802488 
L 461.44 299.297766 
L 461.44 299.297766 
L 485.052121 299.106226 
L 485.052121 299.106226 
L 508.664242 297.156378 
L 508.664242 297.156378 
L 532.276364 292.821027 
L 532.276364 292.821027 
L 555.888485 284.765596 
L 555.888485 284.765596 
L 579.500606 274.851421 
L 579.500606 274.851421 
L 603.112727 261.050625 
L 603.112727 261.050625 
L 626.724848 246.90558 
L 626.724848 246.90558 
L 650.33697 230.364647 
L 650.33697 230.364647 
L 673.949091 214.941817 
L 673.949091 214.941817 
L 697.561212 197.684039 
L 697.561212 197.684039 
L 721.173333 182.721691 
L 721.173333 182.721691 
L 744.785455 165.799055 
L 744.785455 165.799055 
L 768.397576 152.395398 
L 768.397576 152.395398 
L 792.009697 138.46881 
L 792.009697 138.46881 
L 815.621818 120.434317 
L 815.621818 120.434317 
" style="fill:none;stroke:#333333;stroke-dasharray:3.7,1.6;stroke-dashoffset:0;stroke-opacity:0.8;"/>
   </g>
   <g id="line2d_34">
    <path clip-path="url(#p8836216f60)" d="M 107.258182 484.156667 
L 107.258182 484.156667 
L 130.870303 484.156667 
L 130.870303 484.156667 
L 154.482424 484.145327 
L 154.482424 484.145327 
L 178.094545 483.97011 
L 178.094545 483.97011 
L 201.706667 483.49065 
L 201.706667 483.49065 
L 225.318788 482.216386 
L 225.318788 482.216386 
L 248.930909 479.856893 
L 248.930909 479.856893 
L 272.54303 474.938366 
L 272.54303 474.938366 
L 296.155152 467.478639 
L 296.155152 467.478639 
L 319.767273 454.632027 
L 319.767273 454.632027 
L 343.379394 440.691744 
L 343.379394 440.691744 
L 366.991515 423.302602 
L 366.991515 423.302602 
L 390.603636 408.094695 
L 390.603636 408.094695 
L 414.215758 394.161039 
L 414.215758 394.161039 
L 437.827879 386.412934 
L 437.827879 386.412934 
L 461.44 384.302856 
L 461.44 384.302856 
L 485.052121 383.247888 
L 485.052121 383.247888 
L 508.664242 376.998237 
L 508.664242 376.998237 
L 532.276364 366.267762 
L 532.276364 366.267762 
L 555.888485 349.71471 
L 555.888485 349.71471 
L 579.500606 332.441533 
L 579.500606 332.441533 
L 603.112727 311.119936 
L 603.112727 311.119936 
L 626.724848 290.049837 
L 626.724848 290.049837 
L 650.33697 265.692866 
L 650.33697 265.692866 
L 673.949091 243.211595 
L 673.949091 243.211595 
L 697.561212 217.530604 
L 697.561212 217.530604 
L 721.173333 196.335067 
L 721.173333 196.335067 
L 744.785455 173.898171 
L 744.785455 173.898171 
L 768.397576 155.331881 
L 768.397576 155.331881 
L 792.009697 137.346676 
L 792.009697 137.346676 
L 815.621818 120.603293 
L 815.621818 120.603293 
" style="fill:none;stroke:#333333;stroke-linecap:square;stroke-opacity:0.8;"/>
    <defs>
     <path d="M 0 1.5 
C 0.397805 1.5 0.77937 1.341951 1.06066 1.06066 
C 1.341951 0.77937 1.5 0.397805 1.5 0 
C 1.5 -0.397805 1.341951 -0.77937 1.06066 -1.06066 
C 0.77937 -1.341951 0.397805 -1.5 0 -1.5 
C -0.397805 -1.5 -0.77937 -1.341951 -1.06066 -1.06066 
C -1.341951 -0.77937 -1.5 -0.397805 -1.5 0 
C -1.5 0.397805 -1.341951 0.77937 -1.06066 1.06066 
C -0.77937 1.341951 -0.397805 1.5 0 1.5 
z
" id="m16818dcbbb" style="stroke:#333333;stroke-opacity:0.8;"/>
    </defs>
    <g clip-path="url(#p8836216f60)">
     <use style="fill:#333333;fill-opacity:0.8;stroke:#333333;stroke-opacity:0.8;" x="107.258182" xlink:href="#m16818dcbbb" y="484.156667"/>
     <use style="fill:#333333;fill-opacity:0.8;stroke:#333333;stroke-opacity:0.8;" x="107.258182" xlink:href="#m16818dcbbb" y="484.156667"/>
     <use style="fill:#333333;fill-opacity:0.8;stroke:#333333;stroke-opacity:0.8;" x="130.870303" xlink:href="#m16818dcbbb" y="484.156667"/>
     <use style="fill:#333333;fill-opacity:0.8;stroke:#333333;stroke-opacity:0.8;" x="130.870303" xlink:href="#m16818dcbbb" y="484.156667"/>
     <use style="fill:#333333;fill-opacity:0.8;stroke:#333333;stroke-opacity:0.8;" x="154.482424" xlink:href="#m16818dcbbb" y="484.145327"/>
     <use style="fill:#333333;fill-opacity:0.8;stroke:#333333;stroke-opacity:0.8;" x="154.482424" xlink:href="#m16818dcbbb" y="484.145327"/>
     <use style="fill:#333333;fill-opacity:0.8;stroke:#333333;stroke-opacity:0.8;" x="178.094545" xlink:href="#m16818dcbbb" y="483.97011"/>
     <use style="fill:#333333;fill-opacity:0.8;stroke:#333333;stroke-opacity:0.8;" x="178.094545" xlink:href="#m16818dcbbb" y="483.97011"/>
     <use style="fill:#333333;fill-opacity:0.8;stroke:#333333;stroke-opacity:0.8;" x="201.706667" xlink:href="#m16818dcbbb" y="483.49065"/>
     <use style="fill:#333333;fill-opacity:0.8;stroke:#333333;stroke-opacity:0.8;" x="201.706667" xlink:href="#m16818dcbbb" y="483.49065"/>
     <use style="fill:#333333;fill-opacity:0.8;stroke:#333333;stroke-opacity:0.8;" x="225.318788" xlink:href="#m16818dcbbb" y="482.216386"/>
     <use style="fill:#333333;fill-opacity:0.8;stroke:#333333;stroke-opacity:0.8;" x="225.318788" xlink:href="#m16818dcbbb" y="482.216386"/>
     <use style="fill:#333333;fill-opacity:0.8;stroke:#333333;stroke-opacity:0.8;" x="248.930909" xlink:href="#m16818dcbbb" y="479.856893"/>
     <use style="fill:#333333;fill-opacity:0.8;stroke:#333333;stroke-opacity:0.8;" x="248.930909" xlink:href="#m16818dcbbb" y="479.856893"/>
     <use style="fill:#333333;fill-opacity:0.8;stroke:#333333;stroke-opacity:0.8;" x="272.54303" xlink:href="#m16818dcbbb" y="474.938366"/>
     <use style="fill:#333333;fill-opacity:0.8;stroke:#333333;stroke-opacity:0.8;" x="272.54303" xlink:href="#m16818dcbbb" y="474.938366"/>
     <use style="fill:#333333;fill-opacity:0.8;stroke:#333333;stroke-opacity:0.8;" x="296.155152" xlink:href="#m16818dcbbb" y="467.478639"/>
     <use style="fill:#333333;fill-opacity:0.8;stroke:#333333;stroke-opacity:0.8;" x="296.155152" xlink:href="#m16818dcbbb" y="467.478639"/>
     <use style="fill:#333333;fill-opacity:0.8;stroke:#333333;stroke-opacity:0.8;" x="319.767273" xlink:href="#m16818dcbbb" y="454.632027"/>
     <use style="fill:#333333;fill-opacity:0.8;stroke:#333333;stroke-opacity:0.8;" x="319.767273" xlink:href="#m16818dcbbb" y="454.632027"/>
     <use style="fill:#333333;fill-opacity:0.8;stroke:#333333;stroke-opacity:0.8;" x="343.379394" xlink:href="#m16818dcbbb" y="440.691744"/>
     <use style="fill:#333333;fill-opacity:0.8;stroke:#333333;stroke-opacity:0.8;" x="343.379394" xlink:href="#m16818dcbbb" y="440.691744"/>
     <use style="fill:#333333;fill-opacity:0.8;stroke:#333333;stroke-opacity:0.8;" x="366.991515" xlink:href="#m16818dcbbb" y="423.302602"/>
     <use style="fill:#333333;fill-opacity:0.8;stroke:#333333;stroke-opacity:0.8;" x="366.991515" xlink:href="#m16818dcbbb" y="423.302602"/>
     <use style="fill:#333333;fill-opacity:0.8;stroke:#333333;stroke-opacity:0.8;" x="390.603636" xlink:href="#m16818dcbbb" y="408.094695"/>
     <use style="fill:#333333;fill-opacity:0.8;stroke:#333333;stroke-opacity:0.8;" x="390.603636" xlink:href="#m16818dcbbb" y="408.094695"/>
     <use style="fill:#333333;fill-opacity:0.8;stroke:#333333;stroke-opacity:0.8;" x="414.215758" xlink:href="#m16818dcbbb" y="394.161039"/>
     <use style="fill:#333333;fill-opacity:0.8;stroke:#333333;stroke-opacity:0.8;" x="414.215758" xlink:href="#m16818dcbbb" y="394.161039"/>
     <use style="fill:#333333;fill-opacity:0.8;stroke:#333333;stroke-opacity:0.8;" x="437.827879" xlink:href="#m16818dcbbb" y="386.412934"/>
     <use style="fill:#333333;fill-opacity:0.8;stroke:#333333;stroke-opacity:0.8;" x="437.827879" xlink:href="#m16818dcbbb" y="386.412934"/>
     <use style="fill:#333333;fill-opacity:0.8;stroke:#333333;stroke-opacity:0.8;" x="461.44" xlink:href="#m16818dcbbb" y="384.302856"/>
     <use style="fill:#333333;fill-opacity:0.8;stroke:#333333;stroke-opacity:0.8;" x="461.44" xlink:href="#m16818dcbbb" y="384.302856"/>
     <use style="fill:#333333;fill-opacity:0.8;stroke:#333333;stroke-opacity:0.8;" x="485.052121" xlink:href="#m16818dcbbb" y="383.247888"/>
     <use style="fill:#333333;fill-opacity:0.8;stroke:#333333;stroke-opacity:0.8;" x="485.052121" xlink:href="#m16818dcbbb" y="383.247888"/>
     <use style="fill:#333333;fill-opacity:0.8;stroke:#333333;stroke-opacity:0.8;" x="508.664242" xlink:href="#m16818dcbbb" y="376.998237"/>
     <use style="fill:#333333;fill-opacity:0.8;stroke:#333333;stroke-opacity:0.8;" x="508.664242" xlink:href="#m16818dcbbb" y="376.998237"/>
     <use style="fill:#333333;fill-opacity:0.8;stroke:#333333;stroke-opacity:0.8;" x="532.276364" xlink:href="#m16818dcbbb" y="366.267762"/>
     <use style="fill:#333333;fill-opacity:0.8;stroke:#333333;stroke-opacity:0.8;" x="532.276364" xlink:href="#m16818dcbbb" y="366.267762"/>
     <use style="fill:#333333;fill-opacity:0.8;stroke:#333333;stroke-opacity:0.8;" x="555.888485" xlink:href="#m16818dcbbb" y="349.71471"/>
     <use style="fill:#333333;fill-opacity:0.8;stroke:#333333;stroke-opacity:0.8;" x="555.888485" xlink:href="#m16818dcbbb" y="349.71471"/>
     <use style="fill:#333333;fill-opacity:0.8;stroke:#333333;stroke-opacity:0.8;" x="579.500606" xlink:href="#m16818dcbbb" y="332.441533"/>
     <use style="fill:#333333;fill-opacity:0.8;stroke:#333333;stroke-opacity:0.8;" x="579.500606" xlink:href="#m16818dcbbb" y="332.441533"/>
     <use style="fill:#333333;fill-opacity:0.8;stroke:#333333;stroke-opacity:0.8;" x="603.112727" xlink:href="#m16818dcbbb" y="311.119936"/>
     <use style="fill:#333333;fill-opacity:0.8;stroke:#333333;stroke-opacity:0.8;" x="603.112727" xlink:href="#m16818dcbbb" y="311.119936"/>
     <use style="fill:#333333;fill-opacity:0.8;stroke:#333333;stroke-opacity:0.8;" x="626.724848" xlink:href="#m16818dcbbb" y="290.049837"/>
     <use style="fill:#333333;fill-opacity:0.8;stroke:#333333;stroke-opacity:0.8;" x="626.724848" xlink:href="#m16818dcbbb" y="290.049837"/>
     <use style="fill:#333333;fill-opacity:0.8;stroke:#333333;stroke-opacity:0.8;" x="650.33697" xlink:href="#m16818dcbbb" y="265.692866"/>
     <use style="fill:#333333;fill-opacity:0.8;stroke:#333333;stroke-opacity:0.8;" x="650.33697" xlink:href="#m16818dcbbb" y="265.692866"/>
     <use style="fill:#333333;fill-opacity:0.8;stroke:#333333;stroke-opacity:0.8;" x="673.949091" xlink:href="#m16818dcbbb" y="243.211595"/>
     <use style="fill:#333333;fill-opacity:0.8;stroke:#333333;stroke-opacity:0.8;" x="673.949091" xlink:href="#m16818dcbbb" y="243.211595"/>
     <use style="fill:#333333;fill-opacity:0.8;stroke:#333333;stroke-opacity:0.8;" x="697.561212" xlink:href="#m16818dcbbb" y="217.530604"/>
     <use style="fill:#333333;fill-opacity:0.8;stroke:#333333;stroke-opacity:0.8;" x="697.561212" xlink:href="#m16818dcbbb" y="217.530604"/>
     <use style="fill:#333333;fill-opacity:0.8;stroke:#333333;stroke-opacity:0.8;" x="721.173333" xlink:href="#m16818dcbbb" y="196.335067"/>
     <use style="fill:#333333;fill-opacity:0.8;stroke:#333333;stroke-opacity:0.8;" x="721.173333" xlink:href="#m16818dcbbb" y="196.335067"/>
     <use style="fill:#333333;fill-opacity:0.8;stroke:#333333;stroke-opacity:0.8;" x="744.785455" xlink:href="#m16818dcbbb" y="173.898171"/>
     <use style="fill:#333333;fill-opacity:0.8;stroke:#333333;stroke-opacity:0.8;" x="744.785455" xlink:href="#m16818dcbbb" y="173.898171"/>
     <use style="fill:#333333;fill-opacity:0.8;stroke:#333333;stroke-opacity:0.8;" x="768.397576" xlink:href="#m16818dcbbb" y="155.331881"/>
     <use style="fill:#333333;fill-opacity:0.8;stroke:#333333;stroke-opacity:0.8;" x="768.397576" xlink:href="#m16818dcbbb" y="155.331881"/>
     <use style="fill:#333333;fill-opacity:0.8;stroke:#333333;stroke-opacity:0.8;" x="792.009697" xlink:href="#m16818dcbbb" y="137.346676"/>
     <use style="fill:#333333;fill-opacity:0.8;stroke:#333333;stroke-opacity:0.8;" x="792.009697" xlink:href="#m16818dcbbb" y="137.346676"/>
     <use style="fill:#333333;fill-opacity:0.8;stroke:#333333;stroke-opacity:0.8;" x="815.621818" xlink:href="#m16818dcbbb" y="120.603293"/>
     <use style="fill:#333333;fill-opacity:0.8;stroke:#333333;stroke-opacity:0.8;" x="815.621818" xlink:href="#m16818dcbbb" y="120.603293"/>
    </g>
   </g>
   <g id="line2d_35">
    <path clip-path="url(#p8836216f60)" d="M 107.258182 484.156667 
L 107.258182 484.156667 
L 130.870303 478.67075 
L 130.870303 478.67075 
L 154.482424 470.05395 
L 154.482424 470.05395 
L 178.094545 455.451928 
L 178.094545 455.451928 
L 201.706667 440.827157 
L 201.706667 440.827157 
L 225.318788 422.049753 
L 225.318788 422.049753 
L 248.930909 404.652123 
L 248.930909 404.652123 
L 272.54303 385.942996 
L 272.54303 385.942996 
L 296.155152 369.9276 
L 296.155152 369.9276 
L 319.767273 352.396439 
L 319.767273 352.396439 
L 343.379394 337.685056 
L 343.379394 337.685056 
L 366.991515 322.536736 
L 366.991515 322.536736 
L 390.603636 310.081613 
L 390.603636 310.081613 
L 414.215758 298.499146 
L 414.215758 298.499146 
L 437.827879 291.353993 
L 437.827879 291.353993 
L 461.44 288.615921 
L 461.44 288.615921 
L 485.052121 287.29633 
L 485.052121 287.29633 
L 508.664242 281.371246 
L 508.664242 281.371246 
L 532.276364 273.14617 
L 532.276364 273.14617 
L 555.888485 261.098087 
L 555.888485 261.098087 
L 579.500606 249.653997 
L 579.500606 249.653997 
L 603.112727 235.777546 
L 603.112727 235.777546 
L 626.724848 222.796687 
L 626.724848 222.796687 
L 650.33697 208.119171 
L 650.33697 208.119171 
L 673.949091 195.111373 
L 673.949091 195.111373 
L 697.561212 180.331607 
L 697.561212 180.331607 
L 721.173333 168.09965 
L 721.173333 168.09965 
L 744.785455 154.639744 
L 744.785455 154.639744 
L 768.397576 143.316276 
L 768.397576 143.316276 
L 792.009697 131.899226 
L 792.009697 131.899226 
L 815.621818 121.394406 
L 815.621818 121.394406 
" style="fill:none;stroke:#333333;stroke-dasharray:1,1.65;stroke-dashoffset:0;stroke-opacity:0.8;"/>
   </g>
   <g id="line2d_36">
    <path clip-path="url(#p8836216f60)" d="M 107.258182 319.183333 
L 130.870303 305.664685 
L 154.482424 292.604296 
L 178.094545 280.002167 
L 201.706667 267.858296 
L 225.318788 256.172685 
L 248.930909 244.945333 
L 272.54303 234.176241 
L 296.155152 223.865407 
L 319.767273 214.012833 
L 343.379394 204.618519 
L 366.991515 195.682463 
L 390.603636 187.204667 
L 414.215758 179.18513 
L 437.827879 171.623852 
L 461.44 164.520833 
L 485.052121 157.876074 
L 508.664242 151.689574 
L 532.276364 145.961333 
L 555.888485 140.691352 
L 579.500606 135.87963 
L 603.112727 131.526167 
L 626.724848 127.630963 
L 650.33697 124.194019 
L 673.949091 121.215333 
L 697.561212 118.694907 
L 721.173333 116.632741 
L 744.785455 115.028833 
L 768.397576 113.883185 
L 792.009697 113.195796 
L 815.621818 112.966667 
" style="fill:none;stroke:#984ea3;stroke-linecap:square;stroke-width:2;"/>
   </g>
   <g id="line2d_37">
    <path clip-path="url(#p8836216f60)" d="M 71.84 314.234133 
L 851.04 314.234133 
" style="fill:none;stroke:#4daf4a;stroke-dasharray:2,3.3;stroke-dashoffset:0;stroke-opacity:0.6;stroke-width:2;"/>
   </g>
   <g id="patch_3">
    <path d="M 71.84 525.4 
L 71.84 30.48 
" style="fill:none;stroke:#000000;stroke-linecap:square;stroke-linejoin:miter;stroke-width:0.8;"/>
   </g>
   <g id="patch_4">
    <path d="M 851.04 525.4 
L 851.04 30.48 
" style="fill:none;stroke:#000000;stroke-linecap:square;stroke-linejoin:miter;stroke-width:0.8;"/>
   </g>
   <g id="patch_5">
    <path d="M 71.84 525.4 
L 851.04 525.4 
" style="fill:none;stroke:#000000;stroke-linecap:square;stroke-linejoin:miter;stroke-width:0.8;"/>
   </g>
   <g id="patch_6">
    <path d="M 71.84 30.48 
L 851.04 30.48 
" style="fill:none;stroke:#000000;stroke-linecap:square;stroke-linejoin:miter;stroke-width:0.8;"/>
   </g>
   <g id="text_17">
    <!-- Solarize -->
    <g transform="translate(429.70875 24.48)scale(0.16 -0.16)">
     <use xlink:href="#DejaVuSans-53"/>
     <use x="63.476562" xlink:href="#DejaVuSans-6f"/>
     <use x="124.658203" xlink:href="#DejaVuSans-6c"/>
     <use x="152.441406" xlink:href="#DejaVuSans-61"/>
     <use x="213.720703" xlink:href="#DejaVuSans-72"/>
     <use x="254.833984" xlink:href="#DejaVuSans-69"/>
     <use x="282.617188" xlink:href="#DejaVuSans-7a"/>
     <use x="335.107422" xlink:href="#DejaVuSans-65"/>
    </g>
   </g>
   <g id="legend_1">
    <g id="line2d_38">
     <path d="M 80.84 43.578437 
L 100.84 43.578437 
" style="fill:none;stroke:#4daf4a;stroke-linecap:square;stroke-width:2;"/>
    </g>
    <g id="line2d_39"/>
    <g id="text_18">
     <!-- Model Confidence -->
     <g transform="translate(108.84 47.078437)scale(0.1 -0.1)">
      <use xlink:href="#DejaVuSans-4d"/>
      <use x="86.279297" xlink:href="#DejaVuSans-6f"/>
      <use x="147.460938" xlink:href="#DejaVuSans-64"/>
      <use x="210.9375" xlink:href="#DejaVuSans-65"/>
      <use x="272.460938" xlink:href="#DejaVuSans-6c"/>
      <use x="300.244141" xlink:href="#DejaVuSans-20"/>
      <use x="332.03125" xlink:href="#DejaVuSans-43"/>
      <use x="401.855469" xlink:href="#DejaVuSans-6f"/>
      <use x="463.037109" xlink:href="#DejaVuSans-6e"/>
      <use x="526.416016" xlink:href="#DejaVuSans-66"/>
      <use x="561.621094" xlink:href="#DejaVuSans-69"/>
      <use x="589.404297" xlink:href="#DejaVuSans-64"/>
      <use x="652.880859" xlink:href="#DejaVuSans-65"/>
      <use x="714.404297" xlink:href="#DejaVuSans-6e"/>
      <use x="777.783203" xlink:href="#DejaVuSans-63"/>
      <use x="832.763672" xlink:href="#DejaVuSans-65"/>
     </g>
    </g>
    <g id="line2d_40">
     <path d="M 80.84 58.256562 
L 100.84 58.256562 
" style="fill:none;stroke:#ff0000;stroke-dasharray:12.8,3.2,2,3.2;stroke-dashoffset:0;stroke-width:2;"/>
    </g>
    <g id="line2d_41"/>
    <g id="text_19">
     <!-- k=1.5 -->
     <g transform="translate(108.84 61.756562)scale(0.1 -0.1)">
      <defs>
       <path d="M 581 4863 
L 1159 4863 
L 1159 1991 
L 2875 3500 
L 3609 3500 
L 1753 1863 
L 3688 0 
L 2938 0 
L 1159 1709 
L 1159 0 
L 581 0 
L 581 4863 
z
" id="DejaVuSans-6b" transform="scale(0.015625)"/>
       <path d="M 678 2906 
L 4684 2906 
L 4684 2381 
L 678 2381 
L 678 2906 
z
M 678 1631 
L 4684 1631 
L 4684 1100 
L 678 1100 
L 678 1631 
z
" id="DejaVuSans-3d" transform="scale(0.015625)"/>
      </defs>
      <use xlink:href="#DejaVuSans-6b"/>
      <use x="57.910156" xlink:href="#DejaVuSans-3d"/>
      <use x="141.699219" xlink:href="#DejaVuSans-31"/>
      <use x="205.322266" xlink:href="#DejaVuSans-2e"/>
      <use x="237.109375" xlink:href="#DejaVuSans-35"/>
     </g>
    </g>
    <g id="line2d_42">
     <path d="M 80.84 72.934687 
L 100.84 72.934687 
" style="fill:none;stroke:#ff0000;stroke-dasharray:7.4,3.2;stroke-dashoffset:0;stroke-width:2;"/>
    </g>
    <g id="line2d_43"/>
    <g id="text_20">
     <!-- k=2 -->
     <g transform="translate(108.84 76.434687)scale(0.1 -0.1)">
      <use xlink:href="#DejaVuSans-6b"/>
      <use x="57.910156" xlink:href="#DejaVuSans-3d"/>
      <use x="141.699219" xlink:href="#DejaVuSans-32"/>
     </g>
    </g>
    <g id="line2d_44">
     <path d="M 80.84 87.612812 
L 100.84 87.612812 
" style="fill:none;stroke:#333333;stroke-linecap:square;stroke-opacity:0.8;"/>
    </g>
    <g id="line2d_45"/>
    <g id="text_21">
     <!-- SSIM -->
     <g transform="translate(108.84 91.112812)scale(0.1 -0.1)">
      <defs>
       <path d="M 628 4666 
L 1259 4666 
L 1259 0 
L 628 0 
L 628 4666 
z
" id="DejaVuSans-49" transform="scale(0.015625)"/>
      </defs>
      <use xlink:href="#DejaVuSans-53"/>
      <use x="63.476562" xlink:href="#DejaVuSans-53"/>
      <use x="126.953125" xlink:href="#DejaVuSans-49"/>
      <use x="156.445312" xlink:href="#DejaVuSans-4d"/>
     </g>
    </g>
    <g id="line2d_46">
     <path d="M 80.84 102.290937 
L 100.84 102.290937 
" style="fill:none;stroke:#333333;stroke-dasharray:3.7,1.6;stroke-dashoffset:0;stroke-opacity:0.8;"/>
    </g>
    <g id="line2d_47"/>
    <g id="text_22">
     <!-- NCC -->
     <g transform="translate(108.84 105.790937)scale(0.1 -0.1)">
      <defs>
       <path d="M 628 4666 
L 1478 4666 
L 3547 763 
L 3547 4666 
L 4159 4666 
L 4159 0 
L 3309 0 
L 1241 3903 
L 1241 0 
L 628 0 
L 628 4666 
z
" id="DejaVuSans-4e" transform="scale(0.015625)"/>
      </defs>
      <use xlink:href="#DejaVuSans-4e"/>
      <use x="74.804688" xlink:href="#DejaVuSans-43"/>
      <use x="144.628906" xlink:href="#DejaVuSans-43"/>
     </g>
    </g>
    <g id="line2d_48">
     <path d="M 80.84 116.969062 
L 100.84 116.969062 
" style="fill:none;stroke:#333333;stroke-linecap:square;stroke-opacity:0.8;"/>
    </g>
    <g id="line2d_49">
     <g>
      <use style="fill:#333333;fill-opacity:0.8;stroke:#333333;stroke-opacity:0.8;" x="90.84" xlink:href="#m16818dcbbb" y="116.969062"/>
     </g>
    </g>
    <g id="text_23">
     <!-- UIQ -->
     <g transform="translate(108.84 120.469062)scale(0.1 -0.1)">
      <defs>
       <path d="M 556 4666 
L 1191 4666 
L 1191 1831 
Q 1191 1081 1462 751 
Q 1734 422 2344 422 
Q 2950 422 3222 751 
Q 3494 1081 3494 1831 
L 3494 4666 
L 4128 4666 
L 4128 1753 
Q 4128 841 3676 375 
Q 3225 -91 2344 -91 
Q 1459 -91 1007 375 
Q 556 841 556 1753 
L 556 4666 
z
" id="DejaVuSans-55" transform="scale(0.015625)"/>
       <path d="M 2522 4238 
Q 1834 4238 1429 3725 
Q 1025 3213 1025 2328 
Q 1025 1447 1429 934 
Q 1834 422 2522 422 
Q 3209 422 3611 934 
Q 4013 1447 4013 2328 
Q 4013 3213 3611 3725 
Q 3209 4238 2522 4238 
z
M 3406 84 
L 4238 -825 
L 3475 -825 
L 2784 -78 
Q 2681 -84 2626 -87 
Q 2572 -91 2522 -91 
Q 1538 -91 948 567 
Q 359 1225 359 2328 
Q 359 3434 948 4092 
Q 1538 4750 2522 4750 
Q 3503 4750 4090 4092 
Q 4678 3434 4678 2328 
Q 4678 1516 4351 937 
Q 4025 359 3406 84 
z
" id="DejaVuSans-51" transform="scale(0.015625)"/>
      </defs>
      <use xlink:href="#DejaVuSans-55"/>
      <use x="73.193359" xlink:href="#DejaVuSans-49"/>
      <use x="102.685547" xlink:href="#DejaVuSans-51"/>
     </g>
    </g>
    <g id="line2d_50">
     <path d="M 80.84 131.647187 
L 100.84 131.647187 
" style="fill:none;stroke:#333333;stroke-dasharray:1,1.65;stroke-dashoffset:0;stroke-opacity:0.8;"/>
    </g>
    <g id="line2d_51"/>
    <g id="text_24">
     <!-- SCC -->
     <g transform="translate(108.84 135.147187)scale(0.1 -0.1)">
      <use xlink:href="#DejaVuSans-53"/>
      <use x="63.476562" xlink:href="#DejaVuSans-43"/>
      <use x="133.300781" xlink:href="#DejaVuSans-43"/>
     </g>
    </g>
    <g id="line2d_52">
     <path d="M 80.84 146.325312 
L 100.84 146.325312 
" style="fill:none;stroke:#984ea3;stroke-linecap:square;stroke-width:2;"/>
    </g>
    <g id="line2d_53"/>
    <g id="text_25">
     <!-- k=2, Confidence&gt;=0.5 -->
     <g transform="translate(108.84 149.825312)scale(0.1 -0.1)">
      <defs>
       <path d="M 750 794 
L 1409 794 
L 1409 256 
L 897 -744 
L 494 -744 
L 750 256 
L 750 794 
z
" id="DejaVuSans-2c" transform="scale(0.015625)"/>
       <path d="M 678 3150 
L 678 3719 
L 4684 2266 
L 4684 1747 
L 678 294 
L 678 863 
L 3897 2003 
L 678 3150 
z
" id="DejaVuSans-3e" transform="scale(0.015625)"/>
      </defs>
      <use xlink:href="#DejaVuSans-6b"/>
      <use x="57.910156" xlink:href="#DejaVuSans-3d"/>
      <use x="141.699219" xlink:href="#DejaVuSans-32"/>
      <use x="205.322266" xlink:href="#DejaVuSans-2c"/>
      <use x="237.109375" xlink:href="#DejaVuSans-20"/>
      <use x="268.896484" xlink:href="#DejaVuSans-43"/>
      <use x="338.720703" xlink:href="#DejaVuSans-6f"/>
      <use x="399.902344" xlink:href="#DejaVuSans-6e"/>
      <use x="463.28125" xlink:href="#DejaVuSans-66"/>
      <use x="498.486328" xlink:href="#DejaVuSans-69"/>
      <use x="526.269531" xlink:href="#DejaVuSans-64"/>
      <use x="589.746094" xlink:href="#DejaVuSans-65"/>
      <use x="651.269531" xlink:href="#DejaVuSans-6e"/>
      <use x="714.648438" xlink:href="#DejaVuSans-63"/>
      <use x="769.628906" xlink:href="#DejaVuSans-65"/>
      <use x="831.152344" xlink:href="#DejaVuSans-3e"/>
      <use x="914.941406" xlink:href="#DejaVuSans-3d"/>
      <use x="998.730469" xlink:href="#DejaVuSans-30"/>
      <use x="1062.353516" xlink:href="#DejaVuSans-2e"/>
      <use x="1094.140625" xlink:href="#DejaVuSans-35"/>
     </g>
    </g>
    <g id="line2d_54">
     <path d="M 80.84 161.003437 
L 100.84 161.003437 
" style="fill:none;stroke:#4daf4a;stroke-dasharray:2,3.3;stroke-dashoffset:0;stroke-opacity:0.6;stroke-width:2;"/>
    </g>
    <g id="line2d_55"/>
    <g id="text_26">
     <!-- Model lower bound -->
     <g transform="translate(108.84 164.503437)scale(0.1 -0.1)">
      <defs>
       <path d="M 269 3500 
L 844 3500 
L 1563 769 
L 2278 3500 
L 2956 3500 
L 3675 769 
L 4391 3500 
L 4966 3500 
L 4050 0 
L 3372 0 
L 2619 2869 
L 1863 0 
L 1184 0 
L 269 3500 
z
" id="DejaVuSans-77" transform="scale(0.015625)"/>
       <path d="M 3116 1747 
Q 3116 2381 2855 2742 
Q 2594 3103 2138 3103 
Q 1681 3103 1420 2742 
Q 1159 2381 1159 1747 
Q 1159 1113 1420 752 
Q 1681 391 2138 391 
Q 2594 391 2855 752 
Q 3116 1113 3116 1747 
z
M 1159 2969 
Q 1341 3281 1617 3432 
Q 1894 3584 2278 3584 
Q 2916 3584 3314 3078 
Q 3713 2572 3713 1747 
Q 3713 922 3314 415 
Q 2916 -91 2278 -91 
Q 1894 -91 1617 61 
Q 1341 213 1159 525 
L 1159 0 
L 581 0 
L 581 4863 
L 1159 4863 
L 1159 2969 
z
" id="DejaVuSans-62" transform="scale(0.015625)"/>
      </defs>
      <use xlink:href="#DejaVuSans-4d"/>
      <use x="86.279297" xlink:href="#DejaVuSans-6f"/>
      <use x="147.460938" xlink:href="#DejaVuSans-64"/>
      <use x="210.9375" xlink:href="#DejaVuSans-65"/>
      <use x="272.460938" xlink:href="#DejaVuSans-6c"/>
      <use x="300.244141" xlink:href="#DejaVuSans-20"/>
      <use x="332.03125" xlink:href="#DejaVuSans-6c"/>
      <use x="359.814453" xlink:href="#DejaVuSans-6f"/>
      <use x="420.996094" xlink:href="#DejaVuSans-77"/>
      <use x="502.783203" xlink:href="#DejaVuSans-65"/>
      <use x="564.306641" xlink:href="#DejaVuSans-72"/>
      <use x="605.419922" xlink:href="#DejaVuSans-20"/>
      <use x="637.207031" xlink:href="#DejaVuSans-62"/>
      <use x="700.683594" xlink:href="#DejaVuSans-6f"/>
      <use x="761.865234" xlink:href="#DejaVuSans-75"/>
      <use x="825.244141" xlink:href="#DejaVuSans-6e"/>
      <use x="888.623047" xlink:href="#DejaVuSans-64"/>
     </g>
    </g>
   </g>
  </g>
 </g>
 <defs>
  <clipPath id="p8836216f60">
   <rect height="494.92" width="779.2" x="71.84" y="30.48"/>
  </clipPath>
 </defs>
</svg>
